<?xml version="1.0" encoding="UTF-8"?>
<svg width="210mm" height="297mm" clip-rule="evenodd" fill-rule="evenodd" image-rendering="optimizeQuality" shape-rendering="geometricPrecision" text-rendering="geometricPrecision" version="1.1" viewBox="0 0 21000 29700" xmlns="http://www.w3.org/2000/svg">
 <defs>
  <style type="text/css">.fil0 {fill:#2B2A29}</style>
 </defs>
 <path class="fil0" d="m9233 7429c37-22 93-48 150-75 7-1 13-1 20-2-64 27-130 54-170 77zm3997 10357c-40 0-79 0-113-7-13-3-25-7-37-11-9-11-22-26-35-40 25 16 51 32 82 42 30 9 66 13 103 16zm-159-1l4 4c9 12 8 16-10 13-18-4-54-15-93-22-11-1-22-3-33-4-6-8-33-23-61-38 39 5 78 11 114 21 32 8 61 20 79 26zm-189-1c21 10 37 19 37 24 0 0 0 1-1 1l-36-25zm-26 29h-11c22 12 44 24 67 37-14 1-27 2-61 2-32 1-82 1-133 1 32-6 60-12 80-15 32-5 39-4 46-4-27-8-54-15-71-21-17-5-23-7-29-10 41 4 82 8 112 10zm-143 41c6 2 13 4 29 7 19 4 49 10 79 15-8 0-15 0-50 9-32 9-87 25-144 42 27-8 52-17 74-25 42-13 73-20 105-28-24-2-49-4-75-6-26-1-53-2-80-2 21-4 42-8 62-12zm-95 76c28-2 57-4 85-6 28-1 55-1 81-1-33 11-67 23-110 41s-95 44-145 59c-43 13-84 18-125 22 11-8 20-15 30-22 40-27 69-37 72-45 4-8-17-14-35-18-18-3-32-5-46-6 44 0 89 0 137-10 18-3 37-8 56-14zm-217 117c10 0 21 1 32 2 20 3 43 7 40 16s-33 22-74 56c-40 33-90 87-140 140 18-13 35-26 49-35 13-8 22-11 31-15-28 33-56 65-89 94-32 30-70 57-108 84 22 3 44 6 33 17-12 10-58 28-108 40-51 12-105 17-160 23 13 4 27 9 40 12 13 2 25 4 37 5-33 6-67 13-107 28s-87 39-134 62c15-2 29-4 43-6 13-1 25-1 38-1-24 14-47 27-67 39-20 13-37 24-53 31-15 6-29 9-53 6-23-3-57-12-90-20 6 6 12 13 27 22 14 10 37 23 59 36-26-11-51-22-77-33 10 12 19 23 33 35s32 24 50 36c-22-5-45-11-70-21-25-11-54-26-82-42 14 13 27 26 38 44 11 17 19 39 26 61-11-8-22-17-37-20-15-4-34-4-54-3 9 7 17 15 22 22 6 7 8 13 10 18-17 3-35 5-65 14-30 8-74 24-117 40 17-1 33-1 51-2 17 0 36-1 54-1-15 4-30 8-51 17-21 10-48 24-75 39 11-4 22-7 34-10s26-6 39-9c-7 2-14 4-27 11-12 6-30 17-49 27 23-6 45-12 68-17-9 7-17 13-37 31-19 18-50 47-81 75 11-5 21-10 34-17 12-8 27-17 41-27-3 6-7 12-14 34s-16 60-26 98c6-18 12-35 19-48 6-13 13-21 20-29-5 13-10 27-13 39s-4 24-6 35c10-15 21-30 31-45 11 22 21 45 30 60s15 24 22 32c0-15-1-30 1-43 1-12 5-22 9-32 6 21 13 43 20 64 2-7 3-13 9-23s17-23 27-36c1 5 1 10 0 21 0 11-3 27-8 43-6 17-14 33-23 50 15-4 31-8 45-12 13-3 25-6 27-1 1 4-6 15-12 29-5 14-8 32-10 50 30-26 61-52 91-78-7 11-15 23-21 40-7 17-13 39-18 62 9-8 17-16 26-21 8-6 16-8 24-11-2 11-4 21-3 39 2 17 8 42 14 66 4-13 8-27 15-38s16-19 22-11c6 9 8 35 10 60 11-17 22-34 30-52 9-18 14-37 20-56 4 19 7 39 11 65s7 59 11 92c9-18 19-36 31-67s27-76 43-107c16-30 33-46 50-61-11 0-22 1-31 2-9 2-16 5-22 9 21-19 42-38 60-54 18-15 33-28 44-37s18-14 24-19c-15 2-31 5-34-1s6-20 20-37 32-38 60-62 65-51 102-79c-7 1-15 3-24 6-10 3-21 7-33 11 23-15 45-29 63-41 17-12 30-22 27-23-4-2-23 4-26 2-3-3 11-15 60-42 48-27 133-68 217-109-77 46-153 93-229 139 15-1 30-2 25 5-6 6-32 19-40 26-8 6 2 5 2 9s-10 13-42 41c-32 29-85 78-138 126h16c9 0 23-1 37-1-17 13-33 26-52 42-18 15-38 34-58 52h14c5 1 11 1 18 2-16 22-32 44-48 72-17 28-34 62-52 108-17 47-36 107-54 166 11-16 23-32 39-46 15-15 35-27 55-40-12 29-24 58-36 86 6-2 11-4 24-14 13-11 33-30 53-48-1 12-1 24-3 41-1 17-3 40-5 62 4-6 8-12 18-26 10-15 26-37 42-59-1 16-1 31 6 56 7 26 21 62 36 98 4-10 7-21 15-37 7-16 18-38 29-60-2 9-4 19-6 32-2 14-5 32-7 50 4-4 8-8 17-19 8-11 23-30 37-49 0 14 0 28-8 53-9 24-25 58-41 93 29-8 59-16 93-39s73-62 113-101c-17 29-33 57-49 85 5-3 9-5 21-15s31-27 55-42 54-28 84-40c-22 35-45 70-56 94-11 23-11 36-11 49 16-24 33-49 49-68s31-33 46-47c2 35 3 69 5 104 11-13 23-26 37-46 13-20 29-47 45-75-5 18-9 36-8 60 0 23 5 51 11 79 1-15 3-30 13-51 10-20 28-46 46-73 15 29 30 57 36 78 7 21 6 34 10 27 3-7 11-34 19-62 1-14 3-28 7-20s11 38 16 65 8 51 11 74c14-28 27-55 38-87 10-31 18-66 25-101 4 31 8 63 11 83 4 21 6 31 8 41 7-32 13-63 37-119s65-136 106-217c-16 10-31 21-42 28-12 6-20 10-27 13 25-38 50-77 84-116 35-40 79-81 123-123-13 4-27 8-32 6s-2-9 10-24c13-15 36-37 66-69 30-33 67-75 103-118-18 14-36 28-49 36s-20 9-28 11c13-15 25-31 47-53 22-23 53-52 83-82-31 18-62 36-67 35-5-2 16-23 45-52 28-29 64-65 99-101-22 48-44 96-63 128s-36 48-53 64c15-4 30-7 44-10-19 22-39 44-65 76-27 32-62 75-96 117 11-2 23-4 20 7-2 10-18 34-48 68-29 34-71 79-114 124 16-4 31-8 44-11 13-4 25-6 36-9-25 25-50 49-77 92-27 44-55 105-78 166s-40 120-56 180c19-29 38-58 52-76s22-26 31-34c-4 38-9 76-6 113 2 37 11 73 20 108 34-72 69-144 103-216-12 45-24 90-30 126-7 36-8 63-9 90 35-58 70-117 105-176-20 42-39 84-50 119-10 35-10 62 8 64s55-23 101-59c45-35 98-82 117-90 19-7 4 24-6 50-11 26-16 48-22 70 17-18 33-36 51-64 18-27 37-64 55-100-3 27-7 54-14 89-7 36-17 80-28 124 19-18 38-37 60-64 22-28 47-64 72-101-6 37-12 73-9 101 2 27 13 45 23 62 30-54 60-108 89-163 12-8 23-17 24-14 1 2-10 15-17 42s-10 68-13 109c10-19 19-38 29-55 11-18 22-33 34-49-1 6-1 13-4 27s-8 36-13 58c8-10 16-19 24-32 8-14 15-31 23-48 1 18 2 36 0 55s-6 38-11 58c18-13 36-25 55-44 19-18 37-43 56-68-1 37-3 74-5 110 25 22 50 43 74 65-3-26-7-52-7-76-1-25 3-48 6-72 2 25 5 50 11 76s15 53 25 79c9-25 18-50 29-73 12-23 27-44 41-65 12 9 24 18 43 35 19 18 44 43 69 69 0-12 1-23-1-38-1-14-5-32-9-50 21 35 42 69 63 104 6-8 12-16 16-33 3-16 6-41 8-66 12 9 24 19 39 30 16 12 35 26 55 40 2-12 5-25 6-40s1-33 0-51c11 22 22 43 33 65 1-4 2-8 7-18 4-11 12-29 20-47 2 19 4 37 6 55 11-6 22-12 35-28s28-42 43-67c0 20-1 41 9 46 9 5 28-7 52-29 25-22 56-54 87-87-7 25-14 49-20 73 16-11 32-21 49-41 18-20 37-49 48-72 11-22 14-38 17-54 25 29 49 57 74 85-1-17-1-33-8-56-6-22-19-50-31-77 28 19 56 38 84 58 0-6 0-13-41-69 31 16 61 34 88 54 53 40 96 91 139 142 0-17 0-35-3-57s-8-49-13-75c16 9 32 18 44 35 13 17 22 41 32 65 0-11 0-21-4-40-3-19-10-46-16-72 16 14 32 29 62 66s74 96 119 155c-10-25-19-49-31-76-12-28-27-58-42-89 73 47 145 94 217 140-12-14-24-29-41-48-18-20-41-44-63-68 45 19 91 37 133 56s81 38 120 56c-26-14-51-29-78-50-27-22-55-50-83-78 55 31 110 62 165 92-12-18-24-37-40-61-15-23-34-51-53-79 34 18 67 37 143 61s193 54 311 83c-37-16-75-32-110-47-34-14-66-28-99-41 66 12 132 24 195 26 62 2 123-6 183-14-36 0-72 0-102-1-29 0-52-2-75-3 89-21 177-43 265-64-48-4-96-8-130-11s-54-4-74-5c46-16 93-32 145-53 51-21 108-46 164-72h-181c34-12 67-24 146-41 79-16 204-38 328-59-56-2-112-3-159-4h-118c19-11 37-22 77-37 39-16 100-36 160-56-7-5-14-10-28-13-15-3-38-3-61-3 17-5 33-10 59-13s62-3 98-3c-11-4-21-8-36-14s-33-14-52-22c25-5 51-11 81-11 30-1 65 3 100 7-10-8-19-16-27-25-7-10-12-21-18-31 19 5 38 10 57 16 12 5 24 11 36 16v-92c14 10 29 21 58 32 29 12 72 24 114 36-18-22-37-43-52-62-14-19-25-35-36-51l60 24c-2-9-5-18-6-26-2-7-2-12-2-18 18 8 35 16 55 24s43 16 66 24c-16-16-32-32-45-46s-22-26-32-38c19 3 38 5 53 9 14 4 25 10 36 15-4-9-8-19-28-44s-56-67-93-108c31 1 62 2 99 9s79 19 122 31c-9-8-18-16-39-29s-53-30-85-48c21 2 43 3 63 7 21 4 41 11 61 18-16-11-32-22-55-36-24-14-55-31-85-49 28 0 56 0 104 2s117 6 185 10c-19-13-38-27-66-46s-65-45-103-70c42 22 83 45 125 68 0-8 0-16-8-29-8-14-24-33-40-51 24 14 48 29 72 44-7-14-14-27-25-45s-27-41-43-64c34 8 69 16 104 30 35 13 70 32 104 51-6-15-13-30-23-46-10-17-23-36-37-55 38 15 75 30 113 44-6-16-11-32-18-48-6-17-14-35-23-52 23 7 46 13 63 21 18 7 30 15 42 23-7-16-13-32-26-57-13-24-32-58-50-91 33 26 67 53 100 80-1-11-3-21-10-36s-21-34-34-52c33 16 67 32 100 48 0-18 0-35-10-66-11-32-33-77-54-123 37 52 75 104 112 157 0-32 0-65-3-87-4-23-11-35-18-48 52 8 103 17 154 25-27-20-54-40-78-60s-45-40-66-61c40 25 80 50 113 71 33 20 58 36 83 52-26-39-51-77-76-110s-50-60-75-88c33 18 65 36 97 48 21 8 41 13 61 17 6 7 12 13 18 19 12-3 23-5 34-7l-6-4c-22-15-56-40-91-66-15-13-28-25-41-36-32-32-54-60-76-87 39 29 79 58 104 75 24 16 34 20 43 24-24-46-48-92-72-138 23 14 45 28 65 44s38 34 56 53c-11-17-22-33-34-49 20 18 39 35 56 53 33 36 58 73 82 110-18-19-35-37-55-53-21-16-43-31-66-45l60 114c34-7 66-13 95-18 98-16 153-15 208-13-26-5-52-9-76-14-25-4-48-9-71-15 61-1 121-2 194 9 74 10 159 32 245 54-30-20-60-40-82-51-22-12-36-15-50-18 66 4 132 8 184 13 51 4 87 8 124 12-79-30-159-61-209-77s-71-18-92-20c103-20 207-40 270-54 62-14 84-23 106-31-46 5-92 11-127 13-35 3-59 3-83 3 117-26 234-52 324-86 90-33 153-74 216-115-96 34-193 69-265 88-72 20-120 24-168 28 51-16 102-31 143-48s71-35 102-52c-89 29-178 58-239 58s-93-29-125-58c94-5 188-9 268-28 81-18 148-52 215-85-63 9-126 19-181 24-55 6-102 8-149 10 103-28 205-56 267-75 62-18 83-26 104-35-53 11-105 21-141 31-35 9-54 17-73 26 114-64 228-128 301-165s104-47 135-58c-61 5-123 11-173 18-50 8-89 19-128 29 63-32 126-65 199-92 74-27 159-49 244-71l-396 75c38-26 76-52 117-75 41-22 86-41 131-60-43 13-86 25-125 41-40 15-77 33-113 50 48-44 96-88 143-117 47-30 93-46 139-62-100 43-201 86-263 122-61 35-84 64-107 92 45-60 90-119 135-179 76-43 152-86 237-115 85-28 178-43 271-58-88-4-176-8-239-7-64 1-104 7-144 14 133-64 266-128 352-160 85-32 124-32 163-32-91-11-182-23-273-34 43-6 86-11 130-13 43-3 88-3 133-3-71-5-142-10-213-9s-142 8-213 15c126-17 253-35 340-49 86-13 134-23 181-32-55-2-109-4-148-14s-62-28-85-46h116c37-1 71-2 68-3-2 0-39 0-85-8s-101-23-155-39c55 5 111 10 162 7 51-4 98-17 145-29-44-11-87-21-147-29-59-9-133-15-207-21 44-11 88-21 132-30 44-8 87-14 131-21-67-5-133-10-200-15 22-4 44-9 90-26s116-47 186-78c-38 10-76 19-131 21-55 1-129-5-202-11 52-16 105-32 156-52s101-44 152-68c-109 17-218 34-327 51 50-24 101-49 137-63s58-18 80-22c-47-1-94-2-115-5-21-2-16-7-11-11h242c-58-19-115-37-152-49s-54-16-71-20c40-38 80-75 116-105s68-52 101-74c-52 12-103 23-137 35-35 11-53 23-70 34 39-34 79-69 127-94 47-25 103-41 158-56l-264 66c52-22 103-44 167-66s140-44 216-66c-123 21-247 42-339 69-93 28-154 63-216 97 17-30 33-61 85-109 51-49 137-116 222-183-93 51-186 103-250 136-63 34-98 49-132 65 53-49 106-98 152-146 45-47 83-93 121-139-82 73-164 146-238 196s-141 78-187 97c-45 19-69 31-93 42 14-21 29-42 40-61 10-20 16-39 23-58-15 27-30 54-63 80-34 25-86 48-138 71 37-32 75-63 100-99 25-35 38-75 50-115-57 67-115 134-160 177s-77 62-110 81c23-39 46-78 78-107s73-49 114-69c-44 21-88 42-126 68-37 26-69 57-108 89-39 31-86 63-133 94 28-40 56-80 80-129 24-50 44-110 64-169-45 80-90 161-131 216-42 55-79 84-109 106l-11 9 20 28c-9-8-18-16-27-23-9 7-18 13-26 19 12 14 25 28 39 43-20-8-39-16-57-25l-4-2-8 5 6-7c-12-7-24-14-36-22l-3 2c10 14 20 28 31 41 12 15 26 29 39 42-25-8-51-16-77-25 11 14 22 28 39 58s40 76 63 121c-33-30-66-60-100-89 10 19 20 38 27 57 8 19 12 37 17 56-7-9-15-17-22-26 3 17 6 34 16 56s27 49 44 76c-10-7-20-13-33-25-12-11-26-26-41-42 7 17 13 33 29 58 15 24 39 56 63 88-20-15-40-30-67-44-21-13-47-25-74-38-14-16-28-32-42-47-28-30-54-52-79-75 32 16 64 31 91 46 26 15 47 29 67 44-24-32-48-64-63-88-16-25-23-41-29-58 14 16 29 31 41 43 12 11 22 18 32 24-16-27-33-54-43-76s-13-39-16-55c7 8 14 16 22 25-5-19-10-37-17-56s-17-38-27-57c33 30 67 59 100 89-23-45-46-91-63-121-17-29-28-44-39-58 26 9 51 17 77 25-14-13-27-27-40-42-12-15-24-32-35-49 16 11 32 22 50 32 18 9 37 17 56 25-24-27-49-53-63-74-15-21-20-35-24-50 18 15 37 30 54 44 17 15 32 28 47 41-36-49-72-98-92-135-20-38-25-65-30-91 22 1 43 3 61 7s32 11 46 18c-23-27-45-54-63-70-17-16-30-23-42-29 22-12 45-23 59-31 15-9 22-14 29-19-30-4-59-9-88-13 26-1 53-2 70-3 18-1 25-3 33-5-31-36-61-72-82-92-20-20-29-23-39-27 13-3 26-5 41-5 15-1 33 1 50 4-10-7-19-14-32-21s-29-13-44-20h83c-15-13-31-26-46-43s-31-37-47-58c33 17 65 34 89 55s40 46 55 71c-17-53-35-106-58-146-24-41-52-69-81-97 19 5 37 11 54 15 17 5 33 7 48 10-31-22-61-44-91-66 5 2 9 4 22 7 13 4 34 9 55 13-21-15-42-30-52-52s-9-51 2-80c12-30 33-60 54-91-22 14-44 27-60 41s-27 29-38 44c6-26 12-52 30-89 18-36 48-83 70-114 22-30 37-44 52-57-33 14-66 28-86 37-19 9-26 12-32 16 19-20 39-40 54-52 16-13 28-18 40-23-42-9-83-17-125-25 26-17 52-33 69-42 16-10 24-12 31-15-28-5-55-10-83-16 22-7 44-15 62-21s32-9 46-13c-29-25-58-49-77-70-18-22-25-39-33-57 7 6 13 11 22 20 9 10 21 22 33 35-17-46-34-92-44-136-4-22-7-42-9-63 22 29 44 57 60 84 17 29 29 56 41 83-11-44-21-88-29-127-7-40-11-76-15-111 35 36 71 73 102 107 30 34 57 65 83 97-26-70-53-140-74-184-20-44-36-62-52-80 17 2 34 4 62 10s68 15 108 25c-31-26-61-53-91-79-47-22-94-44-142-66 50 12 99 23 134 29s56 6 77 6c-79-44-157-88-211-126-54-37-83-69-113-100 42 24 84 48 117 70 33 21 57 40 81 59-72-75-144-149-190-213s-66-117-86-170c29 6 59 12 89 20s62 17 93 27c-41-27-82-55-115-83-32-29-58-59-83-90 33 21 65 42 107 63s93 42 144 63c-68-59-136-117-180-161-45-44-65-74-86-103 15 9 31 17 60 39s70 57 112 93c-63-91-125-182-159-249-33-67-37-110-42-153 60 47 120 94 179 142-30-57-60-113-97-160s-80-83-122-120c33 24 67 48 105 69 39 20 83 37 127 54-95-80-191-159-254-237s-95-155-126-231c31 10 63 21 86 31 24 10 40 19 55 29-29-26-58-53-83-77s-46-46-67-68c60 34 121 67 166 91 45 23 74 37 104 51-65-68-130-136-175-182-45-47-70-71-95-95 50 24 100 48 135 69 34 21 53 39 72 57-65-69-130-138-180-181-49-43-84-60-118-76 31 0 62 0 99-2 36-2 76-5 117-8-67-16-134-31-189-58-55-28-97-66-140-105 43 13 85 25 116 37 30 12 48 24 66 35-55-56-109-113-143-149-33-36-46-52-58-67 38 9 75 18 100 25 24 6 36 9 47 12-40-26-81-52-116-70-35-19-65-29-94-40 38 8 75 15 106 18 30 3 53 2 76 1-109-79-217-159-289-216-72-58-106-93-141-129 26 4 53 8 80 11 27 2 55 2 83 2-83-54-167-107-219-141-53-34-74-49-94-63 27 8 54 16 82 24s58 15 87 23c-40-23-79-46-118-70-38-24-74-50-111-75 34 7 69 13 101 21 33 9 63 19 94 30-53-59-105-118-175-168-69-51-156-94-243-137 38-8 75-17 113-25 37-9 73-19 110-28-32-9-65-17-102-27s-79-21-121-33c42 0 84 0 130-1s96-3 146-5c-125-31-251-63-342-84-92-22-149-33-207-45 84 0 167 0 231-1 63-1 106-3 149-5-96-15-193-29-255-41s-90-22-119-31c49-1 97-2 143-3h137c-60-17-120-34-180-45-61-12-123-18-184-24 36-21 73-42 97-53 25-11 38-12 50-13-62-22-123-44-165-56-41-11-62-12-83-13 62-13 124-25 166-33 41-7 63-9 85-11-42-13-83-25-123-34-39-8-75-12-112-16 37 4 73 8 112 11 39 2 79 3 120 4-82-46-165-92-241-124-77-33-147-51-217-70 47-5 94-9 141-11 46-3 92-4 138-5-100-21-201-42-266-57s-96-25-126-34c69 11 138 23 184 29s69 6 92 6c-98-36-196-72-263-98-66-27-101-45-136-64 115 27 230 54 344 81-113-44-227-88-315-127-88-38-152-71-215-105 65-1 131-2 181-1 50 0 86 3 121 5-76-28-152-56-219-74s-125-27-183-36c69 1 138 3 190 6 53 3 89 8 125 14-65-28-130-56-196-84 58 1 116 2 164 3h122c-77-33-154-66-232-89-77-22-155-34-234-46 33-8 65-17 103-24s82-12 126-17c-66-8-131-15-188-20-58-5-107-7-156-9 66-11 133-22 192-28 59-7 112-9 164-11-107-14-214-28-284-38-71-10-105-17-140-23 47-4 95-8 136-12 41-3 76-5 112-7-76-3-152-7-225-11-72-5-141-12-209-18 46-15 92-30 128-38s61-9 87-10c-51-4-103-7-139-8-35-2-56-2-76-2 62-14 124-28 173-38 50-10 86-17 123-23-88 9-176 17-264 22s-176 6-263 7c41-22 83-43 114-60 31-16 52-28 72-40-38 9-75 17-116 24-42 6-87 11-132 15 43-19 86-39 127-60 41-22 79-45 118-69-114 7-227 13-297 16-70 4-95 4-121 4 57-22 113-43 153-57 40-13 62-18 85-24-78 0-157 0-217 2-61 3-104 7-146 11 40-25 81-49 110-65 30-16 48-24 66-31-47 5-94 10-121 14-28 3-35 4-43 5 35-23 69-45 96-60 28-15 48-23 68-30-102-2-205-4-282 1-78 4-129 16-180 28 40-19 81-39 122-60 40-20 81-43 122-65-51 0-101 0-155-1-55 0-114-2-173-3 38-9 75-19 111-27s70-14 104-21c-74-3-147-6-221-10s-148-8-222-12c28-6 56-11 105-20 50-9 122-22 194-35-70-1-139-2-204-1-64 1-123 4-182 7 23-12 45-25 67-38s43-26 65-39c-29 5-58 9-94 18s-79 23-121 37c40-36 81-73 118-97 38-24 72-36 107-48-64 7-127 13-188 23-61 11-120 25-179 38 42-23 84-47 127-65 42-18 86-31 130-44-78 8-156 15-234 23 22-9 45-17 80-29s84-27 132-42c-71 10-142 19-205 34-64 15-121 36-178 56 30-25 60-49 92-71 33-21 67-39 101-58-88 24-175 48-233 65-57 17-84 28-111 38 34-35 67-70 111-100 45-29 100-53 156-77-101 34-201 67-256 87-55 21-63 28-72 36 25-33 50-65 80-90 31-26 67-45 103-65-93 25-186 50-246 71s-87 40-113 58c6-30 12-60 24-85 11-24 27-44 43-63-36 29-73 58-109 87 6-18 13-37 21-55 9-19 19-38 30-58-58 34-115 67-149 90s-44 36-53 49c21-51 43-101 58-132s23-43 32-55c-45 32-90 64-135 97 6-30 13-60 22-83 10-23 23-40 36-56-69 50-138 99-178 132-41 33-54 50-67 68 5-37 9-73 18-104 8-30 21-55 34-80-48 40-97 80-145 119 18-33 37-66 52-91 16-24 29-40 41-56-66 38-132 77-199 115 29-37 58-75 86-100 29-26 57-40 84-54-56 16-113 32-158 54-45 21-78 48-108 71-29 24-55 44-81 65 8-31 15-63 28-96 13-34 31-70 50-107-53 31-105 62-141 92-35 29-53 57-72 85 16-63 33-127 49-190-30 54-60 107-92 144s-66 58-100 78c9-34 17-69 25-101 9-32 17-63 25-93-37 42-75 84-113 120s-77 66-116 96c-1-4-2-8-2-25-1-17-1-48 17-90 17-41 51-95 86-148-52 53-105 107-140 149-35 43-53 76-70 108 6-40 12-79 27-124 14-45 37-96 60-146-43 48-87 97-119 128-32 32-52 48-83 66s-73 37-115 57c33-29 65-58 93-86 28-29 51-56 74-83-66 41-132 81-179 104s-75 29-104 34c31-31 61-63 86-89 24-27 43-49 62-71-53 37-107 73-144 96-38 22-60 30-80 39-20 8-38 17-55 25 10-20 21-40 35-68 14-27 32-63 49-98-38 49-77 98-104 127-27 30-43 39-59 48 19-28 38-56 53-87 15-32 27-66 38-101-31 49-63 98-95 136s-66 64-86 80c-21 16-28 23-35 29 22-39 44-78 61-107s30-49 42-69c-57 51-115 103-148 137-34 34-43 50-53 67 7-37 13-73 36-113 24-41 65-85 106-129-51 43-101 86-139 122-38 35-64 64-84 88-20 25-34 46-36 38-3-7 5-43 15-79 9-36 20-72 30-109-23 43-46 86-68 120-22 35-43 61-65 79-22 19-45 29-68 40 20-34 40-67 60-101-31 27-63 55-84 72-22 18-33 26-45 35 20-37 40-73 62-104 23-30 48-54 73-78-60 50-121 100-160 133-40 33-57 49-75 65 7-22 14-44 27-71s30-58 48-89c-25 31-50 62-68 84s-28 35-39 47c9-39 17-79 26-119-15 41-30 82-54 120-25 38-59 74-96 107-36 32-73 63-111 93 24-44 48-88 76-133 29-45 61-91 94-137-95 81-189 161-238 205-50 44-55 52-61 59 11-33 21-65 28-85 6-20 8-27 10-34-23 28-46 56-63 78s-29 38-40 53c4-28 8-56 13-81s12-47 18-69c-44 60-88 121-114 159-26 37-35 52-43 67 9-48 19-96 29-138 11-41 22-76 34-110-36 73-71 146-92 198s-27 82-34 113c-6-50-12-99-19-140-6-40-12-73-18-105-10 84-19 169-29 223s-21 77-31 100c5-49 10-98 15-134 5-37 9-60 13-83-27 56-54 111-71 146-18 35-25 50-32 65 1-26 2-53 7-76 6-24 17-45 27-66-19 33-37 65-52 99-15 33-25 68-36 102 6-51 11-102 26-151 15-50 40-97 65-144-44 51-88 101-121 146-32 46-54 87-75 126-20 40-39 79-58 117 4-41 8-83 13-115 5-31 10-52 15-73-40 59-81 117-102 145-20 27-20 23-20 18 2-29 4-58 6-88-11 28-23 55-38 82-16 26-36 52-56 79 20-48 40-95 51-138 11-42 13-81 15-120-49 92-98 184-131 237-32 53-48 67-64 80 16-31 32-63 50-95 17-32 37-66 57-99-41 41-81 83-113 114-31 31-53 51-75 71 10-27 21-55 35-80 14-26 32-50 50-74-54 53-107 107-145 147-37 40-59 67-81 95 5-21 10-42 21-66 10-23 26-49 41-76-11 14-22 27-33 40l11-2-12 3c-20 23-41 44-63 61-3 1-5 3-7 5l-3 4-1 3c-7 3-14 5-21 8-10 6-21 11-32 16l1-1-7 1-30 7c-3 4-7 7-11 11l-1 1c3-4 6-8 9-11-35 8-80 18-125 28 20 1 40 2 65 5 15 2 32 5 50 7v1h6v1h4l1-1h1v-1l1-1v-1l1-1 1-1v-1h1l28 6-12 6c-56-1-113-1-171 3-61 4-124 13-187 23 10-10 19-19 51-35 33-17 88-40 144-63-19-4-38-8-70-10s-77-2-74-7c2-5 37-13 77-21-6 4-10 8-14 12 63-9 126-19 187-23 23-1 45-2 68-2l6-4c23-14 45-28 68-43-18 5-36 10-48 13-12 2-18 3-23 4 20-12 40-24 61-33 22-8 44-14 66-19-10-6-19-12-30-16-11-5-23-8-35-12 13-4 25-8 49-12 23-4 57-9 92-13-9-3-19-5-37-8-19-2-46-4-74-6 14-9 28-17 62-33s88-40 143-64c-37 9-73 17-109 25 33-14 67-29 104-50s79-48 120-75c-15 6-30 11-49 19-20 9-44 20-44 19-1-1 23-14 46-27 23-12 45-24 66-34 21-9 39-16 58-23-12-2-24-4-39-2-15 1-33 7-51 12 41-30 83-60 114-80 31-21 53-32 75-43-3 0-6 0-17 4s-31 11-50 19c7-8 15-15 29-29 15-13 35-32 56-49 20-18 39-35 59-52-13 7-25 14-46 27-22 14-52 33-82 53 15-18 30-35 58-55 29-20 71-42 114-64-31 9-62 18-79 23s-22 7-26 8c20-13 39-25 62-36 23-12 50-21 76-31-18 1-36 3-50 5-14 3-24 6-33 10 52-40 104-80 135-106 30-27 38-40 47-53-9 9-17 18-35 29-18 12-45 26-72 40 14-20 28-39 54-56 25-17 63-31 101-45-16 0-31-1-45 1s-26 7-39 12c9-6 18-11 35-17 16-6 40-13 63-19-12 0-25-1-38 0-12 0-26 2-39 4 24-18 49-36 73-51 23-16 46-28 69-41-12 2-25 5-39 9-14 5-29 12-44 19 23-18 47-35 67-50s36-26 52-38c-9 2-18 5-31 10-12 4-28 11-44 17 30-34 60-68 86-96 26-27 48-47 70-67-10 0-20 1-32 8-12 6-25 19-39 31 11-13 23-26 39-40 16-15 37-30 58-45-17 7-34 14-44 19-10 6-14 10-17 14 9-10 18-19 31-31s31-26 48-40c-21 12-41 24-62 36 16-17 33-34 58-52s57-38 90-57c-18 3-36 5-57 14-20 9-43 23-66 38 35-53 71-106 103-143s61-58 89-79c-16 6-32 11-50 22-17 10-37 24-57 39 18-17 35-35 60-54 26-19 58-40 91-61-12 7-25 14-39 21-15 7-31 14-47 21 14-11 27-23 49-37s54-32 85-49c-10 2-19 4-36 11-17 6-42 18-66 29 26-34 53-67 77-94 25-27 48-47 71-67-14 6-29 12-42 18s-24 12-35 17c21-22 43-44 67-63 24-18 49-32 75-46-12 5-24 9-37 14s-28 12-42 18c10-8 21-16 38-25s42-21 66-32c-14 3-29 6-41 9-11 2-19 5-28 8 14-12 28-24 48-34 21-11 47-20 74-29-17 0-34-1-47 0-13 2-22 5-31 9 29-35 57-69 83-92 25-23 48-36 70-49-11 2-21 3-32 7-10 5-20 12-31 19 5-11 10-21 22-32 12-10 32-21 51-31-10 4-21 8-33 13s-26 11-40 16c14-10 28-19 51-32 22-12 54-26 85-41-22 4-45 8-66 14s-41 14-62 21c19-13 37-27 59-38s47-19 73-26c-16 1-33 2-50 4-10 1-21 3-31 4 12-15 25-31 47-50 23-19 56-42 89-65-21 7-42 14-58 20-15 6-25 11-34 15 44-41 87-83 123-113s63-48 90-66c-17 4-33 8-49 14s-31 13-45 21c14-17 29-35 44-49 14-14 29-26 44-37-16 7-32 13-48 19 11-13 23-26 34-37 10-10 19-18 38-33 19-16 48-39 76-62-7 4-14 7-28 14s-36 18-58 28c23-17 45-35 64-58s35-53 51-82c-11 10-22 20-32 28-10 9-19 17-28 24 20-34 40-68 72-107 31-40 73-84 116-129-26 20-52 40-70 55-19 15-30 25-41 35 21-25 42-50 63-73 22-23 43-43 65-63-25 15-50 29-76 44 25-36 49-71 74-107 11-24 22-47 17-47s-26 25-47 49c3-21 6-42 13-71 8-30 19-68 31-107-14 31-29 62-48 88-19 25-42 46-65 67 16-27 31-54 50-95 7-16 15-35 24-54-30 24-60 49-92 71-24 16-49 31-66 41-20 6-41 9-34 1 8-8 49-28 86-51 23-15 45-31 67-47h1c18-7 29-13 39-19 13-29 25-60 38-92-12 27-25 54-35 70-10 15-18 20-25 25 2-21 4-42 6-70 22-21 45-43 68-65l-64 33 3-31 34-31c26-24 41-38 56-49 16-12 32-21 48-30-18 4-35 8-54 14s-39 14-59 22c6-11 11-22 32-44 20-22 57-55 93-89-10 4-19 8-34 16-14 8-34 20-55 32 2-9 3-18 10-36 6-18 19-45 35-72s36-54 56-80c-23 21-46 43-62 61-17 18-28 32-39 47 4-19 8-37 19-63 10-25 26-57 42-90-16 22-32 43-49 67-17 23-34 49-52 74 4-24 8-48 18-80 9-32 24-73 38-113-13 28-26 57-44 84s-41 54-64 81c5-19 11-38 19-60 8-23 19-50 29-77-49 42-99 83-148 125 5-7 10-13 19-26 9-12 21-29 33-46-16 9-32 18-58 41-25 23-60 59-95 95 18-29 35-59 42-73 6-15 2-15-2-15-30 36-61 71-90 118-5 1-11 1-16 3-17 3-29 10-42 17 15-31 30-61 44-92-21 27-42 54-59 73-17 18-30 28-47 39s-38 24-59 36c19-27 38-55 56-83-23 21-46 42-66 60-21 19-40 36-59 53 17-29 35-57 52-86-18 16-36 32-49 43-12 10-19 15-26 20 9-16 18-31 25-45 8-15 13-28 19-41-27 38-53 75-74 101-21 25-36 38-51 50-15 11-30 20-45 29 7-13 14-25 20-37s11-23 16-34c-17 22-35 44-47 59s-18 22-24 29c3-9 7-17 10-29 2-12 4-27 7-43-10 22-20 44-33 63-13 18-29 34-43 46s-27 20-39 27c12-15 25-30 35-44 11-14 20-27 29-39-35 30-69 61-96 82-26 22-44 34-63 45 13-28 25-55 38-83-27 33-54 67-80 91-25 24-49 38-73 53 7-9 14-18 22-34s16-39 24-62c-23 35-46 71-63 91-18 20-29 25-41 30 14-15 29-31 38-42 9-12 13-21 16-29-35 32-71 64-98 85s-45 31-61 38c-15 8-28 14-42 19 19-21 38-42 57-62-33 26-66 53-88 69s-34 21-46 27c17-19 35-38 47-54s19-29 26-42c-39 37-78 75-108 99-29 25-50 36-70 47 9-13 18-27 29-44s24-38 36-59c-29 33-58 66-82 88-24 21-42 32-60 42 26-31 53-61 79-92-26 26-53 52-73 70-21 18-35 28-51 37-17 8-34 14-51 21 9-12 18-24 25-33 8-8 14-14 21-20-26 19-52 37-72 50-20 14-34 23-48 32-23 11-47 22-71 34 2-5 3-10 7-24 4-13 11-36 18-58-20 35-40 70-59 95-19 26-38 43-53 55s-28 19-40 26c7-12 15-24 22-39 7-14 13-32 19-49-20 26-40 51-58 70-18 18-34 30-47 38-12 8-21 12-30 17l48-60c-35 26-69 53-99 77-31 24-58 45-77 61-20 15-31 24-42 33 11-20 22-40 34-60-16 17-31 34-45 49-13 15-25 28-37 40 9-17 18-34 26-50 7-16 14-30 20-44-43 56-85 112-112 146-28 34-39 45-51 55-12 9-24 16-36 23 13-14 25-28 35-42 11-14 18-29 26-44-26 29-52 58-70 76-18 19-28 27-39 35 8-14 17-28 24-40 7-13 12-25 18-37-37 46-74 92-111 134-38 42-75 79-113 117 13-24 25-49 38-73-18 25-35 50-46 66-11 15-16 22-21 28 4-15 8-31 14-47 7-17 15-34 23-51-16 25-32 51-43 69-12 18-20 29-30 41s-21 26-33 40c9-32 18-64 27-96-19 40-38 79-52 110-14 30-24 51-31 62-8 11-13 13-12 2 0-11 6-34 2-33s-17 26-27 46c-9 19-15 33-20 47 0-15 1-30 5-48 5-18 12-38 20-58-18 33-36 66-48 91s-18 41-24 56-12 29-18 43c1-15 1-31 3-46 1-16 3-32 5-48-14 36-28 72-38 100-11 27-19 45-23 56-5 11-6 15-8 20-1-20-3-40-4-59-1 24-3 47-7 65-3 17-10 28-16 40 1-11 3-21 1-33-2-11-7-23-11-34-3 28-5 57-14 85-9 29-25 58-38 79-13 22-24 36-36 52-11 15-25 31-38 47 1-9 1-18 3-29 1-11 3-24 5-38-14 26-29 52-41 76-12 23-21 45-30 67 1-14 2-28 3-44 2-16 5-33 8-51-13 28-27 56-36 80-10 24-17 45-23 65-6 21-12 43-19 65 2-25 5-49 7-74-11 31-21 62-29 80s-14 24-19 29c4-13 8-26 11-35s5-14 7-19c-9 20-19 39-28 58 6-18 12-35 18-51 15-45 25-74 34-103-19 24-38 48-54 69-16 22-30 41-43 60 2-16 4-32 6-49v-9c8-13 15-27 23-43 14-26 29-57 44-89-2 5-4 10-7 19s-7 22-11 36c5-6 11-12 19-30s18-49 29-79c-2 24-5 49-7 73 7-22 13-43 19-64s13-41 23-65c9-24 23-52 36-80-3 17-6 35-8 50-1 16-2 30-3 44 9-22 18-43 30-67s27-50 41-75c-2 13-4 26-5 37-2 12-2 21-3 30 13-16 27-32 38-48 12-15 23-30 36-51 13-22 29-51 38-79 9-29 11-57 14-86 4 12 9 24 11 35s0 22-1 32c6-11 13-22 16-40 4-17 6-41 7-65 1 20 3 39 4 59 2-4 3-8 8-20 4-11 12-29 23-56 10-27 24-64 38-100-2 16-4 32-5 48-2 16-2 31-3 46 6-14 12-28 18-43s12-31 24-55c12-25 30-59 48-92-8 20-15 40-20 58-4 18-5 33-5 49 5-14 11-28 20-48 10-19 23-44 27-45s-2 22-2 32c-1 11 4 10 12-1 7-12 17-32 31-63 14-30 33-70 52-110-9 32-18 65-27 97 12-14 23-28 33-40 10-13 18-23 30-41 11-18 27-44 43-70-8 17-16 35-23 51-6 17-10 32-14 47 5-6 10-12 21-28s28-41 46-66c-13 25-25 49-38 73 38-37 75-75 113-117 37-42 74-88 111-134-6 12-11 24-18 37s-16 27-24 41c11-9 21-17 39-35 18-19 44-48 70-76-8 14-15 29-26 43-10 15-22 29-35 43 12-7 24-14 36-24 12-9 23-21 51-55 27-34 69-89 112-145-6 14-13 28-20 43-8 16-17 33-26 51 12-13 24-25 37-40 14-15 29-33 45-50-12 20-23 40-34 61 11-9 22-18 42-34 19-15 46-37 77-61 30-24 64-50 99-77-16 20-32 41-48 61 9-5 18-10 30-18 13-8 29-19 47-38 18-18 38-44 58-70-6 18-12 35-19 50-7 14-15 26-22 38 12-7 25-14 40-26s34-28 53-54 39-61 59-96c-7 23-14 45-18 59-4 13-5 18-7 23 24-11 48-22 71-34 14-9 28-18 48-31 20-14 46-32 72-50-7 5-13 11-21 20-7 8-16 20-25 32 17-6 34-12 51-21 16-8 30-19 51-37l6-5c-14-1-26-1-36-1-26-1-35-2-44-3 14-9 29-18 44-28s31-22 47-34c-35 9-70 18-95 23s-42 6-58 7c12-5 24-9 40-17s36-20 57-31c-28 6-56 12-81 15-26 3-50 2-75 1 10-4 20-7 34-12 14-4 32-10 49-15-33-1-66-2-88-2-22-1-34-1-45-1 11-5 23-10 35-15 12-4 24-8 37-12h-27c-29 4-59 8-82 10-24 3-42 5-60 7 7-7 14-13 28-19 13-6 33-11 53-16-42 2-84 5-115 12-31 6-51 17-67 25-17 8-30 14-43 19 10-15 21-30 34-44s28-27 43-39c-38 18-77 36-107 53-31 17-54 33-71 45-17 13-28 22-39 30 6-15 11-30 16-45s9-30 14-46c-7 15-14 29-23 41-8 11-18 20-29 27-10 7-21 13-31 18 7-24 14-48 21-72-19 24-37 48-59 65s-47 27-68 35c-20 9-36 16-52 23 22-21 44-43 63-56 19-14 34-19 49-24-27 4-53 9-77 15s-44 14-64 24c-19 9-38 20-44 20-7 0 0-9 12-24 13-16 31-36 50-57-26 21-52 41-72 58-21 16-36 29-54 40-19 12-40 23-61 33 15-14 30-28 41-41 11-12 18-23 26-34-27 23-54 45-75 58-20 13-34 17-49 20 15-13 29-27 43-43 14-17 29-36 43-56-13 20-27 39-49 56-23 16-55 30-86 41-30 11-59 20-87 29 14-12 28-23 51-36s54-27 85-42c-10 1-21 2-36 5s-33 9-61 19-66 25-103 41c16-17 32-34 47-52s29-37 44-56c-25 23-50 45-75 66-25 20-49 39-76 54-28 16-59 29-90 41 13-16 26-32 41-45s31-23 47-33c-37 18-73 36-94 48s-27 18-32 25c15-23 30-47 45-63 15-17 29-27 43-36-42 18-83 35-122 64-38 29-73 70-108 110 0-10 0-20 4-36 4-17 12-40 20-63-22 30-44 60-56 78-12 17-12 22-13 26 4-28 9-55 12-72 4-17 6-23 9-30-29 54-59 107-74 136-14 28-14 30-18 17s-12-43-17-68-7-45-9-66c-10 46-19 93-23 128s-1 60 2 84c-13-29-25-58-43-84s-41-50-64-74c15 34 30 69 39 98 10 28 13 51 17 73-10-28-20-55-34-78-15-23-35-41-54-59 17 41 35 81 44 104 9 22 9 28 9 33-15-19-30-37-45-56 10 21 21 43 29 65 8 23 13 47 4 74-9 26-33 54-52 72-18 17-31 24-43 30 12-23 23-47 35-70-22 22-43 43-57 61-15 18-22 32-29 46-8 14-16 27-24 40 0-17 0-33 4-53 5-20 14-42 23-64-16 25-32 50-44 72-12 23-20 44-27 59-6 15-10 25-15 35-12-26-23-52-35-78 5 34 9 68 11 91 3 22 3 34-3 50-6 17-18 38-26 52s-12 20-17 27c3-15 6-29 8-40 1-11 2-19 3-27-16 42-32 84-42 109-10 26-15 36-19 46 0-9 0-18-2-30-2-11-6-25-9-40-5 33-11 66-25 103-14 36-38 75-61 114 0-17 0-34 2-51 1-17 4-35 6-53-14 44-28 87-39 120-10 32-16 54-22 75l-6-72c-3 35-7 70-10 93-4 24-8 36-11 49 0-9 0-18-1-33-2-14-5-35-7-55-7 34-14 69-23 95-8 25-16 41-25 57-11 14-22 27-27 28-6 2-6-9-6-25v-56c-5 34-10 69-15 93s-10 38-14 51c0-10 0-21-1-39-2-17-4-41-7-65-2 22-4 44-9 73-6 29-16 65-27 91-10 26-22 42-34 58 2-17 4-34 7-53 2-11 4-22 7-34-4 10-8 21-11 32-8 33-11 72-15 110 9-19 17-38 27-57 10-18 22-36 34-53-5 19-9 38-11 66v3c-27 33-55 65-75 94-20 28-32 54-41 79-9 26-14 53-19 80 3-56 5-112 9-154 4-41 10-68 16-95-22 42-43 84-57 115-13 31-18 51-26 75-9 23-21 50-32 77 6-42 11-84 16-123 4-40 6-77 9-113-14 47-29 95-41 131s-22 60-28 69-7 2-9-5v-113c-8 36-15 71-23 101-7 30-15 55-22 80 0-38 0-75-3-116s-9-86-15-130c-10 47-20 94-28 130-8 37-14 63-19 89-7-9-14-17-16-36-3-18-1-46 0-75-6 15-13 30-22 51-9 20-21 46-33 72 4-35 9-70 16-108s17-78 27-118c-25 55-50 111-68 150-17 40-28 64-38 89 0-20-1-41 3-65 3-25 12-54 13-61 2-7-3 8-8 23-11 30-22 60-28 67-7 6-10-10-9-47 0-37 4-94 7-151-14 70-29 139-36 179-8 40-8 51-9 62-4-29-7-58-10-93-2-34-4-73-5-113-1 35-2 71-12 105s-29 68-49 101v-145c-5 43-10 87-18 120s-20 55-32 78c-1-24-2-49 6-93s23-107 39-171c-17 58-35 116-52 173-15 51-29 101-36 122-8 22-9 14-17-20-8-35-24-96-40-157-4 37-7 74-11 104-4 29-9 52-12 70-3 19-4 33-10 16s-17-66-28-114c-2 31-5 62-6 92s-1 59-1 88c-5-24-10-48-19-90-9-41-21-100-34-158 0 62 0 124-4 171-3 48-11 82-18 115l-5-26c-5-25-15-76-25-127 2 45 5 90 3 134-1 43-6 85-11 127-7-62-13-124-20-168s-14-70-20-96c1 65 1 129-1 175-3 45-10 72-17 99-6-13-11-27-17-51-6-23-12-58-18-92v171c-11-26-22-51-31-85s-17-78-24-121c2 69 5 139 2 192-3 54-11 91-20 129-9-40-18-80-27-120-8 44-15 88-15 126s7 69 4 76c-3 8-16-8-29-24-24-16-47-32-71-48 10 23 20 45 27 60 8 15 12 23 16 31-19-20-39-39-51-51l-22-22c0 14 0 28 3 54 2 26 7 64 12 101-7-19-13-38-24-51s-26-20-41-26c-1 25-2 51-3 72 0 21-1 37-6 53-4 17-13 34-21 50v-40l-3-48c-2 20-5 39-9 52-3 14-8 21-13 29-5-20-9-40-15-58s-15-33-23-48c-1 38-2 76-2 97-1 22-1 28-6 23-6-4-18-19-27-34s-14-29-20-43v103c-8-26-15-52-19-73s-4-37-4-53c-7 28-15 56-20 82-5 27-7 53-9 72-1 18-1 29-1 40-7-25-15-49-20-72s-8-45-10-66c0 36 0 72-5 99-4 27-13 45-23 64v-30c-6-33-11-66-17-98-4 50-9 100-13 135-5 34-10 52-15 71-4-18-8-36-14-52-5-17-12-33-19-49 4 34 7 67 11 90 3 23 6 36-3 37-10 0-33-10-54-19-20-8-40-14-42-11-3 4 12 16 24 25 12 8 22 12 32 16-24-1-47-3-70-5-15-2-29-5-43-7 7 11 13 21 12 25-2 4-12 1-22-3-7-14-14-28-20-42 0 19 0 38-2 54-2 17-5 30-10 33-4 3-10-4-16-19s-12-37-16-46-6-6-7 6c0 11 1 30 1 47s-3 31-13 33-28-8-42-20c-14-11-25-25-36-38 2 18 4 37 5 50s2 20 3 28c-7-8-14-15-22-28s-17-32-26-50c-2 20-3 40-2 55s5 25 10 35c-10-6-19-11-36-19-16-7-41-15-65-23 9 6 19 13 26 25 8 11 13 28 14 32 0 4-5-4-15-13s-25-19-40-29c5 9 10 18 14 28s8 21 11 32c-10-2-20-3-30-5s-20-3-37-11-40-21-63-34c5 15 10 30 13 46s5 32 7 49c-8-18-15-35-24-54-8-19-17-39-27-59 0 32-1 64-3 89-2 26-4 45-7 64-3-17-6-35-9-54s-6-39-8-59c-3 19-7 37-13 58-6 22-14 46-22 70l-2-13c-2-13-5-39-8-65-4 31-7 62-11 84-4 21-9 33-14 45-4-31-7-61-13-94-5-33-13-69-20-105 0 34 0 69-1 99-1 29-2 54-5 76-2 21-4 39-7 56-11-21-23-42-33-64-9-23-17-47-24-71-2 35-4 70-3 94s4 38 8 51c-11-4-22-8-32-14s-19-13-32-29c-12-16-27-40-42-65 4 28 9 55 12 76 4 20 7 32 11 45-8-11-15-22-22-38s-14-37-21-58c-2 10-3 19 0 41 1 11 3 24 6 40-3 36-7 72-8 94s1 30 2 39c-12-17-25-34-35-57-11-24-19-54-27-84 5 60 11 119 13 166 2 48 1 83-1 118-3-2-7-3-16-11s-24-23-39-37c9 26 18 52 22 79 5 27 4 54 3 79v68c-12-36-23-72-30-101-6-29-7-50-8-72 3 70 5 141 7 180 1 39 1 48 1 56-16-26-32-52-49-75-16-22-34-41-52-61 20 71 39 141 50 188s15 70 18 96c3 27 5 56 8 85-10-12-20-25-30-44-9-20-17-47-26-74 2 29 4 57 11 83 6 25 18 48 30 71-15-17-29-34-42-49-14-15-26-28-39-42 15 30 29 60 40 85 11 24 18 42 26 61-10-11-21-22-38-41s-41-45-65-72c16 30 33 60 50 94s35 71 53 109c-29-40-57-80-78-108-21-27-35-43-48-58 17 55 34 109 43 144 9 34 11 48 2 45-8-4-27-25-45-45 9 18 18 36 24 54 6 17 9 33 11 48-12-13-23-26-39-42-15-15-34-33-54-50 24 41 47 83 61 109 13 26 16 36 20 46-10-10-20-20-28-30-7-10-11-20-15-30 3 21 7 42 17 69 10 28 26 62 43 97-27-26-53-52-73-76-21-25-34-47-47-70 30 63 60 126 79 171s28 73 36 100c-24-37-48-73-73-110 7 11 14 21 18 34 3 13 4 27 5 41-8-9-15-18-28-31s-31-30-50-47c24 65 49 131 64 173 16 41 22 60 29 85 7 26 13 59 12 67s-10-8-19-24c-18-22-36-45-53-67 11 27 22 55 28 78 7 22 9 40 12 57-6-14-12-28-26-49-13-20-35-47-57-74 19 37 37 74 50 102 12 27 19 46 25 64-25-29-50-57-74-81-23-25-46-45-69-65 34 52 67 104 87 137s27 47 34 62c-28-26-55-52-79-79s-44-54-64-82c22 49 43 97 59 129 15 32 24 47 34 62-10-4-20-9-34-16-13-7-30-17-47-27 26 25 52 50 67 68s19 29 24 40c-12-9-24-18-35-28-11-9-21-18-31-27 26 45 52 90 70 131s28 78 38 115c-17-6-35-12-49-17-13-6-23-11-34-16 19 25 37 50 46 68 10 18 10 28 10 38-10-7-20-14-23-12-3 1 1 10 5 20s8 21 13 32c-11-6-22-12-33-21s-22-22-33-34c10 20 19 40 28 60-8-9-15-17-25-24s-23-13-35-19c22 33 45 65 56 87 12 21 12 31 12 41-10-11-19-22-31-32-11-10-26-19-40-28 20 29 39 59 51 84 12 26 17 47 22 69-18-25-35-50-51-69-15-18-28-30-42-41 13 36 25 72 32 93 6 21 6 28 6 35-9-17-19-34-28-47-9-14-18-24-27-34 13 34 26 67 36 88 10 20 17 28 15 30-3 3-15 0-28-3s-28-6-43-9c14 11 28 22 41 32 14 10 26 19 39 28-20 3-40 5-56 6-15 2-26 2-37 2 5 10 10 21 17 33s16 24 17 28c1 5-6 0-17-5s-25-10-40-16c10 16 20 32 31 47s23 31 35 46c-15 4-29 8-40 9s-20-2-28-4c12 19 23 38 35 57l-6-2c-6-3-17-8-28-11s-21-5-31-7c11 16 23 32 34 47 11 14 21 28 31 41-10-2-20-5-31-8s-23-6-26-4c-4 3 0 11 6 18 7 8 15 13 15 16 0 2-8 2-19 0s-24-4-38-7c12 9 24 19 32 27s13 14 11 15-11-4-22-9c-12-4-25-9-38-13 14 18 28 35 39 49s18 24 26 34c-9-1-17-2-29-6-13-5-30-13-46-21 10 12 21 25 29 33s13 13 6 11c-8-2-28-9-48-17 12 8 23 15 35 25 11 9 22 21 24 25 1 3-6-2-21-8s-38-13-61-19c10 7 20 15 32 27 12 11 25 27 39 43-9-2-17-5-27-9-9-4-20-9-31-14 5 10 10 21 15 31 4 8 8 17 12 25-7 2-14-2-23-5-11-4-26-9-40-13 8 6 16 12 27 21 12 9 27 21 43 33-8-3-16-7-27-11-12-4-26-8-41-13 9 9 17 17 27 24s21 12 32 18c-9-2-17-4-29-6-4-1-8-2-13-4-112-67-229-134-359-198-199-99-429-194-660-288 228 108 457 216 656 316 134 66 255 129 372 190-5 1-10 2-17 3-14 2-34 4-54 6 17 4 33 8 49 11 16 4 31 7 45 10-7 0-14 1-28 1h-57c16 4 32 9 46 16s26 18 38 28c-13-4-26-8-36-11-10-2-16-3-23-4 11 6 22 13 31 20s17 16 24 24c-7-3-13-5-25-7-12-1-29-1-46-2 5 2 11 4 19 6 8 3 18 5 23 6l5 1-55 24c-88-19-175-35-262-48-191-28-377-37-564-24-187 12-374 48-562 83 258-24 517-49 725-50s367 21 522 44l97 14-28 12c18-1 35-2 48-3 12 0 20-1 29-2-8 2-16 5-34 9-19 4-48 9-78 15 22 3 43 6 77 12 33 6 79 15 125 23h-50c-14 1-24 2-34 2 7 5 15 10 25 13 11 3 26 5 41 6h-41c-20 1-49 1-79 2 16 8 31 17 51 24s45 13 70 18c-22 4-44 8-63 10s-35 2-51 2c23 4 47 8 65 11 19 2 33 4 48 5-13 2-25 5-41 10-14 5-31 12-49 19-161-34-322-63-488-75-221-16-450-1-678 14 236 2 472 4 630 11 159 7 240 19 321 31l215 31h-15c22 7 44 13 66 19 4 1 9 2 7 4-1 2-9 5-22 5-14 1-34-2-54-5 8 4 17 8 28 15 7 5 16 12 24 18-164 9-328 19-492 43-188 26-376 70-524 114-147 43-256 86-364 129 235-66 469-131 661-173 191-43 339-62 464-77 97-12 180-22 260-31l7 5c-3 1-5 2-15 4s-28 4-46 7c5 0 10 1 15 1 6 0 13 1 19 1-4 2-8 4-16 6s-19 5-30 8c8 1 16 1 24 2 9 0 18 1 27 2-6 3-12 7-23 15-12 9-28 23-44 36h12c6 0 15-1 24-2-2 0-3 1-11 4-7 3-20 9-33 15h22c7 0 15 1 23 1-182 34-365 70-551 123-212 60-430 142-647 223 241-77 482-154 694-214 179-51 337-89 492-126l-6 3c-8 3-21 9-33 14 10 1 20 3 29 5s18 5 26 7c-8 1-15 3-21 5-7 2-12 6-17 9 12 2 24 3 34 6 11 2 20 5 29 8-8 1-16 2-27 6s-24 12-38 19c8-3 15-5 25-7 9-1 20-2 30-2-6 3-11 7-18 12-6 4-14 11-21 17 6-2 12-5 21-7 8-2 17-4 27-6-289 89-576 180-824 288-267 118-489 258-711 397 219-117 437-234 602-314s277-124 435-184c140-52 317-117 499-183-4 6-9 12-15 18-8 7-18 15-33 25-16 10-36 23-57 37 11-2 21-3 31-5s19-4 28-6l-9 9c-6 4-14 11-23 18 13-4 26-9 38-13-6 5-11 10-18 18-7 9-15 20-23 32 6-5 13-11 19-15 5-4 10-6 14-8-6 9-12 17-15 22-4 5-4 6-5 7 9-3 18-7 26-9 8-1 15 0 23 1-6 2-12 3-19 8s-14 13-21 21l15-6c5-2 9-3 13-5-2 1-4 3-6 6s-5 8-8 13c5-3 10-5 18-7 7-3 17-5 27-6-4 2-8 5-12 10-188 66-379 134-586 222-233 99-488 222-742 346 227-98 454-195 647-273 192-79 350-138 470-189 80-33 143-62 200-90-3 5-6 10-9 16 7-5 13-10 18-13 5-4 10-6 14-8-3 3-6 6-10 9l-12 12c7-4 15-7 21-9 5-2 8-3 8 2 0 3-1 9-5 16-231 151-461 303-655 454-205 159-369 318-533 477 167-140 335-280 500-411 166-130 330-252 495-373l191-142c-1 2-2 3-3 5-8 12-19 25-31 38 11-6 23-13 30-18 8-4 12-8 13-7 1 0-2 5-5 9-4 4-8 9-12 13 6-2 12-4 17-5 4-1 8-2 12-2-3 2-6 4-10 7-3 3-8 6-12 10 5-2 9-5 15-6 2-1 4-2 7-2-206 139-411 279-610 433-216 166-426 348-553 474-128 126-174 196-220 266 123-127 245-255 398-391 153-135 338-278 516-409 158-116 312-222 465-327-6 5-12 10-17 15-6 5-10 9-14 13 7-3 13-5 19-7 5-2 10-5 9-3 0 1-5 6-10 11 7 0 13 0 20-1 8 0 16-1 25-2-6 4-11 8-17 13-7 6-14 14-22 22 5-3 10-5 14-7 5-3 10-5 15-6-11 13-23 27-30 37-8 11-11 17-15 24 10-6 19-12 32-17 12-5 27-9 42-14-7 7-13 13-22 21-8 8-19 17-29 26 8-2 15-5 21-6 6-2 9-3 7 1s-10 14-18 23c11-5 21-10 31-14-2 7-4 14-9 21-2 3-4 6-6 8-120 86-242 175-382 291-167 138-360 314-552 490 202-171 404-341 579-478 128-99 241-180 351-257l-16 19c11-7 22-14 31-19 8-6 14-8 20-11-5 5-9 11-15 23-7 11-15 28-23 44 9-8 18-17 24-23 7-6 11-8 14-11-3 4-6 8-8 12l-1 2c-101 90-200 181-290 280-108 120-202 250-296 381 118-138 237-276 351-393 86-88 170-164 254-237-2 2-3 5-5 8-5 8-11 15-16 22 8-5 16-10 23-14s12-6 18-9c-2 3-5 5-8 9s-7 8-12 13c5-2 9-4 13-6 3-2 7-4 11-5-3 3-5 7-10 13-4 5-10 13-16 21 8-4 15-8 23-12 2-2 3-3 4-1 0 2-2 6-3 11-9 11-17 22-16 26 0 1 1 1 2 2-137 161-272 320-383 462-131 169-231 313-330 457 134-171 268-343 384-485 117-143 216-257 316-371l68-64c3-1 6-2 5 0-2 3-11 9-19 17-9 8-17 18-25 27 7-4 14-8 19-12 5-3 9-6 13-9-2 3-4 5-7 10-4 5-9 13-15 21 16-10 32-20 47-31-11 10-22 20-30 29-8 8-12 17-17 25 6-5 12-9 18-13 5-4 9-6 13-9-2 3-5 6-8 14-2 8-5 21-7 34 12-7 24-13 34-18l-20 27v1c-87 119-175 244-264 393-115 193-233 426-314 639-80 213-123 405-166 598 72-233 144-465 221-655 77-191 159-339 262-504 86-138 187-287 291-437 7-4 16-9 25-13-3 2-6 5-12 10-7 6-16 14-26 23 13-8 27-16 40-23-3 4-7 9-15 22s-21 36-35 58c10-9 20-17 30-25 11-8 22-15 33-22-3 4-6 9-9 15-4 6-8 14-12 21 6-3 11-6 17-10 4-2 8-5 12-8-57 93-115 185-175 279-72 115-146 232-213 375s-127 311-186 479c99-219 199-439 306-635 84-153 173-291 263-426 9-8 17-15 24-20 10-8 16-12 22-16-3 5-7 10-10 15-2 4-4 9-6 14 8-5 17-10 25-15-2 3-3 6-9 13-5 7-15 18-24 29 10-5 21-11 28-16s11-10 15-14c-2 5-4 10-7 15-4 6-9 11-13 16 9-6 18-12 28-18-4 4-7 9-11 19-2 5-5 11-7 17-81 158-160 329-234 558-94 291-181 676-268 1061 84-318 168-636 249-890 82-253 161-441 241-629l45-71c-2 12-4 24-6 35 6-12 13-23 19-33s12-17 18-25c0 1 0 2-2 7s-6 14-9 22c7-8 14-15 22-23-1 4-2 8-4 14-1 7-4 16-6 25 4-6 8-12 15-18 7-7 17-14 28-22-3 6-5 12-8 23-3 10-6 24-10 38 2-3 4-6 7-12 4-6 9-15 14-24-3 12-6 23-9 35 5-7 11-14 15-21 5-8 9-16 13-24 1 6 2 13 2 22s-2 20-4 31c4-6 7-13 13-22 7-9 15-20 24-31-2 6-3 12-5 23s-5 27-7 42c5-14 11-28 16-39 6-10 10-16 11-16 2 1 0 8-1 14-2 5-3 9-4 13 6-6 12-11 18-16 5-5 9-10 14-14-3 2-7 8-23 29-18 25-54 73-89 120 14-8 27-16 46-23 18-6 41-10 65-14-9 3-17 6-31 17-13 11-33 30-52 48 15-4 30-8 51-13 7-2 15-4 23-6 25-42 50-83 75-124 1 3 1 6 1 8 1 12 3 23 4 35 6-12 12-24 17-33 5-10 8-18 12-26 0 5 0 10-2 17-1 6-4 13-8 20 9-11 17-23 25-34-2 7-3 15-5 23l-3 10-4 2c-35 59-68 117-101 174l3-3-3 3c-15 26-31 53-45 79l-7 19c15-9 30-19 42-27 13-8 23-16 33-23-8 9-17 18-31 33s-34 36-54 57c21-6 43-12 60-18 9-3 17-7 24-10 43-81 86-161 128-241-4 3-8 6-11 9-6 4-11 7-16 11 4-8 7-16 10-22s5-10 8-15c-11 8-21 15-30 24-9 8-18 17-27 25 11-22 22-44 29-57s10-18 13-22l-24 16 4-8 6-7c6-5 9-8 11-10l-13 7c3-6 6-11 9-16 5-9 9-14 13-20v21c-1 8-1 20-2 32 4-11 9-21 12-30s4-15 6-22c0 11 0 23 1 27s3 1 4-1c2-9 4-17 5-18v13c0 7 0 17 1 16 2-1 5-12 7-20 3-8 4-14 6-20 7 11 15 23 19 31 5 7 6 11 7 15-1-11-1-22-2-29 0-7 0-11-1-15 2 7 3 14 4 18 1 5 2 8 3 11 0-7 0-14 1-19v-14l1-2c3 13 10 29 14 38l4 10c1-12 2-24 4-34s6-16 10-23c-3 8-5 17-6 27-2 9-3 21-4 32 2-7 5-14 8-21 4-8 9-17 14-26 0 4 1 8-1 16s-5 20-9 31c6-6 11-12 17-19 6-8 12-17 18-27 0 8 0 16 2 26 1 11 4 24 7 38 1-7 2-14 3-24 2-10 3-23 4-35 1 6 2 12 3 20s1 17 2 27c2-5 5-10 7-18s3-19 5-30c0 6 1 11 2 18s3 15 5 24c1-8 2-15 5-23 2-8 7-16 11-24 0 4 0 8 1 13 1 6 2 12 4 19 1-4 2-7 4-12l8-16c-1 4-1 9-1 13v13c1-4 2-8 5-12l3-3-1-3c-4-10-13-20-22-31 3-3 6-7 10-11-6-3-11-6-20-9-8-3-19-6-31-9 10-1 20-2 29-3-3-3-7-5-12-8s-11-5-17-7c9-1 18-2 27-3-6-4-12-9-18-13-7-5-13-8-20-12 4-1 8-2 12-4-1-3-1-7-7-9-6-3-16-6-27-8 4-2 7-5 12-7s12-4 18-6c-3-3-6-6-10-8s-10-2-16-3c2-3 3-7 6-10 3-4 8-7 10-10 2-2 2-3 2-4-4-1-9-3-13-3-4-1-8-1-13-1 6-2 12-5 18-7-2-3-3-5-6-7s-8-3-13-4h13c0-2 0-5-4-9-3-5-10-12-16-18 5 1 10 3 15 5-1-5-2-9-4-14s-4-11-6-16l9 6c-2-6-4-12-6-16-3-5-5-8-8-12s-7-9-11-14l18 9c-2-5-4-10-6-14-2-5-4-8-7-12-3-3-6-6-10-9 6 2 13 4 19 6v-1c-8-11-16-23-22-33-6-11-9-20-13-30-3 11-7 22-9 32s-3 19-3 28c-11-12-22-25-27-33-6-9-7-14-7-18-15 7-30 15-42 20s-21 9-30 12c0-11 0-22 1-30 1-7 2-11 3-15-7 3-14 7-20 11-6 5-10 12-14 18-2-14-3-28-4-39-1-10-1-17-1-23-4 5-8 10-11 13-3 4-5 7-7 10 0-2 0-5-1-12 0-6 0-17-1-27-4 7-8 14-16 23-8 8-18 16-29 25 1-5 1-10 3-19s5-22 7-36c-5 5-11 9-18 14-6 5-12 10-19 15 2-13 4-26 7-36 2-10 4-17 7-23-11 1-23 3-37 7s-30 11-47 18c10-14 20-28 27-38 8-10 14-17 19-24-17 10-34 20-50 30 5-10 9-20 14-27s9-12 14-16c-12 5-24 10-33 15s-15 10-21 15c3-18 6-35 8-52-11 4-22 8-34 13 1-8 2-15 3-21 2-6 4-11 1-11-3 1-10 5-17 9-6 4-11 7-16 10 9-16 18-33 25-43 8-11 13-16 11-18-1-3-10-4-23-2s-29 7-45 12c6-9 12-17 16-24s6-13 8-18c-5 2-9 5-16 8s-17 6-26 10c5-10 10-20 14-29 3-8 4-15 6-22-9 5-18 10-26 15 2-7 5-15 7-22 2-8 5-14 3-13-2 0-9 8-14 13-6 6-11 11-16 15 2-11 4-23 8-32 3-10 7-17 11-24l-24 6c-7 2-14 5-21 7 5-8 10-17 16-24s12-12 13-14c0-2-6 0-18 4-13 3-33 8-53 14 14-10 28-19 40-28s21-17 30-25l17-6c14-4 19-6 19-4 0 1-6 6-12 13-5 7-10 14-15 22 8-2 15-5 23-8 8-2 16-5 24-7-3 6-7 13-10 22s-6 20-9 31c5-5 10-10 15-16 6-6 12-14 14-15s-1 6-3 13c-3 6-6 14-8 21 8-6 16-11 25-17-2 7-3 13-7 21-4 9-9 18-15 27 9-4 19-8 25-11 7-4 11-6 16-9-2 5-5 10-9 17s-10 14-16 22c15-6 31-11 43-14 13-3 21-2 23 1 2 2-4 7-12 17-7 10-17 25-26 40 4-3 9-6 15-10s14-10 16-10c3 0 1 4-1 10-1 6-2 13-4 20 11-5 22-10 33-15-3 17-6 33-9 49 6-5 12-10 20-16 9-5 20-11 32-17-5 4-10 9-15 15-5 7-10 17-15 26 16-11 32-22 49-33-6 6-12 13-20 22-8 10-19 23-29 36 16-8 32-16 46-21s25-7 36-9c-3 7-6 13-8 22-3 10-6 22-8 35 6-6 12-12 18-17l18-15c-3 13-6 25-8 34-3 9-4 13-5 18 11-9 21-19 29-27 7-9 11-17 15-25v38c2-3 5-6 7-10 3-5 7-10 11-15v22c1 10 2 24 3 38 3-7 7-13 12-18 6-4 12-8 19-11-1 4-3 9-4 16-2 8-3 20-4 31 9-3 17-6 29-11 11-5 26-12 40-18 1 4 1 9 7 18 5 9 16 22 26 35 0-9 0-18 2-28 2-9 6-20 9-30 3 10 7 20 12 31 6 11 13 23 21 35-1-13-2-26-1-38s3-22 6-33c10 7 20 15 29 21s16 12 24 17c-2-15-4-31-5-42s-1-17-1-24c9 9 18 18 27 29 10 11 20 25 29 38-3-17-7-34-9-47-2-12-3-20-2-20 0 1 2 10 8 19 5 9 14 19 24 28v-25c1-10 2-21 3-32 13 13 25 26 35 36 9 9 16 17 23 24 2-16 4-31 6-44s3-24 5-34l30 33c1-6 2-12 3-21 1-8 1-20 2-31 4 4 9 8 12 11s5 6 6 8c1-6 1-12 1-18 0-7-1-14 3-13 3 2 12 12 20 23v-15c-1-7-1-18-2-29 2 4 5 7 7 11 3 4 6 8 9 12 3-7 5-14 9-28 5-15 10-35 16-56 7 3 14 6 24 12 8 5 18 11 28 17 12 14 24 29 31 41s8 22 10 32c-14-8-28-16-38-21s-17-8-24-11c-5 23-9 46-13 61s-7 22-10 30c-4-4-7-8-10-12-2-4-4-7-7-11 1 11 1 23 1 30v15c-9-10-17-20-21-21-4-2-3 6-3 13 0 6 0 12-1 18-2-2-3-4-7-7-3-3-8-7-13-11 0 12-1 24-2 33s-2 15-3 21c-11-11-21-21-31-32-2 11-4 22-6 35-2 14-5 30-7 46-7-7-14-14-24-23-10-10-23-22-36-34-1 12-3 23-3 33-1 9-1 17-2 26-9-9-19-18-25-27-5-9-7-18-8-18 0-1 0 7 2 20s5 31 8 49c-10-13-21-26-30-37-10-11-19-19-28-28-1 7-1 14 0 26 1 11 3 27 4 42-8-5-16-9-25-15l-21-15c-1 7-1 15-2 22 0 12 1 25 1 38 4-5 7-10 9-11 1 0 1 4 0 9 0 6 0 12 1 20 1 9 2 20 4 31 2-1 3-3 5-6 1-3 2-8 3-13 2 7 5 14 4 23 0 8-4 19-7 29 5-4 10-9 16-13v12c1 7 2 17 3 27 2-5 5-11 8-17v24c1 10 2 23 4 36 1-7 3-15 5-19 2-5 4-7 6-9-1 4-2 9-4 14-2 6-5 13-7 21 8-3 16-7 21-8 5-2 8-3 11-3-3 8-5 15-5 25s2 22 4 34c1-3 3-5 4-8 2-3 5-6 7-10 1 10 1 20 2 27 0 7-1 12-1 16 6-3 13-6 19-9 0 2 0 3-2 6-1 3-3 8-6 13 4 0 8-1 11-1 0 1 0 2 1 7 0 5 0 13 1 22 1 0 2 0 4-3 2-2 5-6 9-9 1 5 2 10 6 16 3 7 9 14 16 21-1-5-2-10-2-15 4 5 7 9 8 18s-1 23-3 37c6-6 11-12 16-18 2 5 3 11 7 19 2 8 7 17 11 28l2-3c0-6 2-10 6-4 3 3 6 8 10 15l6-7-4 11 4 8 7-9c-1 4-3 9-4 13l5 11c5-6 10-11 16-16 10-8 22-13 34-18-7 9-15 17-21 29-7 11-13 26-19 40 10-13 19-25 25-33 5-7 8-9 11-11-4 8-8 15-12 23-3 9-7 18-10 27 7-8 14-17 21-27 8-10 16-22 23-33-2 16-5 33-7 47s-2 26-3 38c5-10 10-21 15-32s10-23 14-35c0 8 0 16-2 26-1 10-5 23-9 36 3-5 6-10 9-19 4-8 7-21 11-33 0 8-1 16-2 26-2 10-5 22-8 35l18-36c-1 7-1 13-1 21-1 8-2 16-3 25 6-8 12-16 18-27 6-10 12-24 18-37-1 11-2 21-4 31-1 10-4 19-7 27 4-5 9-11 12-16 4-5 7-9 10-14-2 6-4 12-7 20-4 9-9 20-14 32 9-6 18-12 26-20s14-18 21-27c0 6 1 13 1 20v23c2-4 4-7 7-13s7-14 9-17 2 0 2 6c0 7 0 17 4 31 4 9 9 20 15 31v2c-2 8-4 13-6 18-1-9-2-18-3-25-1-8-3-13-4-19-1 12-1 24-1 33-1 10-1 17-2 23-4-12-7-25-9-35s-3-17-3-24c-6 9-11 18-16 26s-10 14-15 20c3-11 6-23 7-30 0-8 0-12-1-15-4 8-8 17-11 24-3 8-4 15-6 22 0-11 0-22 1-32 1-9 2-17 4-25-3 6-6 13-8 22-1 9-1 21-1 33l-5-10c-4-8-12-23-16-34v15c0 5 1 11 1 18-1-3-2-5-4-10-1-4-3-11-5-17 1 4 1 7 2 14s2 17 4 27c-2-3-3-7-7-14-5-7-13-17-21-28-1 6-2 12-4 20-1 8-4 18-5 19s-2-8-2-15c-1-7-1-14-2-13 0 2-1 10-2 18-2 3-4 5-5 1s-2-14-2-25c-2 6-3 13-5 21-2 9-5 19-9 29 0-11 0-22-1-30 0-8 0-14-1-20-3 6-7 11-11 20s-9 22-14 35c1-8 3-17 4-25 2-8 3-15 4-22-7 11-14 23-21 34 2-7 5-14 6-20s1-11 0-15c-3 7-6 15-9 24-4 10-9 22-14 33-2-11-5-21-6-32-2-11-3-23-4-34l-5 15c-3 8-8 21-11 24-2 3-1-5-1-13 0-9-1-17-1-26-2 8-4 17-8 26-3 9-8 19-12 29 1-8 2-16 3-25 0-9-1-18-1-27-2 9-4 17-8 29-4 11-9 25-15 39 0-18 1-37 0-50 0-12-1-18-2-25-4 5-8 11-13 16l-16 16c1-3 1-7 2-12 1-6 2-13 1-13s-5 6-9 16-9 24-13 38c1-15 3-30 4-41 1-10 2-16 3-22-8 11-15 22-20 31s-8 16-11 22c1-10 1-21 1-30 0-8-2-14-3-21-4 8-7 17-11 24s-8 14-13 21c2-11 4-22 6-34-4 9-8 18-11 24s-5 9-6 12c2-13 5-27 7-37s4-16 5-22c-9 8-18 16-25 22-6 7-9 13-12 18 1-8 3-17 4-23s2-10 2-14c-6 8-12 16-19 24 3-9 6-17 7-22 2-4 2-5 2-7-5 8-11 16-16 25-5 10-10 21-15 33 1-11 1-22 3-34l-38 70c-21 63-43 126-64 191 4 15 8 31 9 62 0 31-3 77-7 123 8-31 16-62 21-86s7-41 10-57c14 31 28 61 28 99-1 38-16 82-31 127 6-11 12-22 22-39s24-39 27-39c4 0-4 22-11 45-2 27-4 55-5 83 10-29 20-57 28-77 9-20 15-32 22-44-2 19-3 37-6 57-2 20-4 42-7 64 8-10 15-20 28-34 13-13 30-30 48-47-5 6-10 12-23 34s-34 61-55 99c14-12 28-25 46-41 17-15 38-35 59-54-18 18-37 37-51 64-15 27-26 63-37 99 8-10 15-20 41-47 26-26 71-70 115-113-12 15-23 30-40 54s-39 58-60 91c34-25 68-50 103-75-22 20-44 40-59 58-16 18-25 34-34 50 42-24 83-49 93-46 10 2-13 32-36 61-10 7-20 13-7 8 13-6 49-23 74-41s38-37 51-55c-21 28-43 55-62 77-19 21-35 36-51 51 36-8 71-17 106-25 7-7 15-13 16-9s-4 19-29 42c-26 22-73 52-120 82 47-21 94-41 126-56 32-16 50-25 67-34-12 10-23 20-42 42-18 22-43 57-68 91 10-8 20-17 38-30s44-32 70-50l-22 33c-9 14-23 35-36 55 18-15 37-31 54-45 18-15 35-29 51-43-27 49-55 99-82 148 25-21 50-42 70-63 21-21 37-42 53-63-11 24-21 47-33 70-13 23-28 46-43 68 25-15 50-30 75-44 25-13 49-26 73-38-9 9-18 18-33 32-14 14-34 34-55 53 7-1 14-2 34-10s53-23 87-38c-13 10-27 20-42 32-16 13-33 27-51 41 24-6 49-12 73-20s48-18 63-23c14-5 18-6 22-7-12 9-25 18-50 31-24 13-61 30-98 47 42-1 84-2 116-8 33-6 57-17 80-27-18 11-37 23-58 34-22 11-46 21-70 31 36-5 72-10 104-15 32-4 61-9 66-7 6 2-12 9-31 24s-40 38-61 61c27-18 55-36 78-50 22-15 40-27 57-38-15 14-30 28-44 51s-28 55-41 87c36-33 72-66 108-98-4 20-8 39-22 61-14 23-38 47-61 72 26-13 51-26 71-40 19-13 32-27 46-42-16 21-32 42-42 55-11 13-16 18-6 16 9-2 34-12 56-24 23-13 45-28 66-43-14 16-29 33-50 52-22 19-51 41-81 62 22-5 44-10 66-18 23-8 46-20 69-32-31 19-61 37-92 55 21-6 43-13 66-24 23-10 48-24 73-38-15 15-31 30-52 45-20 16-47 32-73 49 14-2 29-3 59-15 31-12 77-34 123-57-20 17-40 34-63 51s-51 32-78 48c37-6 73-11 111-21 39-9 79-22 119-35-20 16-40 32-62 45-21 13-44 22-66 31 25-5 51-11 74-19 22-7 42-17 41-13 0 3-21 19-43 44-21 25-45 59-68 93 28-23 56-46 78-63 22-16 38-26 55-35-32 33-63 67-89 97s-46 57-67 83c44-35 88-70 125-95s67-40 97-55c-36 29-72 58-108 86 20-8 40-16 57-24 17-7 32-14 47-21-19 16-38 31-66 52-27 20-63 46-99 71 41-18 83-37 112-50 29-14 46-23 62-33-5 18-10 36-34 60s-68 54-111 84c33-13 67-25 94-38 27-12 47-26 68-39-16 15-31 31-48 44-16 12-33 22-50 33 47-16 94-32 142-48-31 22-62 44-85 58s-38 20-54 26c31-7 61-13 91-24 31-11 63-25 94-40-21 14-41 28-62 45-21 18-43 39-65 60 12-7 23-15 47-28 23-13 60-31 96-50-19 13-37 26-56 48s-39 55-58 87c29-22 57-45 92-67s76-44 118-66c-19 17-38 35-57 58s-37 51-56 79c16-16 32-31 47-44 15-12 28-22 42-32-11 14-21 28-32 47-11 20-23 45-35 70 55-26 110-51 165-77-29 31-57 62-76 85-18 23-27 37-36 51 17-15 34-30 57-46s52-34 81-51c-14 16-27 31-41 53-13 22-25 51-38 79 26-25 52-50 71-68 18-18 29-28 41-39-8 17-15 34-19 45-4 10-4 15-4 19 14-15 28-31 48-45s47-27 74-40c-12 18-24 35-35 53-12 19-24 37-37 56l66-66c-6 12-12 24-21 47s-22 58-35 92c11-7 22-15 37-30 15-14 34-36 53-58-10 13-19 26-32 44-14 17-32 39-50 62 24-17 48-35 67-51 20-15 35-30 51-45-11 16-23 32-42 55-20 24-48 54-76 85 39-19 79-38 105-53s39-26 52-38c-34 29-68 57-90 75s-32 26-42 33c17-7 34-15 51-25 16-10 34-23 51-35-32 26-64 53-96 79 47-11 94-22 127-34 32-12 50-25 68-38-31 26-61 52-89 71-27 18-52 29-77 40 21-1 41-1 61-8s40-21 60-35c-7 9-14 17-29 35s-38 45-60 72c19-15 38-30 57-44 18-14 36-27 54-40-11 13-22 26-33 46s-22 46-33 73c18-16 36-33 59-51 24-19 53-41 83-62-15 17-30 34-43 55s-26 45-38 69c14-12 28-24 43-37 14-14 30-28 45-43-10 27-20 54-26 78-7 25-10 48-13 71 12-21 23-43 36-64s28-42 43-62c-10 20-20 41-29 60-8 20-16 39-23 58 13-10 26-20 40-36 15-17 31-40 48-64-28 44-56 88-83 132 20-14 40-29 56-42 16-14 28-26 40-38-3 18-6 36-14 56-7 20-18 43-30 66 14-9 28-17 42-28 13-10 27-23 40-36-10 14-19 29-26 40s-12 18-17 25c10-4 19-8 29-16 9-8 20-19 30-31-7 13-14 25-25 38-11 14-25 28-40 43 16-5 31-10 46-19 15-8 30-20 44-31-6 9-12 18-19 35s-14 41-22 65c10-14 20-28 35-47 15-20 34-45 54-71-9 21-17 41-22 61-5 21-5 41-5 61 11-21 22-41 36-68s30-60 46-93c-13 37-26 75-33 107s-8 59-8 86c9-18 18-37 27-53s19-29 28-42c-3 10-7 19-10 31s-7 26-10 39c7-9 14-19 25-32 11-12 25-28 39-44-3 8-6 17-7 28-2 12-3 26-3 41 1-4 3-9 8-18 6-10 16-26 26-41-3 9-7 17-9 35-2 17-4 43-5 69 11-21 22-43 37-64 14-21 33-41 51-62-13 20-25 40-34 60s-15 40-20 60c6-8 13-16 22-26s21-22 33-35c-6 10-12 20-19 34-6 13-12 31-18 49-2 5-3 9-4 13 14-17 27-34 41-49 14-14 29-26 43-38-12 18-23 36-31 53s-11 32-14 48c10-16 20-32 32-47 11-16 25-30 38-45-5 14-11 28-15 44-4 15-6 33-9 51 24-14 48-29 70-48 22-20 43-44 63-68-7 16-15 33-20 51-6 17-10 36-14 54 20-24 40-48 59-73-6 16-13 31-16 61-3 29-2 72-1 115 6-13 12-26 21-41 8-15 18-33 28-51-9 28-19 57-28 85 8-7 16-13 30-30s35-45 55-73c-5 16-10 31-16 53-5 22-10 50-15 77 13-9 27-18 34-22 6-4 6-2 6 0-3 7-6 15-15 28-10 13-26 33-42 52 23-14 46-28 67-41 21-14 40-27 59-41-7 12-14 23-20 38-6 14-10 32-15 50 8-14 16-27 28-40 11-11 25-20 39-30 0 7 0 14-1 22-2 19-8 39-15 59 7-12 14-24 20-33 7-10 13-17 20-25-3 12-5 23-9 39-5 15-11 35-18 54 12-13 25-25 38-38 14-12 28-25 42-37-7 8-14 16-23 31-9 14-20 35-32 55 5-4 10-7 22-17 11-10 30-28 49-45-2 7-4 14-6 27-2 12-3 30-5 49 8-15 16-30 22-46 6-15 11-32 15-49 0 20 0 40-8 76-9 35-25 85-42 135 20-18 41-36 58-60s30-53 43-82c-9 24-19 49-24 77s-5 60-5 92c5-16 10-33 19-50 9-18 22-37 35-56-4 22-8 45-12 68 10-6 20-13 30-24s20-27 31-44c-2 14-4 28-11 56-4 13-9 30-14 48-3 4-6 7-9 11v18l-11 32 9-9c-2 34-6 65-10 97 3-7 7-14 12-29s12-38 19-61c0 10 0 20-4 50s-11 80-19 130c17-29 35-57 52-86l9-6c-7 10-14 21-20 32-5 11-10 22-14 33 10-12 20-24 35-37s35-28 55-43c-10 19-19 37-30 61-10 25-21 57-33 88 19-27 38-53 57-80-5 12-10 24-19 45-8 21-21 51-33 81 22-20 44-40 55-51l12-10c-12 10-23 21-35 46-11 25-24 65-37 105 14-16 27-32 39-47s22-29 33-43c-6 13-11 27-18 40 48-72 96-144 130-201 16-8 31-15 44-22 11-6 20-11 28-16l-11 14c-4 4-10 9-17 15-16 15-41 33-65 52 13-4 26-8 40-13-42 51-95 111-149 171-4 11-9 21-15 31-13 24-30 48-47 71 18-8 35-17 51-27s31-23 45-36c-23 50-46 99-69 149 27-31 53-63 67-78s16-13 17-12c-10 26-20 52-32 77-12 26-27 52-41 78 28-31 57-62 86-91 30-30 59-58 89-87-18 37-37 74-66 111-29 38-68 75-107 113 19-11 39-21 55-29 16-9 29-15 41-21-12 9-25 18-49 40-23 23-58 59-93 96 21-19 42-38 58-50s27-18 38-24c-8 9-15 19-25 34-11 15-23 35-36 56 28-21 56-43 84-64-12 17-25 34-53 56-27 22-70 49-112 75 38-11 76-22 115-33-11 6-22 12-40 25s-42 31-67 50c25-9 50-18 66-24 16-5 23-7 30-9-12 16-25 33-51 58s-66 59-106 92c35-11 70-22 89-29 20-7 23-10 27-13-56 50-112 100-148 130s-52 41-68 53c17-5 34-10 46-17 12-6 20-13 27-21-14 12-29 25-47 38s-38 26-59 39c24-8 48-16 73-25-27 20-53 41-84 59s-65 34-109 49c-43 16-94 30-146 45 20 0 40 0 66-2 25-2 56-6 87-11-21 7-42 13-82 30-40 16-98 44-157 71 13-4 27-9 45-12 19-4 44-6 68-9-22 13-43 26-64 35-22 9-43 13-74 16s-73 5-115 7c20 5 40 9 61 13 6 3 12 6 6 8-7 2-27 5-43 9-17 5-31 12-57 16s-63 5-98 1c-34-5-66-15-97-26 19 16 39 31 61 42s46 17 71 23c-30 0-60 0-93-1-32-1-67-3-102-5l90 48c-19 0-39 0-55 1-15 2-27 5-39 7 21 2 42 5 63 7-27 10-55 21-83 39-29 19-59 45-89 72 15-9 29-17 42-23 13-7 24-11 36-15-12 12-24 24-40 39s-35 33-55 51c18-4 35-7 48-11 12-4 20-8 28-12-17 14-34 28-57 35-24 7-55 7-86 7 12 5 24 11 36 17 12 7 24 15 36 22-15-3-30-7-54-7-24-1-59 1-93 3 22 7 43 13 65 23 22 11 45 25 67 40-10 0-21 0-35 3-15 4-33 11-51 18h78c-20 7-39 14-55 26-16 13-28 31-40 49 19-7 38-15 56-19 17-4 33-5 49-6-14 7-28 14-39 20-12 7-21 12-30 18 26-4 52-7 69-8 18-1 28 0 38 2-14 6-27 13-57 23-30 9-78 21-125 33 24 1 49 3 77 5 28 1 60 3 92 5-17 8-35 16-54 22-20 6-41 10-63 14 52 3 103 6 155 8-16 7-31 13-49 20-19 7-40 15-62 22 33 11 66 21 108 19 43-3 96-18 149-33-28 11-56 23-77 33-22 10-38 18-55 25 26-1 52-3 75-7 24-5 45-14 66-22-14 8-27 15-39 23s-23 15-35 23c6-3 12-6 28-12s44-16 71-26c-9 11-17 21-23 37-5 15-8 35-11 55 24-17 48-35 75-52 28-17 59-33 75-42l16-8c-21 19-41 39-51 49-11 9-12 9-12 9 26-12 53-25 83-32 30-8 65-11 99-14-11 3-23 6-38 16-16 10-36 28-56 45 15-4 30-8 60-19s74-28 117-46c-4 10-9 20-14 27-4 7-9 12-13 17h78c-8 4-16 8-25 20-9 11-19 30-30 49 13-3 25-7 49-12 25-6 60-14 96-21-5 4-9 8-19 13s-26 10-42 16c31 1 63 3 96 1 32-1 66-5 101-9-9 8-17 16-26 23s-19 11-29 16c21-1 42-2 69-13s61-31 94-52c-2 12-4 23-5 34-1 10-1 21-1 31 21-10 42-21 68-29 22-7 48-13 74-18-3-7-6-15-8-22 22 9 45 18 66 32l4 3c6-3 11-6 16-8l6-3c-7-22-10-51-14-80 13 22 27 44 42 59 3 3 7 5 10 8 6-2 11-3 16-4-2 3-4 6-7 10 10 5 21 9 31 13-6-23-13-47-24-65s-27-30-42-43c19 6 39 12 57 20s35 18 51 28c-7-14-14-28-22-42 9 5 17 11 26 18-5-1-11-3-17-5 15 13 31 25 42 43s18 42 24 65c-17-6-35-13-50-27-15-15-29-37-42-59 4 31 8 62 15 85 8 23 18 40 15 38-4-2-22-21-43-35-20-14-43-23-66-32 7 18 14 36 30 62 15 25 40 58 65 91-43-8-86-16-116-19s-47 0-65 3c14 1 28 2 45 5s37 7 48 9l10 2c-25 4-49 8-77 11-29 4-61 6-94 9 54 5 108 9 163 14-19 0-38 0-66 2-28 1-64 5-101 8 22 5 44 9 62 20 19 10 34 26 48 42-12-4-25-9-54-16-28-7-72-16-116-26 26 16 52 31 78 46 20 14 40 27 40 32 1 6-19 3-36 0-17-2-32-5-46-8 14 14 29 27 44 41 38 16 76 32 101 40s36 9 48 10c-24 1-47 2-76 2-29-1-63-4-97-6 25 5 49 10 79 15 29 4 63 8 98 11-21 3-41 5-57 8s-29 7-42 10c31 0 62 0 86 5s41 15 59 25c-16-2-31-4-44-3-14 0-25 4-37 7 41 22 81 44 121 66 19 20 39 39 66 54 28 15 63 25 99 35-14 0-29 1-45 2-16 0-35 1-54 2 10 2 19 4 34 6 16 2 37 5 59 8-14 3-27 5-59 17s-82 34-132 55c31-7 61-15 85-19 23-4 39-6 55-7-14 6-29 12-47 22-17 9-37 23-57 36l48-12c-1 6-3 12-15 22-13 10-37 23-61 36 21-2 43-4 61-5s33-1 47-1c-8 4-17 8-27 13s-20 10-31 13-23 3-34 3c13 0 25 1 40 1 15 1 32 1 48 1-14 5-29 10-54 13s-60 3-94 3c16 14 33 28 50 41s33 25 66 34 82 15 131 21c-30 1-59 3-82 3-23 1-40 1-57 1 16 4 32 8 62 10 30 1 73 1 117 0-22 8-44 16-68 23s-49 12-75 17c44 6 87 12 123 11 35-1 63-9 90-17-14 8-28 16-46 25-19 9-42 18-64 27 22-4 45-8 76-12s70-9 98-14 45-10 63-16c-14 8-28 15-41 23-12 9-23 18-34 27 18-6 35-12 55-15s42-4 64-5c-8 4-16 7-26 12-9 5-20 12-30 19 14-1 29-2 44-3s29-2 45-3h51c-9 6-19 13-28 19-10 7-20 13-30 19 13 1 27 2 42 1s32-5 48-9c-10 9-20 18-19 23s13 5 24 2c10-2 19-7 27-11-12 25-25 51-38 76 25-17 50-35 72-50 21-14 40-26 59-38-10 18-19 37-29 52-9 15-19 27-29 38 20-7 41-15 64-22s49-13 71-26c22-12 41-29 59-46-12 20-25 41-38 62 15-15 30-30 41-44 12-14 21-27 36-47 14-20 35-47 56-74-12 14-24 28-32 45s-11 38-14 58c6-9 13-18 34-34s57-39 92-63c-21 26-41 51-41 62s20 7 52-2c31-8 73-21 116-34-16 16-32 31-44 42-11 10-17 15-23 21 32-10 63-20 98-37 36-17 74-40 113-64-14 17-28 34-47 51-18 18-42 37-65 56 14-5 28-10 49-21s49-28 77-46c-5 4-10 8-30 23-21 16-55 42-90 68 16-4 32-7 65-17 34-11 85-28 136-46-18 13-35 26-57 40s-49 29-76 45c16-2 31-3 54-7 24-3 55-9 68-6s7 15 2 35c-5 21-8 49-11 78 14-17 28-33 47-55s43-49 67-75c-4 10-8 21-12 31-4 11-8 21-12 31 15-9 29-17 49-31 19-13 43-31 67-59 23-27 46-64 69-101-4 18-8 35-8 55 0 21 5 44 10 68 2-20 5-39 12-65 8-25 20-57 32-88v88c7 8 13 16 20 24 2-22 4-45 9-67 4-22 12-42 18-46 6-3 11 11 13 25s2 27 2 40c10-21 19-43 24-67 6-24 7-51 8-77 2 33 4 67 6 100 0 1 0 3 3-9 3-11 9-35 12-53s3-29 3-40c4 45 7 91 10 136 5-14 10-28 14-60s7-82 11-133c6 39 13 78 17 106 5 28 7 44 9 61 3-23 6-45 9-67 3-21 6-41 6-79s-3-94-5-149c17 17 35 33 50 59s29 61 42 96v-143c8 29 16 59 24 88 1-7 2-14 3-27 1-12 3-30 11-59s21-71 34-113c0 25 0 50 4 76 4 27 12 55 21 83 0-19 1-37 2-54s2-33 6-52 10-42 16-65c1 42 2 83 4 125 6-11 12-23 18-45 6-23 12-56 15-74 4-18 5-21 7-24 8 20 16 41 24 61 0-7 0-14 1-31 2-16 4-43 7-70 3 10 7 20 11 41 5 21 11 54 17 86 3-27 5-54 7-87 1-32 1-71 1-110 6 13 12 27 18 40l18 42c0-11 0-23-4-45-5-22-14-55-24-87 14 12 27 24 39 36 11 13 21 25 31 38-6-23-13-47-22-69-9-21-20-41-32-62 23 33 46 66 68 99 0-11 0-22-5-47-6-25-17-66-29-106 19 28 38 56 57 85 0-18 0-35-5-60-4-25-13-57-11-67 1-10 12 2 25 11 13 8 28 14 43 19-19-19-38-39-54-62-16-24-31-52-45-80 18 17 37 34 46 43l9 9c-7-20-14-39-22-57s-17-35-27-52l51 39c13 12 26 25 40 38-6-20-11-39-20-58-9-18-22-35-34-53 21 11 42 22 61 35 18 14 34 31 49 48 1-15 3-30 4-61s3-77 4-124c19 19 38 39 56 58-2-7-5-15-7-38-2-24-3-63-2-100s5-71 9-105c23 25 46 51 69 76 1-4 2-8-5-30s-22-62-38-102c8 17 15 35 27 66 12 32 29 78 46 125 0-16 0-31-8-65-7-33-22-85-36-136 19 29 38 59 53 86 14 28 24 53 33 78-1-24-3-49-12-79-10-30-27-65-44-99 29 17 59 34 72 37s11-8 7-20c-4-13-10-26-25-45-16-20-42-45-68-71 20 2 40 3 71 11 30 7 72 21 113 35-11-18-22-36-42-59s-48-51-76-79c19 5 37 11 55 19 18 9 35 21 37 15s-11-30-24-54c16 9 31 19 49 35 19 16 40 38 62 61-1-15-2-31-3-53-1-23-2-53-3-83 6 11 12 22 23 41 11 18 27 44 36 48 10 4 12-12 8-49s-16-94-27-151c10 23 20 46 32 74 11 28 25 61 31 63 7 2 7-27-2-65-8-38-26-85-43-132 28 43 56 86 84 128-4-13-8-26-18-52-10-25-26-63-42-100 14 13 28 27 39 42s19 33 27 50c2-15 3-29-4-58-8-28-24-70-40-113 11 14 23 27 49 42 25 15 66 31 106 47-21-16-42-31-63-49-22-19-44-40-66-62 16 6 32 12 59 17s64 9 102 13c-20-10-40-20-58-31-18-12-33-25-49-39 18 1 37 2 60 2 23 1 51 2 50-10-1-11-30-35-59-58 18-1 36-3 53-4 18-1 36-1 53-2-13-7-27-13-39-20-13-7-24-14-35-20 20 3 40 6 60 10-11-10-21-20-32-30-23-10-46-20-68-30 30 5 60 10 84 15 23 5 41 9 58 13-26-24-52-49-83-79s-67-66-104-102c69 41 138 83 183 109 45 27 66 38 87 49-9-24-18-47-31-75-14-27-32-57-50-88 21 17 42 35 62 52-9-14-18-28-36-71s-45-114-72-186c24 66 49 132 80 184 32 52 71 89 110 125-17-27-35-54-57-102-23-49-51-119-79-188 45 48 89 96 134 144-5-22-10-43-29-87-19-43-53-109-86-174 40 56 81 112 121 169-10-32-21-64-38-104-18-40-42-87-66-135 36 38 72 76 113 109 41 32 86 60 131 88-18-24-37-47-61-85-23-38-51-89-79-141 38 42 76 84 113 126-18-37-36-74-59-104-22-30-50-53-77-76 73 47 145 93 218 140-24-34-48-67-79-106-31-38-70-82-109-126 59 44 118 89 163 131 32 30 56 59 78 88-30-24-63-49-96-74 40 45 80 90 112 129 32 40 56 74 81 108-72-46-143-91-214-137 27 24 55 47 78 78 23 30 42 68 61 105-37-41-74-82-111-123 29 53 58 105 82 143 24 39 43 63 62 87-44-27-89-54-129-87-40-32-76-68-111-105 25 48 50 96 68 136 18 41 29 73 40 106-39-56-79-111-118-167 34 67 69 133 88 178 20 44 26 66 31 88-44-47-88-95-131-142 22 54 44 108 63 152l7-23-6 26c6 13 12 25 17 36 7 14 13 27 19 38 9-19 19-37 28-56-6 24-13 48-18 74 11 18 20 33 30 48-11-10-22-21-34-32-3 21-6 42-8 65-4 59 2 129 7 199 4-50 7-99 21-161s39-137 63-212c-2 62-4 124-6 187 8-21 17-42 28-72 12-29 28-67 43-104 5 28 10 56 15 83 5-16 11-32 16-48 2-9 3-19 5-13 2 7 4 30-1 76-6 46-18 115-31 184 16-33 32-67 47-96 15-30 29-56 43-82-19 46-37 91-47 114l-9 22c23-11 47-22 70-38 24-17 47-38 70-60-26 38-52 75-78 113 12-5 24-10 47-31 22-21 56-58 89-95-9 24-19 48-27 82-9 34-16 79-23 124 13-30 27-59 38-83 12-24 21-43 31-62-7 30-15 60-24 83s-18 39-28 55c24-16 49-32 74-52 26-20 52-43 79-67-10 18-20 36-32 76-13 40-28 103-44 165 17-35 34-69 52-100 17-32 36-60 55-89-18 53-36 106-54 159 12-12 25-25 46-53s50-72 79-116c-1 24-1 47-6 79s-14 73-23 113c19-30 39-61 52-86s20-43 27-62c-1 27-2 54-9 88-6 35-17 76-28 117 19-31 37-62 52-93 14-32 24-65 34-98 0 21 1 42 1 66-1 23-2 49-4 75 8-13 16-26 24-54 9-29 19-75 29-120 3 23 7 46 16 90 10 43 25 107 40 171 0-29 0-58 1-81 1-22 2-38 3-55 4 26 7 51 10 71s5 35 7 51c9-17 18-34 25-61 7-26 12-63 17-100 3 39 6 78 8 124 2 47 5 100 7 154 18-43 36-87 51-124 14-37 25-69 36-100 10 21 20 42 22 75 3 33-2 79-7 124 6-15 11-31 18-54s14-54 22-84c2 21 4 43 3 70-2 26-7 57-11 89 3-8 6-16 17-44 11-29 29-78 47-128-2 32-5 63-9 104-3 25-6 53-9 83 3-2 7-3 11-5 4-14 8-28 14-42h-3l3-1c5-13 11-26 18-39 26-52 65-106 105-160-19 37-39 73-56 115-9 22-17 45-25 68 9-4 19-7 28-10 3-3 5-6 7-9 23-28 52-58 77-77 24-19 44-28 63-37-13 21-26 43-43 65 46 0 91-1 133-7 48-6 91-19 103-28 12-8-8-13-29-18 38-22 75-43 108-68 33-24 62-52 90-79-8 2-17 4-30 11s-31 17-48 28c38-34 76-67 109-94zm-573 339c-3 7-5 14-7 21l11-5c3-5 7-10 10-16h-14zm133-78c-5 8-11 15-18 23l-4 5c29-6 54-9 80-11-12-2-23-5-35-8-7-3-15-6-23-9zm-1535-467v-4l-11-6 11 10zm20 8l-1 11 30 30 10-18-39-23zm48 29l-9 23 5 4c3-8 7-15 11-23l-7-4zm102-141c-15-38-33-83-50-128 16 44 32 88 50 128zm7 15v1c6 17 13 33 18 45 6 14 11 25 15 33l5-15c-6-8-12-17-17-26-8-12-15-25-21-38zm-22 177c-1 19-3 39-4 60l16 14c2-12 5-24 8-37 1-7 3-15 5-23l-10-5-15-9zm-5 80c-2 22-3 45-5 68l7 4c4-23 8-45 13-69l-15-3zm-5 75l-4 73c3-24 7-48 11-73h-7zm55-216l6-20-35-29c10 17 20 33 29 49zm1340-1733c-12 19-24 44-31 62-8 19-9 32-11 44l-1-2c1-12 3-24 11-43 7-18 20-42 32-61zm-65 61c-3 33-5 65-5 92-1 35 0 61 1 88l-6-7c0-26-1-52 0-85 2-34 5-75 9-116 0 9 0 19 1 28zm-94 69c-1 25-2 50-2 71 0 23 1 42 2 61l-10-28c-1-13-1-26-1-41 0-22 2-47 3-72l8 9zm-36 51c-4 33-7 67-5 110 2 49 10 109 19 169l-23-81c-5-36-8-71-9-101-1-48 4-85 9-122l9 25zm-79 1c1 10 2 21 3 33 4 40 10 92 17 144-8-25-16-50-23-86-7-30-12-68-17-106-2-26-3-47-5-67l25 82zm-29 62c-4 57-8 110-14 157-11 72-26 127-41 181 5-77 10-155 11-216 11-71 17-158 23-245 7 44 14 88 21 123zm-79 94l-10-79c1-28 1-57 1-86 5 45 9 89 9 152v13zm-23 20l-3 42c-10-20-20-41-29-71-4-13-8-29-12-45 2-17 3-33 4-48 1-35 1-64 0-92l33 249c3-12 5-23 7-35zm-55-13l1 4c1 43 3 87 5 131-12-22-23-43-37-78-6-16-12-34-19-54-1-17-1-34-1-51-1-42-1-84-1-126 8 40 17 79 26 110 8 26 17 45 26 64zm-54 69c7 46 15 89 23 126 17 74 36 124 55 173-26-25-52-50-75-73-24-22-44-41-65-60 25 54 49 109 59 142s5 44 1 55l-68-71c4-11 8-22-1-52-9-33-33-86-57-140 21 19 42 39 66 62 24 22 50 48 77 74-19-49-37-98-52-171-16-73-29-171-43-268 17 50 34 100 48 136 12 29 22 49 32 67zm-158 203c33 40 63 78 83 107 24 36 32 59 40 82-17-17-35-33-53-49-39-27-78-54-117-80l6 8c-15-13-29-25-41-36-19-19-32-35-45-51l120 81c18 17 36 34 54 50-8-22-15-44-39-80s-65-86-105-135l97 103zm-26 87c7 8 15 16 25 25 20 20 48 43 75 65-49-24-99-48-150-74-51-25-105-51-159-78 68 87 136 174 174 230s47 82 56 109c-70-66-140-132-209-197 27 40 54 79 86 118 32 38 69 75 106 112-66-45-132-90-172-120-40-31-54-48-52-39 1 9 20 44 32 69 11 25 16 40 20 56-30-41-60-82-89-112-9-10-18-19-27-27-3-6-6-14-10-23-11-24-29-59-31-67-2-9 13 8 54 39s108 78 175 124c-37-37-73-73-104-111-32-37-58-76-85-115 71 67 143 133 214 200-9-25-17-51-54-107-38-55-104-140-170-225 54 27 109 54 161 80l134 68zm-318 111c-7-5-15-10-22-15 65 121 129 243 173 340 43 97 65 169 87 242-65-110-129-219-174-288-9-22-18-45-29-69-41-95-104-215-167-335 28 19 56 39 85 69 15 16 31 36 47 56zm-19 219c14 45 28 89 43 129 20 56 40 104 60 151-35-26-71-52-109-98-10-12-20-25-31-39l10 6c-20-46-39-93-59-149-19-56-39-120-58-185 23 19 47 39 94 108 15 21 32 47 50 77zm-55 129c12 22 24 42 33 60 27 49 41 80 56 111-30-39-59-78-103-119-14-14-30-28-47-42-11-24-24-51-44-89-26-48-64-115-101-181 41 67 83 134 122 181 29 35 57 58 84 79zm-232 523l-4 19c8 14 13 22 19 30l-21-17c-2 9-4 18-6 26 6 11 11 21 16 30 3 6 6 11 8 17 8-21 17-41 26-60-13-14-26-29-38-45zm-24 130c-7 51-7 87-7 123 9-37 18-74 30-110-7-3-15-8-23-13zm-3301-1115l6-12c8-14 15-27 21-39 2-2 5-4 7-6 16-14 33-31 50-48-22 28-44 57-61 78-9 10-17 19-23 27zm-2-29c-5 5-10 10-15 14-29 25-55 38-80 46 15-16 30-33 46-51 11-10 18-18 25-26l-9 6c8-10 16-21 23-33 28-42 54-94 79-146-6 29-12 58-25 91-14 33-35 70-55 108l11-9zm-96 61c-10 3-19 5-28 8 13-10 26-20 38-29-4 7-7 14-10 21zm22-49c-12 6-25 12-39 19 13-14 26-27 43-48 4-6 9-11 14-18-6 15-11 30-16 42l-2 5zm26-68c-4 3-7 6-11 9l-2 2c6-9 13-20 20-30l-7 19zm-44 36c-5 3-10 6-14 10 7-14 15-28 22-41-3 10-5 20-8 31zm51-125l2-7 12-13c-5 6-10 13-14 20zm-32 29c-10 19-21 37-31 53-28 42-58 74-88 106 8-16 16-32 25-55s20-53 31-82c-11 16-21 32-31 46-9 13-18 23-27 32 7-25 14-50 21-72-2 15-5 31-7 47 12-20 23-40 43-63s48-49 76-75c-8 14-17 28-27 47-10 20-23 44-35 69l50-53zm-85-29l-60 63 12-25c6-5 12-11 17-17 19-21 36-41 52-62-7 13-15 25-21 41zm132 2177c-3-12-7-23-10-33-6-17-11-31-16-45 16 21 33 43 46 62 9 13 16 25 23 36l-30-15c-4-2-8-4-13-5zm51 25c-2-10-4-20-6-29l19 37c-4-3-9-5-13-8zm-7-33c-1-9-3-17-4-25-2-23-2-42-2-61 15 26 30 52 44 72l3 8c5 17 12 37 18 57-11-11-22-23-32-31-9-8-18-14-27-20zm39-32c13 11 26 22 39 32 5 4 10 8 16 11 3 18 7 37 11 56-10-18-20-36-34-56-9-14-20-28-32-43zm53 28c-11-10-24-20-36-30 11 3 22 6 34 9 0 6 1 12 1 19l1 2zm27-12c3 1 7 2 10 3 5 9 10 18 17 28 10 13 22 29 35 44-14-13-28-27-43-48-6-8-12-17-19-27zm21 8c3 1 7 3 11 4 10 5 21 10 31 15 4 3 7 6 10 9 12 11 21 21 29 31-16-10-32-20-48-32l-33-27zm54 5c-8-7-15-13-21-18-23-18-38-28-53-37 47 21 93 43 122 58 30 16 44 26 57 36-17-17-35-35-48-51 5 4 10 8 16 13 23 18 54 46 85 73-36-21-73-41-106-56-18-7-35-13-52-18zm48-24c-13-19-16-34-19-49 20 26 40 52 66 69 22 14 48 22 70 27l35 35c-13-10-27-20-57-36-24-12-58-29-95-46zm164 51c9-1 16-2 24-5 18-5 36-15 49-25 14-9 22-19 31-28-11 7-23 13-33 18s-19 7-27 10c16-14 32-28 48-45 17-16 33-35 56-70 22-35 50-87 72-119 21-32 36-44 51-57-20 6-41 12-61 18 18-12 35-23 56-40 20-17 43-40 59-57 15-17 23-28 30-40-15 13-29 26-41 34-11 8-19 11-27 14 43-51 85-103 115-150 29-48 45-91 61-135-12 14-24 27-31 37-8 11-11 18-15 26 6-26 12-51 20-72 8-22 17-38 26-55-5 6-10 12-23 24s-34 30-55 48c23-41 46-83 59-109 14-26 19-37 13-30-6 6-22 30-33 44s-17 20-23 25c26-55 52-110 69-143 16-34 23-46 30-58-27 36-54 72-81 109 13-35 26-69 39-112 7-21 14-45 21-70l19-26 72-147c-12 49-24 97-33 142-18 81-32 153-45 226 18-48 36-95 53-137s33-78 49-114c-14 51-28 103-41 145-13 43-26 77-39 112 27-37 54-73 80-109-6 12-13 24-29 58-17 33-43 88-69 143 6-5 12-11 23-25s27-38 33-44c6-7 1 4-13 30-13 26-36 68-59 109 21-18 42-36 55-48s18-18 23-24c-9 17-18 33-26 55-8 21-14 46-20 72 3-8 7-15 15-26 7-10 19-23 31-37-16 44-32 87-61 135-30 47-73 99-115 150 8-3 16-6 27-14s26-21 41-34c-7 12-15 23-30 40-16 17-39 40-59 57-21 17-38 28-56 40 20-6 40-12 61-18-15 12-30 25-51 57-22 32-50 84-72 119-23 35-39 54-56 70-16 17-32 31-48 45 8-3 17-5 27-10s21-11 33-18c-9 9-18 19-31 28-13 10-31 20-49 25-17 6-34 6-58 3-18-3-40-8-61-17zm451-975l-1 1c-17 42-35 89-53 137 10-53 20-105 31-160 6-15 11-30 17-45 26-65 54-133 81-201-16 64-33 128-48 175-14 47-27 78-39 109l12-16zm-93-22l-14 19 3-7 11-12zm-5-3c9-24 19-51 30-87 13-40 27-91 41-145 16-24 32-48 48-73 21-32 41-64 61-96-33 89-66 178-99 249-27 61-54 107-81 152zm60-216c-22 53-43 105-63 155-25 65-49 126-72 188 6-41 12-82 24-122s29-78 46-116c-16 19-32 37-50 57-17 19-36 39-55 59 32-52 64-105 96-176 11-22 21-46 31-72l112-210c-4 32-9 64-21 104-12 41-32 90-52 139l4-6zm-9-150c-9 14-18 28-27 42-20 32-42 64-63 95 20-49 40-98 52-139 12-40 17-72 22-104-39 71-77 143-115 215 23-81 46-162 59-210l3-12c14-8 28-17 41-27 12-9 22-20 33-30-5 33-11 66-13 89-3 24-3 39-3 53 7-23 15-47 24-68 8-22 19-41 29-60-3 13-6 27-19 74-6 22-14 50-23 82zm-68-113c4-17 7-29 10-38 17-16 36-36 55-57-10 16-20 32-31 48s-23 32-34 47zm-3-27c-4 8-8 16-11 25-9 21-16 45-24 68 0-14 0-29 3-53 0-5 1-12 2-18 10-7 20-14 30-22zm-29 15c3-19 6-42 10-64-11 10-21 21-33 30-13 10-27 19-41 28 12-16 24-32 35-48s21-32 31-48c-19 21-39 42-56 57-17 16-31 26-46 36 17-32 35-63 49-93s26-58 37-86l-36 49c3-5 6-10 9-15 14-28 28-62 41-97 0 23 1 46-2 73s-8 58-14 89c8-15 17-31 24-50s13-43 18-66c1 13 1 26-4 51s-15 62-26 99c16-20 31-41 45-60s27-37 40-54c-11 28-23 56-37 86-13 27-28 55-44 83zm-88-88l-10 14c10-37 21-74 25-99 2-6 3-11 3-16 7-20 14-42 21-65-5 30-9 60-16 88-6 27-14 52-23 78zm-12-41c-3 7-7 14-11 21 6-31 12-62 14-89 0-3 1-6 1-9 5-13 9-27 14-40-1 20-2 40-6 62-3 17-7 36-12 55zm-50-21c-4 7-8 12-12 18 7-19 13-35 19-51-3 11-5 22-7 33zm-33-10c-6 13-11 21-16 28 6-24 13-49 16-71 4-22 5-42 6-62-17 47-33 95-42 140s-10 87-11 130c-10-35-20-70-21-105-2-34 6-68 13-102-7 18-14 37-23 61-10 24-23 54-35 83 11-74 23-149 29-203 3-30 4-55 5-76 1-3 2-5 3-6 7-7 7 18 7 39 1 21 1 38 1 55 11-31 23-62 33-85 9-22 18-36 26-50-3 22-7 44-12 79s-11 84-18 133c5-23 9-46 18-79 9-32 23-73 37-114 0 34 0 69-5 123-3 24-7 52-11 82zm-131-46l-2 15 1-13 1-2zm6-53c3-24 6-46 9-65 4-25 6-43 9-59-4 39-9 76-15 109l-3 15zm20-142c-8 14-16 27-25 48-10 23-22 54-33 85v-32c3-7 6-14 10-22 14-31 32-66 50-102l-2 23zm-70 47c-7 14-17 45-28 75-14 36-29 69-45 102 11-36 23-71 31-116 2-9 4-18 5-27 17-35 34-77 51-119-5 27-9 55-14 85zm-23-87l2-6-2 6zm-87 184l-2 6v-3l2-3zm4-35c3-24 6-47 9-69l4-25c15-26 33-54 51-81-11 32-21 64-32 97l-32 78zm11-132c-17 42-34 82-51 113-21 39-42 64-62 88 15-41 29-81 45-122 9-23 18-46 27-69l-5 7c-20 30-35 56-51 82l13-40-56 133c21-29 41-58 61-97 13-25 26-55 38-86 19-27 41-57 64-87l-23 78zm-49-52c-17 26-34 52-47 77-14 28-24 53-34 79l11-40c12-29 24-58 39-91 18-39 41-84 63-129l-32 104zm-52-7c-14 20-28 39-40 58-20 29-35 55-50 81l47-150c30-39 54-73 77-107l-19 57c-5 18-9 37-15 61zm-87 42c-12 27-22 52-32 77 3-16 6-33 8-48 9-10 17-20 24-29zm-13-30l1-10c4-18 7-34 11-48 15-14 31-30 47-49-8 16-17 35-30 57-8 15-18 32-29 50zm-329 2026l-1 3c-5 9-12 24-19 39 11-7 22-13 33-19-5-9-9-16-13-23zm87 12c-3 2-6 4-9 5l8 7 6-1c-2-3-4-6-5-11zm10390-1050c49 31 95 60 128 84 42 29 64 48 85 67-28-38-55-76-74-101-18-24-27-34-36-45 48 7 95 15 130 18 35 4 57 3 79 2-39-19-78-39-104-54-25-15-36-25-47-35 21 8 41 17 64 23 23 7 48 12 73 16-33-18-65-36-93-58l-7-5c-19 0-39 0-69-3-35-3-82-10-130-18 9 11 18 21 36 45 18 25 46 63 74 101-22-19-43-38-86-67-42-30-106-71-170-112 42 36 85 71 118 107 11 12 20 23 29 35zm184-101c-19-16-36-33-52-51-4 0-8-2-11-3-23-6-44-14-64-23 11 10 22 20 47 35 20 12 49 27 80 42zm-47-49c29 17 57 34 86 47 33 15 66 25 100 36-33-22-66-43-92-75-12-13-22-28-31-45-27-8-54-18-81-30-33-15-65-34-97-53 25 25 50 51 78 73 29 22 61 40 93 58-19-3-38-7-56-11zm57-47c-10-19-20-40-30-60 26 27 52 53 81 74 30 21 63 35 97 50-42-40-83-81-124-121 36 17 73 34 102 46 29 13 50 21 70 29-28-23-57-46-77-64s-32-32-43-45c5 4 11 9 30 18s52 22 84 35c-36-39-72-78-97-105l-8-9c-32-13-64-26-83-35s-25-14-31-18c12 13 23 27 43 45 21 19 49 42 78 65-21-9-42-17-71-30-28-12-65-29-102-46 42 41 83 81 124 121-33-15-67-29-96-50-30-20-55-47-81-74 20 42 40 84 66 115 20 24 44 42 68 59zm44-198c52 20 105 39 144 50 39 12 65 15 92 19l-33-24c-23-17-45-34-68-51 13 5 26 11 48 17 22 5 52 10 82 16-31-23-63-45-92-67-25-20-48-39-70-58-9-2-17-3-24-5-22-6-35-11-48-17 22 17 45 34 67 52 11 7 22 15 33 23-26-4-52-7-92-19-39-11-92-31-145-50 13 14 26 28 51 55l55 59zm115-96c32 16 64 31 92 44 33 15 62 26 90 38-37-34-74-67-102-94-13-12-24-23-34-33-18-8-38-16-59-25-34-15-73-34-112-53 25 21 50 43 79 65 28 22 60 44 92 67-16-3-32-6-46-9zm76-33c7 5 14 9 21 13 32 18 73 35 113 52-42-41-85-81-114-112-4-4-8-7-11-11-33-14-66-28-93-43-32-18-57-38-82-58 18 20 37 40 65 66 28 27 65 60 102 94l-1-1zm-45-120c20 6 40 13 59 22 20 8 38 19 57 29-21-31-42-61-62-92 19 15 38 31 65 47 26 16 60 32 93 48-18-23-37-47-60-75-23-29-50-62-66-84s-19-33-23-43c23 13 47 26 64 35s27 15 38 20c-14-18-28-36-45-58s-37-48-57-74c19 7 38 14 68 24 31 11 74 25 117 39-27-23-53-46-87-68-34-21-76-41-117-61 28 4 56 7 86 10-38-12-75-24-103-34-31-10-50-17-68-24 19 26 39 53 56 74 17 22 31 40 46 58-11-5-21-10-38-20-17-9-41-22-64-35 3 11 7 21 23 43 15 22 43 55 66 84 23 28 41 52 60 76-34-17-67-33-94-49-26-16-46-31-65-47 21 31 42 62 63 92-19-10-38-21-57-29-19-9-39-16-59-22 17 21 34 42 64 73 12 12 25 26 40 41zm140-280l7 1c37 4 78 7 118 10-23-12-47-25-84-43-38-19-90-43-142-67 27 7 53 13 75 19 23 6 42 13 60 19l-74-46c-20-2-39-4-58-6-36-3-69-7-102-12 41 20 82 40 116 62 33 20 58 42 84 63zm-15-105c15 6 30 12 44 19 32 16 62 35 92 55-30-33-59-65-89-95-9-9-18-18-27-26-26-17-52-34-80-48-32-16-66-28-100-41l105 66c-19-6-38-12-60-19-23-6-49-12-75-19 52 25 104 49 141 67 38 18 61 31 85 43l-36-2zm-1-75c31 21 60 40 86 54 39 21 71 32 78 29s-11-21-29-38c-17-22-33-45-50-67 28 21 55 43 84 61 28 18 57 32 85 47-32-47-63-94-90-130-27-37-49-62-71-88 24 10 48 20 73 31 26 11 53 24 80 36-45-49-89-99-134-149 16 6 32 12 47 15 15 4 29 6 44 7-11-11-21-22-32-34-10-13-20-27-30-41 16 8 32 17 51 29s42 27 65 43c-30-37-61-74-90-104-12-13-24-25-36-36l22 26c-23-15-46-31-65-43-20-12-35-21-51-29 10 14 20 28 30 41 10 12 21 23 31 34-14-1-28-3-43-6-15-4-32-10-48-16 45 50 90 100 135 150-27-13-54-26-80-37s-50-21-74-31c22 26 44 51 71 88 27 36 59 83 91 130-29-14-58-29-86-47s-56-40-84-61c17 22 34 45 51 67 17 18 35 35 28 38s-39-8-77-29-83-52-127-82c30 26 60 53 89 83 19 18 38 38 56 59zm188-756c7-5 14-9 20-14l12 9 6 6-19 23c-7-8-13-16-18-23l-1-1zm35-24c17-12 35-24 52-36-5 7-10 13-25 32l-16 19c-4-5-7-10-11-15zm-14195-2402l-4 2c2-4 3-6 3-8l1 6zm-144 266l-15 19 7-5 8-14zm182-211l-12 9 13-14-1 5zm-123 353l-9 15 2-1 7-14zm43-19c6-6 12-11 19-17-1 4-2 7-6 23-5 17-12 46-20 75 10-12 21-25 31-38 11-14 23-28 35-42-5 15-10 30-11 60-1 24 1 57 4 93 41-134 85-247 130-355 2-6 4-12 6-17 3-10 6-14 9-19-9 7-17 13-26 20 5-6 9-11 12-16s4-10 6-15c-4 4-7 9-14 14-6 5-16 11-25 18 8-12 16-23 21-30s6-10 7-13c-7 5-15 11-22 16 1-5 3-9 5-14s5-10 8-14c-6 4-11 7-20 16-6 5-14 13-22 21-43 76-86 153-127 234zm89 163c1 15 3 31 5 46 2-25 3-50 7-71 2-14 5-27 8-39-6 21-13 43-20 64zm4736-2844l21 69c6 23 12 46 19 69l-11-2c-4-21-8-41-13-62-5-25-11-49-16-74zm-91 121c-6 0-11 1-16 1 19 9 37 18 56 30 19 13 37 29 56 45-11-2-22-5-33-8-12-12-25-23-37-33-19-15-37-26-56-37 9 1 19 1 30 2zm-34 56c18 6 36 13 54 23 21 12 43 28 64 45-8-1-16-1-29 2-18-16-36-31-54-43-21-14-43-23-64-33 10 2 20 4 29 6zm41 85c-7 2-15 5-23 8 12 2 23 5 36 16s29 31 44 50c-14-2-28-5-41-6-10-14-19-27-28-35-13-13-25-17-36-20 17-5 34-10 48-13zm-38 73c5 7 16 17 39 33 30 21 79 53 127 84-31-12-62-24-91-33-9-3-18-5-27-7-16-12-30-23-41-33-30-24-41-37-40-43 1-5 14-4 33-1zm53 105c-12 0-28 0-45-1l-51-29c27 7 54 14 84 26 4 1 8 3 12 4zm-48 15c9 8 19 19 35 36 30 34 80 93 130 151-38-22-76-45-117-62h-1c-20-28-39-53-54-71-29-38-41-49-52-60 21 2 43 5 59 6zm-47 127c-5 0-11 0-16 1-9 0-17 0-25 1-8-9-25-21-42-33 28 10 56 20 83 31zm-42 14c19 10 39 21 59 34 27 17 55 37 83 57-31-9-61-19-92-26-13-3-26-5-40-8l-6-4c-27-20-54-36-81-53 16 0 33 0 50 1 10 0 21 1 27-1zm50 89c7 3 14 7 21 11l-9-1c-4-3-8-7-12-10zm-18 10c-11-1-22-1-31-1h-31c-4-2-8-5-13-7-19-10-38-19-57-28 31 6 61 13 93 22 13 4 26 9 39 14zm-26 23c18 11 41 26 65 40-19-3-38-6-62-10-19-3-42-6-66-9l-5-4c-18-12-32-19-45-26 13 1 26 1 45 3 18 1 43 4 68 6zm-40 57c13 11 29 22 44 34-13-5-27-10-38-14s-20-6-30-9c5 6 10 12 33 31 23 18 65 50 106 81-30-10-61-21-96-28-18-4-38-7-59-9-9-9-17-16-24-22-23-22-27-29-32-36 9 4 19 8 30 13 12 5 25 11 39 17-19-16-38-33-52-47-13-14-22-25-31-36 31 7 61 14 87 19 8 2 16 4 23 6zm-52 121c14 14 31 29 59 44 34 19 82 36 131 52-47-2-93-5-134-11-31-4-59-10-86-17-30-21-47-41-60-56-15-16-25-27-36-37 42 7 84 14 120 24l6 1zm-17 76l42 16c23 9 40 15 57 21-6 1-12 2-22 2-28-13-55-26-77-39zm-34 34l-39-3-58-27c31 11 62 21 97 30zm-27 31c17 36 34 71 55 103 27 44 61 83 95 122-26-12-53-23-84-45s-67-56-103-90c18 23 35 46 52 69 10 19 21 38 15 41-6 2-28-11-48-21l-4-2c-9-14-17-28-25-43-26-47-45-98-63-149 40 6 80 12 110 15zm-3 206l57 39-39-15c-6-8-12-16-18-24zm-51-2l-40-15-48-76c30 33 60 66 88 91zm-39-14c27 23 54 46 98 80 44 35 105 81 166 127-48-13-97-26-147-48-50-21-100-51-151-80 1 8 1 17 4 27-38-35-63-59-88-84 51 24 102 47 152 71-43-35-87-70-130-105 19 8 39 17 59 30 21 12 43 28 49 25 7-2-3-22-12-43zm76 236l17 17c32 34 50 60 69 87-40-34-80-68-124-100-44-31-92-60-140-89 10 14 20 28 38 48 18 19 44 44 69 68-28-10-57-19-80-31-12-6-22-13-32-20-11-13-21-25-28-36-22-33-22-55-22-76 51 35 101 70 152 96 27 14 54 25 81 36zm-95 111l-174-127c7 12 13 24 19 36-9-10-17-20-24-29-17-21-27-37-36-53 48 34 96 68 140 105 26 22 51 45 75 68zm-132-51c14 23 30 46 50 69 40 46 96 89 152 133-45-14-90-28-142-64-25-17-52-40-79-66-22-32-42-62-58-85-19-29-31-46-42-63 17 16 34 31 58 45 17 11 39 21 61 31zm-104 11c6 31 15 64 37 102 16 28 39 60 65 93-36-34-70-68-96-104-39-51-62-104-85-158l79 67zm135 235c10 12 21 25 31 38l-41-42 10 4zm-58-27c28 32 62 70 97 107-31-17-62-34-112-66-48-31-115-75-182-120-26-54-31-96-35-138 57 66 114 132 166 174 23 18 44 32 66 43zm-191-66c10 12 20 25 30 36 14 17 27 32 40 47l-26-10c-17-26-32-51-44-73zm20 63c-10-3-20-7-30-11-28-40-37-59-45-77 22 26 44 52 73 86l2 2zm-173-44c11 13 22 26 31 38s15 23 21 33c-10-7-20-14-29-21l-9-12c-14-18-28-39-43-60l29 22zm-76 32c9 16 18 31 24 42 7 12 11 20 15 28-22-12-44-24-62-32-17-7-30-11-44-14-1-2-3-5-4-8-9-13-21-29-33-45 31 20 61 41 91 61l-32-50 45 18zm-66 25c14 12 28 25 40 36s22 22 32 32c-29-16-58-31-87-47 20 17 40 34 52 47s17 23 21 33c-34-20-67-41-101-61 17 20 34 40 49 61 14 21 26 43 38 64-26-19-51-37-72-51-20-14-36-24-52-33 10 16 20 32 26 43 5 12 6 18 7 24-13-9-27-18-40-24-12-6-24-9-35-12 8 7 16 14 22 21s10 14 13 21c-11-6-22-12-33-16-10-4-20-6-30-8 12 11 24 22 35 35 11 14 21 31 30 48-29-10-58-20-84-29-26-8-48-15-71-22 1 5 3 10 6 17 4 7 8 16 13 25-17-11-35-23-52-35 4 12 8 24 15 39 8 16 18 35 29 54-10-16-21-33-33-46-12-14-27-25-42-36 10 16 20 32 24 42 5 11 4 15-3 10-4-4-10-11-18-20l8 4c-8-19-17-37-28-53-10-15-22-27-34-39 10 3 20 6 31 11s22 12 34 19c-4-8-7-15-13-23-5-8-13-16-21-24 12 4 23 8 36 15 12 7 26 18 40 29 0-7-1-14-6-26s-14-30-24-47c16 11 32 22 53 38 20 16 45 37 71 59-11-23-22-47-35-70-14-23-30-45-46-68 33 24 67 48 100 72-3-11-7-21-19-36s-32-34-51-53c29 18 58 37 87 55-9-11-19-23-31-36s-26-27-40-41c14 4 28 9 46 18s40 24 62 38c-4-9-7-17-14-31-6-13-15-32-24-50 22 9 43 18 65 28-9-13-18-26-27-39 13 7 26 13 42 24s35 27 53 42c-4-9-8-18-14-28zm-305 210c7 12 14 24 19 35 6 13 11 25 16 38 218 71 426 143 634 214-231-56-463-112-772-203 3 2 5 4 7 5 12 11 16 18 21 26-16-10-33-20-46-27-12-8-22-13-32-19h-2c12 16 23 33 32 47 9 15 15 28 21 40-24-24-49-48-73-72 9 15 18 30 24 41 6 12 8 20 10 29-12-14-23-27-32-37-9-11-14-19-19-26 4 17 8 34 15 54 3 9 6 19 10 29 44 27 87 53 127 78 266 166 420 276 574 387-269-157-537-314-786-456 6 9 12 16 19 24-16-9-33-19-49-28-9-5-18-11-28-16 9 12 17 25 23 36s10 21 13 30c-10-14-21-29-37-46-15-17-35-35-55-54 20 41 41 82 53 106 12 23 15 30 9 30-5 0-19-6-33-13-15-9-31-17-46-26 12 13 25 26 33 36s13 17 17 24c-26-16-52-31-70-42s-29-16-40-22c21 29 41 58 53 76 11 18 14 24 16 31-21-18-41-36-62-53-21-16-43-30-65-44 12 16 24 33 36 48s23 28 34 41c-12-9-25-18-37-27-20-14-40-29-61-43 9 12 17 24 24 35 6 10 9 19 13 29-7-7-15-14-25-21-9-6-21-14-33-21 11 26 22 53 34 77 8 18 17 35 25 51 119 76 239 156 371 245 272 185 594 413 915 641-444-292-888-583-1246-808-51-32-100-62-147-92l1 2c13 22 20 37 27 53-10-9-21-18-35-28-15-9-33-20-51-30 12 19 23 37 33 57 9 20 16 40 23 60-27-25-55-51-82-71-25-19-50-32-74-46-10-23-20-46-30-71-7-17-13-35-19-53-191-116-348-209-474-286-197-122-319-205-442-289 295 164 590 328 848 481 30 18 59 35 87 52l-6-10 28 23c17 10 33 20 49 30-4-6-8-11-12-17-11-17-23-35-34-54 22 17 43 34 64 52 21 19 41 39 61 59-1-6-3-13-14-33-11-19-30-51-50-83 11 6 22 13 41 26 18 12 44 31 70 49-4-8-8-15-16-26s-20-26-32-41c15 10 31 21 46 31 14 8 28 16 34 16 6 1 3-6-7-32-11-26-29-71-48-115 20 21 39 42 54 61s25 35 35 51c-3-10-6-21-11-33-6-12-14-26-22-39 10 6 19 12 29 19l48 33c-8-12-16-23-25-37-8-14-17-31-26-47 8 10 16 20 23 27 7 8 14 13 21 18-5-11-10-22-12-31-3-8-3-14-3-20 9 11 18 23 36 40s44 40 70 63c-7-26-15-52-20-74-4-13-6-25-8-37-68-38-134-74-197-108-103-56-200-107-291-154-244-82-504-171-764-261 188 53 376 106 561 159-125-61-236-113-335-158-213-96-365-156-518-216 302 98 603 197 943 357 68 32 139 67 209 103 137 40 272 80 401 120 67 21 133 42 198 63l-12-24c6 9 12 18 18 25l17 6c-5-12-13-28-22-45 15 13 29 26 41 41 4 4 7 8 10 13l5 2c-4-8-7-16-10-23-6-17-10-29-13-42 17 14 35 28 52 41-4-10-8-20-11-27-3-8-4-13-6-18 23 8 47 17 73 28 23 9 48 20 74 31zm22 69c-12-11-24-21-35-29-17-11-33-18-49-24 2 7 5 15 9 24l3 5c24 8 48 16 72 24zm-108-36l-1-1v1h1zm-425 355c-14-14-27-26-38-34-18-15-29-19-28-12 1 1 2 4 4 7 20 13 41 26 62 39zm103-292c8 11 19 26 31 40-2-8-4-16-8-27l-23-13zm60 34l11 11-3-7-8-4zm34-43c-3-5-7-9-12-15-12-12-31-29-51-45 23 8 45 16 68 24l48 39c-9-10-19-21-27-34-7-10-13-22-20-34-86-27-177-56-272-87 91 50 181 102 266 152zm15-62l38 33c-4-9-8-17-12-25l-26-8zm93 28c7 7 14 15 22 23-2-6-4-12-5-18l-17-5zm-551 332c12 15 24 30 33 45 10 16 18 32 26 49-20-13-40-25-59-37 6 13 12 27 17 40 6 14 11 27 17 40-26-17-53-35-75-50-23-15-43-27-63-39 11 21 22 42 28 57 7 15 8 24 10 33-7-9-15-17-24-29-9-11-20-26-31-40 6 10 13 19 18 28 140 161 270 353 376 558 128 247 221 513 315 779-115-278-231-556-349-783-96-185-194-336-313-478v1c-38-32-77-63-101-82-25-19-35-27-46-34 7 16 15 31 19 42s6 16 7 22c-14-10-29-19-47-28l-5-2v1c5 11 6 17 7 24-11-11-23-22-34-33 6 12 13 25 18 37s9 24 12 36c-14-11-27-22-40-29-11-6-21-9-32-12 117 131 208 272 295 449 125 258 239 591 353 924-147-343-295-686-444-948-71-125-142-232-219-329-12-2-25-5-39-8 21 13 42 25 55 35 14 11 20 20 26 28-17-10-35-20-53-28s-38-13-58-19c6 9 11 17 20 29 8 12 19 28 30 44-35-32-70-63-105-94 24 37 49 74 67 102s29 46 41 65c-16-13-31-26-48-39s-35-26-54-39c16 23 33 46 43 66 11 20 16 36 22 52l-29-32c24 33 48 66 71 100 173 252 326 543 466 897 141 354 270 771 399 1188-99-307-198-613-297-870-98-257-197-464-320-693-112-208-244-434-421-658 5 14 10 28 12 41 4 15 4 30 5 44-6-17-12-34-26-54-14-19-36-40-57-61-2 32-3 63-1 84s6 30 10 40c-8-7-15-14-22-20 64 161 116 335 168 510-79-180-157-360-239-526-3 8-5 14-8 20l-24-51v29c1 8 1 16 2 24-10-18-20-36-34-60s-33-54-52-84c14 38 28 76 35 104 3 10 5 19 6 27l36 54c149 229 288 499 406 819s213 690 309 1060c-104-348-208-697-312-974s-207-482-352-723c-43-72-91-147-140-224-1 7-1 15-2 22-2-12-4-23-6-34l-21-33c0 12 1 24 2 35-4-18-8-36-12-50l-20-31c-6 22-12 43-22 61-10 19-25 34-39 49-2-19-3-37-7-55-3-15-8-28-12-42 4 6 10 11 15 17-4-11-7-21-7-43 0-21 3-53 7-86-82-123-167-249-252-375 111 134 223 267 332 415 5 5 11 12 18 20 14 16 33 39 51 62-16-30-33-61-45-88s-20-49-28-72c20 23 39 46 59 72 21 26 42 54 64 82-4-17-8-35-18-56-10-22-25-47-40-73 11 9 22 18 32 27-14-26-28-52-42-77-78-137-159-259-242-373-88-84-177-167-267-250 54 35 107 70 163 109-18-23-35-46-52-69 36 36 72 73 107 109 64 48 131 103 206 171 73 67 152 147 234 237l2 1c14 2 33 7 51 12-4-4-8-7-19-14s-28-18-46-29c8 4 16 7 26 12 9 5 20 10 30 16-12-18-24-36-36-53 12 4 24 8 37 16s27 21 40 33c-2-13-5-25-9-38-5-14-11-27-17-40 11 12 22 24 34 37-1-7-2-14-6-26v-1l5 3c18 10 33 21 47 32-1-6-2-12-5-23-3-8-7-19-11-31-29-28-58-56-88-84-191-178-422-352-653-526 278 183 556 365 763 548 28 24 54 48 79 72l-3-5 4 6c15 14 29 29 43 43-1-3-1-5-2-9-6-16-16-39-25-61 19 14 39 28 62 46 23 17 49 38 75 58-5-14-9-29-14-43-5-15-11-29-16-44 20 14 40 29 60 43-7-17-14-35-24-52-6-12-13-23-20-34-139-133-297-262-455-392 184 127 367 255 539 432 19 20 38 40 56 60-4-16-9-32-15-48-9-21-20-41-30-62 18 12 36 24 51 36 14 11 25 21 35 31-6-17-12-33-25-57-12-23-30-53-48-83 19 14 38 28 59 51 20 23 42 55 50 61 7 7 1-13-10-32-11-20-25-38-26-45s11-2 29 14c17 16 40 43 63 71zm-678 221l5 6-17-29c4 8 8 15 12 23zm-39-73c19 7 38 14 56 23 4 2 7 4 11 6-48-54-99-108-151-162 29 42 58 87 84 133zm-219 187l-3 46c-4-17-8-33-12-49-1 19-2 39-2 53 0 15 2 24 3 34-20-30-39-60-59-89 1 9 3 19 4 28 74 207 120 439 138 650 21 233 7 443-6 652 0-256 0-512-29-740-26-216-79-407-153-596 0 9 1 19 2 30 3 22 9 46 15 71-20-16-39-32-55-51-16-20-29-44-41-68 6 19 12 38 15 56s3 36 3 54c-3-8-6-16-12-32-5-12-13-30-21-48 2-15 4-29 5-40 2-13 2-21 2-29 17 28 35 55 52 82 0-17 1-34-5-64-6-29-17-70-29-111 12 21 23 42 33 62-78-182-173-363-269-544 122 189 243 378 331 602 4 10 8 19 12 30 3-6 5-12 8-20 5-12 9-28 14-45 4 13 9 25 14 40 6 15 14 34 21 53 0-16-1-32-2-41v-17c2 6 4 13 11 23 4 5 9 12 15 18zm-217-7l-4-10 6 24v4-1c4 16 7 32 8 43 1 18-2 28-6 38-11-22-21-44-32-64s-24-39-36-59c5 19 11 37 11 51 1 15-3 26-6 36-4-12-8-24-13-34-6-11-13-20-20-28 3 10 5 20 7 30s3 19 0 14c-3-4-11-22-18-40 0 8 1 15 0 26-1 10-3 23-4 37-8-21-16-42-24-58s-16-27-24-38c0 6 1 13 1 22-1 9-1 21-2 32-4-16-7-31-12-44-5-12-10-22-16-32 0 7 0 14-1 21 32 92 57 185 69 280 31 240-18 488-66 735 25-236 50-472 19-712-12-98-35-197-62-296-2 8-3 15-5 21-3 11-7 17-10 23 1-13 2-27 2-38-1-12-2-22-4-31-1 17-1 34-3 46-1 12-3 20-6 27l-10-48 9 8c-4-26-8-53-10-76 0-18 0-34 2-50-33-105-70-210-108-315 55 115 109 230 154 346v-3c18 33 37 66 55 98 0-10-1-20 0-35 1-16 3-36 6-56 3 17 6 35 9 52 2-17 5-35 7-52 5 17 10 35 12 54 3 19 3 38 3 58 17-15 33-29 45-48 13-19 21-43 29-66 6 9 12 18 16 33 5 15 7 36 10 58v-37c1-13 2-26 2-39 5 12 10 24 14 42 2 14 5 32 6 51zm-275-37c-7 12-14 24-19 33-6 12-7 20-8 27-3-11-5-22-6-32 0-9 1-17 2-25-7 14-13 28-20 43 2-9 5-18 6-27s2-18 2-26c-4 10-9 21-14 30-4 8-8 14-12 21 31 110 48 230 38 349-10 122-48 243-87 363 27-105 54-211 61-328 8-118-4-248-31-368-2-11-5-21-7-31l-1 2v-5c-2-10-5-21-8-31-1 2-2 4-2 6-3 6-3 10-2 14-3-6-7-12-9-20-3-7-5-15-6-24v18c0 7 1 16 1 25-2-5-4-10-6-16-1-5-3-12-3-12-1 0-2 5-2 12v21c-4-8-8-15-11-22-3-8-4-16-5-24-1 10-2 21 0 35 1 13 4 29 8 45-11-16-21-32-27-44-5-13-6-23-6-29-1-7-1-9-2-6-2 3-5 11-8 17-2 5-4 9-5 12-1-7-1-15-2-22-1-6-2-12-3-19-5 10-11 20-18 28s-15 14-23 20c4-11 8-22 11-30 3-9 4-15 5-20-2 4-4 9-7 14-4 5-7 11-11 16 2-8 4-17 5-26 1-10 1-20 1-30-4 13-9 26-14 36-5 11-10 19-16 27 1-8 1-16 1-24v-19c-5 11-10 23-15 34 2-11 4-23 5-33s1-18 1-25c-3 12-6 24-8 33-3 8-5 13-7 18 2-13 5-25 6-35s0-17 0-25c-4 12-8 24-11 35-4 11-8 21-12 31 0-12-1-23 0-37 0-6 1-13 1-20l3 18c4-13 8-26 11-43 3-18 5-39 7-61 6 11 11 21 15 35s6 30 8 47c2-12 4-24 5-34 1-9 1-16 1-23 8 12 16 24 23 42 7 17 13 40 20 62 3-14 6-28 7-38 2-11 2-19 2-27 6 19 13 39 16 44 3 4 3-5 1-16-1-10-3-21-5-32 7 10 14 19 19 31 4 11 7 24 10 37 5-11 10-21 10-37 0-15-4-35-8-54 11 21 23 42 33 64 4 8 8 17 11 26-25-88-56-171-87-254 41 89 82 178 113 274 1-4 1-9 1-15 0-19-4-47-9-75 9 27 19 54 25 71 3 9 5 15 6 20-2 8-4 15-6 21s-4 11-6 15l2 6 2 6c3-14 7-27 8-35 1-4 1-6 2-9 1 4 1 7 2 10 2-18 3-37 2-56-2-20-7-40-12-60 11 26 22 52 37 74 10 13 20 25 31 36zm-74 28c0-9-1-17-2-26-2-8-4-17-6-25l-3 15c4 12 8 24 11 36zm-228-114l-15 24c-6 10-13 19-19 28 3-9 6-18 8-27 3-8 7-15 10-22-3 2-5 4-10 11s-13 20-21 33c5-14 10-28 15-40 6-11 12-20 18-28-7 3-13 6-20 10 2-3 4-6 5-11 4-11 9-29 14-46 3 12 7 23 10 40 2 8 3 18 5 28zm-40-6c-2 1-4 3-5 4-5 5-10 10-14 16l-6-10c1-4 3-9 4-13l-6 10-5-8 3-10-5 6c-5-6-8-11-10-13-5-5-6-1-6 5l-2 2-5-10 2-2c7-13 20-29 32-46 1 5 1 10 3 23s5 35 8 57c3-8 6-15 8-28s4-31 6-49c1 11 2 21 2 33-1 10-2 21-4 33zm-68-45l-2-4 4-7c-1 4-2 8-2 11zm-13 3l-5 6c1-6 1-12 1-18l8-13c-1 8-3 17-4 25zm-89-39l-1 1c1 0 1-1 1-1zm-1 2l3 3c0 2 1 5 1 8 2 6 3 12 5 17l1-18c4 5 8 9 11 14l2 6v-2l1 2c-1 1-2 2-2 3-3 5-4 8-5 12v-12c-1-4-1-9-1-13-2 6-4 12-6 16-1 5-2 8-3 11-2-6-4-12-5-17s-1-9-2-13l-3 7c1-5 1-9 1-14 1-4 2-8 2-10zm-5 29c-2 4-3 8-4 12-2 8-2 15-2 22-3-7-5-14-7-20 0-8-1-16-1-24-1-14 1-25 3-36 1 8 1 17 3 25 2 7 5 14 8 21zm126 43zm5300-4307c-49 13-97 27-139 33-42 7-77 6-108 5-23-1-44-2-64-3-11 4-19 7-28 10 27 1 53 1 85 1 31 0 67 0 110-8 44-8 94-23 144-38zm-289 20c15-4 33-8 51-12-61-4-122-8-179-11-38-1-74-2-109-3-24 8-50 15-77 23 55 0 109-1 168 0 47 0 96 2 146 3zm-133-85c26-12 46-25 66-38-70 10-140 20-182 25-42 6-56 7-71 8 24-13 47-26 69-34 23-8 45-12 67-16-76 7-179 17-210 22-30 4-9 1-13 2-3-3-4-5-19-9-14-3-52-10-84-13-13 7-28 14-49 21-28 11-67 21-106 32 32 0 65-1 99 2 35 2 72 6 91 11 11 2 16 5 19 7 4 0 9-1 14-2 58-10 137-19 216-29-21 4-43 7-65 14-21 8-44 20-66 32 14-2 29-3 72-10 36-6 93-15 152-25zm-392-55c-29-2-57-2-85-3 40-12 81-24 110-35 29-12 46-22 63-32-49 10-98 19-137 23s-67 3-97 1c-28-1-56-2-85-3-18 10-37 19-54 28-19 9-36 17-54 25 22-2 44-4 67-11 24-6 49-15 74-25-15 8-30 17-48 27s-39 20-60 31h93c30 0 59 1 99-5 33-4 73-12 114-21zm-233-49h-3c22-11 43-22 62-32 18-11 34-20 50-30-25 9-49 19-72 24-22 5-44 6-65 8 18-9 37-17 56-27s40-21 61-32c-37 12-73 25-104 31-30 6-54 7-78 7 19-10 37-19 53-27s29-14 41-20c-1-6-3-12-14-15-10-3-29-4-60-2-31 1-74 5-117 9 19-11 39-21 65-38 27-18 60-41 94-65-36 10-82 23-116 32-35 9-50 13-78 19-10-1-18-2-20-5s0-6 1-9l1-1c22-13 45-25 67-38l-69 24c-11-4-35-3-62 1-24 5-50 13-75 21l-14 5 9-9-12 3c-36 8-97 22-157 35 19 1 39 2 64 5s56 9 86 14c-23 12-46 25-63 38-17 12-29 25-40 37 29-10 58-21 87-26 26-6 52-7 63-4l72-26c-22 12-44 24-65 35l-1 1c-1 4-3 7-1 9 3 3 11 4 21 5 29-8 56-15 80-22 47-13 83-25 120-36-32 22-65 45-90 61-26 16-45 26-64 36 45-5 89-10 121-13 32-2 51-2 62 0 11 3 13 9 15 15-13 6-25 11-40 19-15 7-33 16-51 25 25-1 49-2 80-10 29-7 64-19 100-32zm-339-209c11-7 24-15 37-22-42 9-83 18-119 27-39 9-72 18-104 26 28-1 56-2 88-3h61c6-5 13-11 21-17 5-3 10-7 16-11zm-5218 3171l-33-7 46-2c10 0 20 1 17 2-3 2-16 5-30 7zm4167-4537c11-10 24-21 40-33l4-3c5-13 8-25 12-37-19 24-38 49-54 70l-2 3zm34-6l-75 61v1l-25 20c-7 22-15 46-26 78-16 45-38 106-60 167 19-22 38-44 78-74s102-68 164-105c-27 44-55 88-77 124-23 37-40 66-58 95 23-18 46-37 79-58 27-17 60-35 95-53l-4 1c21-21 42-42 66-65s51-48 79-73c-44 23-88 46-122 67-33 20-56 39-79 58 17-29 35-58 58-95 22-37 49-81 77-125-62 38-124 76-164 106-40 29-59 51-78 73 22-60 44-121 60-166 4-14 9-26 12-37zm-132 108l-45 37c19-52 37-102 51-141 15-45 25-74 34-104-19 24-37 48-54 70-16 21-29 40-43 59 1-7 2-15 3-22-16 30-31 60-45 85-16 30-29 54-43 78 32-32 63-63 79-77 15-14 15-11 15-1-1 11-2 29-3 45-2 17-4 33-6 48 14-18 27-37 43-59 5-6 9-12 14-18zm-53-109c0-6 1-12 2-18 1-17 2-35 3-45 0-11 0-14-15 0-16 14-47 46-79 77 14-24 27-48 43-77 16-30 34-64 51-99-37 36-75 72-107 104s-58 62-84 91c7-32 15-65 27-98 12-34 28-68 45-103-26 42-52 84-76 108-9 9-18 16-27 21-6 16-12 32-17 48-13 42-20 84-26 127 23-8 45-15 70-39 24-25 50-66 76-108-17 34-33 69-45 102-12 34-20 66-27 99 26-30 52-59 84-91 30-31 66-65 102-99zm-240-28c-7 3-13 5-20 7 6-42 13-84 26-127 15-49 39-98 62-147-30 49-60 98-81 132l-5 7c-1 28-3 56-8 85-7 43-20 88-34 133 13-17 25-35 47-69 4-6 8-13 13-21zm-52-93c11-37 20-72 26-107 1-7 2-15 3-23-30 41-59 80-84 116-39 58-67 108-96 157 29-34 57-67 78-93 21-27 34-46 48-65-6 18-12 37-25 61s-33 54-53 84c17-7 35-15 58-49 13-20 29-49 45-81zm32-158c2-24 2-48 3-72-22 47-44 93-63 127 18-18 39-37 60-55zm-123 126l-12 6c20-30 40-60 53-85 13-24 19-42 25-61-14 19-27 39-48 65-17 21-38 47-61 73-4 42-17 83-29 124 1-3 3-6 16-32 11-20 29-53 56-90zm-42-13c23-39 47-80 78-125 40-58 90-124 140-190-56 48-112 95-153 143-30 35-52 70-67 96 3 26 4 51 2 76zm-24-33c-4 7-5 10-6 12l9-33c5-24 9-49 13-74l2 16c3-14 5-27 6-40 4-44-2-89-8-133-10 60-20 121-31 163-12 42-24 66-38 95-8 16-16 33-25 51-1 23-2 45-3 66-2 28-2 53-5 75s-8 41-13 61c16-34 31-67 46-96 14-29 26-53 38-96 5-19 10-42 15-67zm-90 61c2-7 3-13 4-20 3-22 3-47 5-74 1-27 3-57 4-86-19 34-38 69-51 99l36-48c-13 30-27 60-36 89-9 28-14 55-17 89-4 35-5 77-7 118 5-27 10-55 22-87 10-25 25-52 40-80zm-59-51c1-20 2-39 4-56 3-34 8-61 17-90 9-28 23-58 36-88-37 49-73 98-94 128-21 29-25 38-29 47 0-34 0-68 2-95-13 27-26 54-35 87-8 33-11 71-15 110 9-20 17-39 27-57 10-19 22-36 34-54-5 19-9 39-11 66-2 28-2 64-2 100 4-9 8-18 29-48 9-13 22-31 37-50zm2521-1611h18c-16 12-29 20-42 28l24-28zm-1814 1609l1-19-11 28 5-4 5-5zm-1251 2809c-2 6-5 12-7 18 8-7 18-14 30-18 18-7 39-7 54 1 15 7 24 22 25 41 1 18-6 40-18 62-12 21-29 43-43 55s-25 16-35 13-20-13-24-32c-5-20-4-48-4-68v-5c-14 50-18 92-18 128-1 37 1 68 9 95 8 28 21 52 36 71 15 18 33 31 55 39 21 7 47 10 71 5 18-3 36-12 53-23 18-6 35-16 51-31 25-24 46-60 61-100 15-39 25-83 30-123s6-76 3-107c-4-30-12-55-22-75-9-20-19-35-37-48l-1-1c21-5 41-8 57-11 43-7 68-7 81-7s13 0 9 5c-3 6-9 16-13 28-4 11-6 24-5 43 2 19 7 45 12 82s11 84 14 127 4 81-12 138-50 133-108 181-141 69-201 80c-61 12-100 14-127 13-28 0-45-3-53-5-9-2-9-2-18 4-8 5-26 15-50 35-23 19-53 47-82 76 22-33 44-65 59-109 14-44 22-100 22-163 1-63-6-134-2-188 4-53 17-89 46-127 25-34 61-70 102-99zm1437-2364c-24 21-46 43-67 62-24 23-45 44-66 65 28-5 55-10 85-18s64-19 98-37c13-6 25-14 38-22l-3 1c37-29 75-57 106-86 31-28 55-58 79-87-36 26-71 52-106 71-34 18-68 28-98 36-24 6-45 11-66 15zm126 38c-10 10-19 21-29 32 28-16 57-32 85-50 30-18 61-39 91-60-38 23-75 46-107 61-14 7-28 12-40 17zm-32 35c-6 5-11 10-17 16-31 29-68 57-106 85 25-7 50-15 81-30 32-15 70-38 107-61-30 21-61 42-91 61s-61 35-91 52c33 0 65 0 116-11 35-9 80-22 128-38 28-28 55-54 80-75 36-31 65-50 94-68-69 23-138 46-188 57s-82 12-113 12zm124 97c-10 8-20 16-31 26-36 30-79 73-122 116 33-16 67-31 105-49 37-18 79-38 121-58-19 18-38 36-61 57s-50 45-77 69c20-12 40-23 74-42 26-15 60-34 96-54 26-24 50-46 70-65 37-35 59-57 81-78-49 27-98 54-133 73-35 20-54 31-74 43 27-24 54-48 77-69s42-39 61-57c-42 20-84 40-122 58-23 11-44 21-65 30zm62 123h-1c-36 35-87 82-139 129 43-9 86-19 129-25 43-5 86-7 129-10-28 10-55 19-77 28s-38 17-55 26c30 0 61 0 99 2 38 3 84 8 130 14-44 6-88 12-115 18-27 7-38 13-48 19 21 6 42 13 69 14 28 1 63-3 97-8-21 14-42 28-68 46s-57 41-89 64c14-6 27-12 59-24 31-11 80-28 129-45-10 9-20 17-39 32-18 15-44 37-70 59 4 0 8 0 23 1 15 0 41 1 68 2-9 5-17 9-33 20-15 11-39 28-62 46 30-1 59-2 85-3 25-1 47-2 69-3-24 15-48 29-71 46-24 17-47 36-70 54 20-3 40-6 62-11s46-13 70-20c-12 9-23 19-42 33s-45 33-71 52c42-9 84-17 120-27 36-11 66-23 96-36-17 17-35 33-55 48-19 15-40 27-61 40 22-5 44-11 67-18 22-8 45-19 68-29-14 13-29 27-46 39s-35 23-54 33c24-4 48-8 101-14 22-2 49-5 78-8 14-6 56-14 98-23 40-20 79-40 85-45 5-5-24 4-70 11-45 6-107 9-169 12 56-15 111-29 163-44 52-16 100-31 148-47-83 7-166 15-219 21-53 5-77 9-101 14 18-11 37-21 54-33s31-26 46-40c-23 11-46 21-68 29-23 8-45 13-67 19 21-13 42-26 61-40 20-15 37-32 55-48-30 12-60 25-96 35-37 11-78 19-120 27 26-18 52-37 71-51s30-24 42-33c-24 7-48 14-70 20-22 5-42 8-62 11 23-19 46-38 69-54 24-17 48-32 72-46-22 1-44 2-69 3-26 1-55 2-85 3 23-18 46-36 62-47s24-15 32-19c-26-1-52-2-67-3h-24c27-22 53-44 71-59s29-24 39-32c-49 17-98 33-129 45-32 11-45 18-59 24 31-23 63-46 89-64 26-19 47-32 68-46-35 4-69 8-97 7s-48-7-69-13c10-6 21-13 48-19s71-13 115-19c-46-5-92-10-130-13-39-3-69-3-99-3 16-8 33-16 55-25s49-18 77-28c-43 2-86 4-129 10-35 5-69 12-103 19zm551 595c-24 7-50 15-76 23-52 15-107 30-163 44 62-3 124-6 169-12 25-3 45-8 57-10 25-11 54-23 83-35-19-4-38-8-70-10zm567-1558c-19 3-39 8-58 12 36-19 72-38 116-54 32-13 67-24 104-35 22 0 43 1 64 3-53 14-105 27-150 43-28 10-52 20-76 31zm152-93c-21-1-43 0-66 4-41 8-87 28-132 49 52-26 104-51 148-72 38-18 69-33 106-47 22-5 45-10 68-14 49-7 100-8 152-9-57 15-114 29-160 44-43 14-76 28-116 45zm203-120c-45 0-90 1-133 6-50 6-97 18-144 30 57-24 113-48 172-68 60-19 123-34 205-42 6 0 13-1 20-2 50 3 102 8 153 15 65 8 128 19 192 30-104-1-208-2-293 4-67 5-122 14-172 27zm121-127c-46-6-93-10-138-12-65-2-128 2-191 6 68-24 136-48 200-62 63-14 122-18 181-22-29-4-59-8-105-11-47-4-112-6-125-15s24-24 102-34c61-9 146-15 237-20-71 24-113 45-156 66 62-1 124-3 187 1 63 3 126 11 189 19-123 4-247 8-328 17s-119 23-106 31 75 10 120 12 74 6 102 9c-55 2-110 5-169 15zm195-181c-50-7-100-13-150-17-65-5-129-5-194-5 50-26 100-53 199-87 47-15 105-32 168-50l1-1c65-18 136-37 208-56l15-3c83-15 177-22 271-30-113 37-227 73-301 99-74 27-109 44-144 61 74-8 147-16 207-19 59-3 105-2 151-1-156 36-311 73-414 104-6 2-11 3-17 5zm112-218h-3c-58 5-129 14-199 24 36-16 72-32 149-57 65-21 159-48 258-76-20 8-39 17-58 26-53 25-101 53-147 83zm238-123c-84 9-167 18-240 34-80 16-148 40-217 65 78-49 156-97 246-136 49-22 101-40 155-58-56 20-102 39-149 58 95-11 189-23 255-28 67-5 106-4 145-4-67 23-133 45-195 69zm83-138c-37 0-74 0-137 6-64 7-155 20-246 34 68-26 137-51 234-78 52-14 113-29 177-44 23 2 46 2 67 3 74 3 129 4 183 6-98 24-195 49-278 73zm-4-123c-67-1-147-4-226-6 151-24 302-48 409-69 56-11 100-21 137-31 13-1 27-1 41-2 27-1 57 0 88 1-60 19-119 37-222 61-63 14-142 30-227 46zm385-130c-20 0-39 0-57 1-25 1-47 4-68 7 35-7 69-14 111-31 21-9 45-21 69-35 8-1 17-3 26-5 22-5 43-13 64-20-46 29-92 58-132 77-5 2-9 4-13 6zm-1905 2947l17-21c-13 6-25 13-37 21h20zm-28 0c5-5 11-10 16-15 12-9 24-16 36-23-22 5-43 10-63 15-39 9-72 17-104 26 28-1 56-2 88-3h27zm84-54l1-1h-7l6 1zm1939-3041l-10 3c27-25 54-49 84-78-27 26-50 51-74 75zm-6366 7692zm-812-1051c0 7-1 14-3 32s-4 47-7 75l5-14c1-24 2-47 3-63s2-23 2-30zm9 61c-1 8-3 16-6 26-4 15-10 32-16 50 13-9 25-17 38-26-3 4-5 9-7 13l-3 6c3-3 6-6 9-10 2-3 4-8 6-12s5-8 7-12c-13 9-27 18-40 28 6-17 11-34 14-47 4-14 5-24 7-35-3 6-6 11-9 19zm6 69c-2 3-3 5-5 7-2 4-6 7-9 11 8-2 17-5 27-6 8-1 18-1 28-2l1-1c10-9 15-15 20-20-12 1-24 2-34 4-11 2-19 4-28 7zm15 41c-9 8-20 18-30 28 7-2 15-4 24-7 7-2 15-4 23-6l19-19c5-5 8-9 11-12-11 4-23 8-32 11l-15 5zm24 14l-11 11-21 21c10-2 20-3 22 1 2 5-6 17-13 28 7-2 13-4 25-7 4-1 10-2 16-4 10-5 19-11 27-17 11-8 21-17 30-25-17 4-34 8-46 12-12 3-19 6-26 8 7-11 14-22 12-26-2-3-8-3-15-2zm921 192c5 0 9 1 13 2 7 3 13 8 19 13-3-7-6-14-12-24-7-9-17-20-28-31 9 1 19 3 34 7s37 11 59 18c-6-11-13-21-24-33-7-6-15-13-24-20-12-5-23-9-32-12-16-6-25-8-35-10 10 10 20 20 26 28 7 9 9 15 12 22-7-6-13-11-20-15-8-3-17-4-26-5 12 13 23 26 30 37 5 8 7 16 8 23zm32-97c9-8 19-15 31-19 18-7 41-6 64-6-16-9-32-18-44-23-6-2-11-4-15-5-7 0-13 1-19 3-19 5-33 17-48 29 11 7 22 14 31 21zm64-60l10-2c-8-5-16-11-22-15l-37 1c7 1 15 2 26 6 7 2 14 6 23 10zm-11-27l31-3c1-6 3-12 3-24 0-13-2-32-1-50 0-18 4-35 7-52-4 16-8 32-9 48-2 17 0 35 0 46 0 12-3 17-5 22-16 1-32 1-48 2 4 1 8 3 14 6 2 2 5 3 8 5z"/>
</svg>
