<?xml version="1.0" encoding="UTF-8"?>
<!DOCTYPE svg  PUBLIC '-//W3C//DTD SVG 1.1//EN'  'http://www.w3.org/Graphics/SVG/1.1/DTD/svg11.dtd'>
<svg width="297mm" height="210mm" clip-rule="evenodd" fill-rule="evenodd" image-rendering="optimizeQuality" shape-rendering="geometricPrecision" text-rendering="geometricPrecision" version="1.1" viewBox="0 0 29700 21000" xml:space="preserve" xmlns="http://www.w3.org/2000/svg">
 <defs>
  <style type="text/css">
   <![CDATA[
    .fil82 {fill:#1C1B17}
    .fil24 {fill:#2F2F34}
    .fil56 {fill:#363435}
    .fil3 {fill:#413F40}
    .fil25 {fill:#464344}
    .fil4 {fill:#464444}
    .fil27 {fill:#4B4849}
    .fil2 {fill:#4B494A}
    .fil60 {fill:#504D4C}
    .fil31 {fill:#514F4F}
    .fil1 {fill:#575555}
    .fil50 {fill:#585657}
    .fil28 {fill:#595858}
    .fil41 {fill:#5E5D5D}
    .fil47 {fill:#5F5F5F}
    .fil26 {fill:#615F5F}
    .fil70 {fill:#615F62}
    .fil36 {fill:#636362}
    .fil5 {fill:#6A6A6A}
    .fil30 {fill:#6C6B6B}
    .fil43 {fill:#6F6E6E}
    .fil80 {fill:#727172}
    .fil6 {fill:#737272}
    .fil35 {fill:#7D7C7C}
    .fil21 {fill:#807E7E}
    .fil65 {fill:#817F79}
    .fil51 {fill:#827F7B}
    .fil46 {fill:#848282}
    .fil20 {fill:#888686}
    .fil14 {fill:#909091}
    .fil64 {fill:#939089}
    .fil13 {fill:#949493}
    .fil23 {fill:#979695}
    .fil45 {fill:#9E9D9B}
    .fil62 {fill:#A29F98}
    .fil12 {fill:#A3A29F}
    .fil16 {fill:#A8A5A2}
    .fil42 {fill:#A8A7A7}
    .fil63 {fill:#ABA69D}
    .fil54 {fill:#AFABA3}
    .fil17 {fill:#AFAEAD}
    .fil11 {fill:#B4B0AB}
    .fil15 {fill:#B5B3B0}
    .fil61 {fill:#B7B1A5}
    .fil55 {fill:#B9B4AA}
    .fil49 {fill:#B9B5A9}
    .fil39 {fill:#BBB8B0}
    .fil18 {fill:#C0BCB2}
    .fil53 {fill:#C2BDAF}
    .fil58 {fill:#C3BCAC}
    .fil66 {fill:#C4BDAD}
    .fil72 {fill:#C4BEAE}
    .fil19 {fill:#CAC3B3}
    .fil8 {fill:#CCC4B3}
    .fil48 {fill:#D0C8B3}
    .fil57 {fill:#D5CBB2}
    .fil34 {fill:#D5D2CA}
    .fil29 {fill:#D5D5D7}
    .fil37 {fill:#D7CFBB}
    .fil7 {fill:#DACFB5}
    .fil69 {fill:#DED6B7}
    .fil9 {fill:#DFD5BE}
    .fil44 {fill:#E0DBCD}
    .fil32 {fill:#E1E1E1}
    .fil40 {fill:#E3D5AE}
    .fil0 {fill:#E9DBBB}
    .fil68 {fill:#EAE1CA}
    .fil33 {fill:#EAE3D4}
    .fil59 {fill:#EBDBBA}
    .fil52 {fill:#EEE8D5}
    .fil38 {fill:#F0EADB}
    .fil67 {fill:#F8F1DF}
    .fil10 {fill:#FFF9E6}
    .fil22 {fill:#FFFBF3}
    .fil71 {fill:#444140}
    .fil81 {fill:#4E4A49}
    .fil79 {fill:#6C6B6A}
    .fil75 {fill:#82807A}
    .fil74 {fill:#A39E95}
    .fil77 {fill:#B1AA9E}
    .fil73 {fill:#B3AEA2}
    .fil78 {fill:#C0B7A0}
    .fil76 {fill:#CEC6B4}
   ]]>
  </style>
      <mask id="ce">
  <linearGradient id="cf" x1="10902" x2="13525" y1="8981.2" y2="10024" gradientUnits="userSpaceOnUse">
   <stop stop-color="#fff" offset="0"/>
   <stop stop-color="#fff" stop-opacity="0" offset="1"/>
  </linearGradient>
       <rect x="10910" y="8535" width="2607" height="1936" fill="url(#cf)"/>
      </mask>
      <mask id="cr">
  <linearGradient id="dc" x1="11392" x2="9759.8" y1="9459.6" y2="9278.9" gradientUnits="userSpaceOnUse">
   <stop stop-color="#fff" offset="0"/>
   <stop stop-color="#fff" stop-opacity="0" offset="1"/>
  </linearGradient>
       <rect x="9521" y="8535" width="2111" height="1669" fill="url(#dc)"/>
      </mask>
      <mask id="bi">
  <linearGradient id="bt" x1="11635" x2="11892" y1="8684.6" y2="7137.1" gradientUnits="userSpaceOnUse">
   <stop stop-color="#fff" offset="0"/>
   <stop stop-color="#fff" stop-opacity="0" offset="1"/>
  </linearGradient>
       <rect x="10985" y="7164" width="1557" height="1493" fill="url(#bt)"/>
      </mask>
      <mask id="cc">
  <linearGradient id="cd" x1="10121" x2="8810.1" y1="9496.9" y2="9822.7" gradientUnits="userSpaceOnUse">
   <stop stop-color="#fff" offset="0"/>
   <stop stop-color="#fff" stop-opacity="0" offset="1"/>
  </linearGradient>
       <rect x="8791" y="9116" width="1349" height="1087" fill="url(#cd)"/>
      </mask>
      <mask id="ck">
  <linearGradient id="dl" x1="13068" x2="14535" y1="9776.8" y2="10175" gradientUnits="userSpaceOnUse">
   <stop stop-color="#fff" offset="0"/>
   <stop stop-color="#fff" stop-opacity="0" offset="1"/>
  </linearGradient>
       <rect x="12753" y="9303" width="2096" height="1345" fill="url(#dl)"/>
      </mask>
      <mask id="cg">
  <linearGradient id="ch" x1="12676" x2="14680" y1="10593" y2="12694" gradientUnits="userSpaceOnUse">
   <stop stop-color="#fff" offset="0"/>
   <stop stop-color="#fff" stop-opacity="0" offset="1"/>
  </linearGradient>
       <rect x="12753" y="10345" width="1849" height="2597" fill="url(#ch)"/>
      </mask>
      <mask id="ci">
  <linearGradient id="cj" x1="11377" x2="12633" y1="10447" y2="13363" gradientUnits="userSpaceOnUse">
   <stop stop-color="#fff" offset="0"/>
   <stop stop-color="#fff" stop-opacity="0" offset="1"/>
  </linearGradient>
       <rect x="10776" y="10470" width="2458" height="2870" fill="url(#cj)"/>
      </mask>
      <mask id="cl">
  <linearGradient id="cm" x1="10595" x2="9544" y1="11151" y2="13153" gradientUnits="userSpaceOnUse">
   <stop stop-color="#fff" offset="0"/>
   <stop stop-color="#fff" stop-opacity="0" offset="1"/>
  </linearGradient>
       <rect x="9362" y="11165" width="1414" height="1975" fill="url(#cm)"/>
      </mask>
      <mask id="cn">
  <linearGradient id="co" x1="9520.7" x2="8403.5" y1="11049" y2="11717" gradientUnits="userSpaceOnUse">
   <stop stop-color="#fff" offset="0"/>
   <stop stop-color="#fff" stop-opacity="0" offset="1"/>
  </linearGradient>
       <rect x="8403" y="10203" width="1118" height="2359" fill="url(#co)"/>
      </mask>
      <mask id="cp">
  <linearGradient id="cq" x1="11102" x2="11196" y1="12217" y2="14077" gradientUnits="userSpaceOnUse">
   <stop stop-color="#fff" offset="0"/>
   <stop stop-color="#fff" stop-opacity="0" offset="1"/>
  </linearGradient>
       <rect x="10424" y="12073" width="1449" height="2147" fill="url(#cq)"/>
      </mask>
      <mask id="cs">
  <linearGradient id="ct" x1="12080" x2="12834" y1="12389" y2="14206" gradientUnits="userSpaceOnUse">
   <stop stop-color="#fff" offset="0"/>
   <stop stop-color="#fff" stop-opacity="0" offset="1"/>
  </linearGradient>
       <rect x="12043" y="12382" width="829" height="1830" fill="url(#ct)"/>
      </mask>
      <mask id="cu">
  <linearGradient id="cv" x1="13355" x2="13643" y1="12899" y2="14293" gradientUnits="userSpaceOnUse">
   <stop stop-color="#fff" offset="0"/>
   <stop stop-color="#fff" stop-opacity="0" offset="1"/>
  </linearGradient>
       <rect x="13198" y="12916" width="602" height="1360" fill="url(#cv)"/>
      </mask>
      <mask id="cw">
  <linearGradient id="cx" x1="9882.4" x2="9831.3" y1="12444" y2="13990" gradientUnits="userSpaceOnUse">
   <stop stop-color="#fff" offset="0"/>
   <stop stop-color="#fff" stop-opacity="0" offset="1"/>
  </linearGradient>
       <rect x="9605" y="12436" width="504" height="1563" fill="url(#cx)"/>
      </mask>
      <mask id="cy">
  <linearGradient id="cz" x1="9176.5" x2="8864" y1="12404" y2="13646" gradientUnits="userSpaceOnUse">
   <stop stop-color="#fff" offset="0"/>
   <stop stop-color="#fff" stop-opacity="0" offset="1"/>
  </linearGradient>
       <rect x="8787" y="12395" width="466" height="1260" fill="url(#cz)"/>
      </mask>
      <mask id="da">
  <linearGradient id="db" x1="8795.9" x2="8097.4" y1="12042" y2="13158" gradientUnits="userSpaceOnUse">
   <stop stop-color="#fff" offset="0"/>
   <stop stop-color="#fff" stop-opacity="0" offset="1"/>
  </linearGradient>
       <rect x="8163" y="11781" width="567" height="1637" fill="url(#db)"/>
      </mask>
      <mask id="dd">
  <linearGradient id="de" x1="14177" x2="15130" y1="12330" y2="14085" gradientUnits="userSpaceOnUse">
   <stop stop-color="#fff" offset="0"/>
   <stop stop-color="#fff" stop-opacity="0" offset="1"/>
  </linearGradient>
       <rect x="14145" y="12162" width="1018" height="2091" fill="url(#de)"/>
      </mask>
      <mask id="df">
  <linearGradient id="dg" x1="12601" x2="13512" y1="8426.4" y2="7817.3" gradientUnits="userSpaceOnUse">
   <stop stop-color="#fff" offset="0"/>
   <stop stop-color="#fff" stop-opacity="0" offset="1"/>
  </linearGradient>
       <rect x="12417" y="7538" width="1279" height="1169" fill="url(#dg)"/>
      </mask>
      <mask id="dh">
  <linearGradient id="di" x1="11372" x2="10804" y1="8007.8" y2="7833.3" gradientUnits="userSpaceOnUse">
   <stop stop-color="#fff" offset="0"/>
   <stop stop-color="#fff" stop-opacity="0" offset="1"/>
  </linearGradient>
       <rect x="10610" y="7408" width="955" height="1025" fill="url(#di)"/>
      </mask>
      <mask id="dj">
  <linearGradient id="dk" x1="9824.7" x2="10030" y1="13446" y2="15326" gradientUnits="userSpaceOnUse">
   <stop stop-color="#fff" offset="0"/>
   <stop stop-color="#fff" stop-opacity="0" offset="1"/>
  </linearGradient>
       <rect x="9203" y="13333" width="1449" height="2106" fill="url(#dk)"/>
      </mask>
      <mask id="bg">
  <linearGradient id="bh" x1="13078" x2="13078" y1="13964" y2="15749" gradientUnits="userSpaceOnUse">
   <stop stop-color="#fff" offset="0"/>
   <stop stop-color="#fff" stop-opacity="0" offset="1"/>
  </linearGradient>
       <rect x="11881" y="13711" width="2393" height="2290" fill="url(#bh)"/>
      </mask>
      <mask id="bj">
  <linearGradient id="bk" x1="11815" x2="11615" y1="13846" y2="15756" gradientUnits="userSpaceOnUse">
   <stop stop-color="#fff" offset="0"/>
   <stop stop-color="#fff" stop-opacity="0" offset="1"/>
  </linearGradient>
       <rect x="10565" y="13617" width="2300" height="2368" fill="url(#bk)"/>
      </mask>
      <mask id="bl">
  <linearGradient id="bm" x1="13446" x2="15516" y1="9070.6" y2="9412.2" gradientUnits="userSpaceOnUse">
   <stop stop-color="#fff" offset="0"/>
   <stop stop-color="#fff" stop-opacity="0" offset="1"/>
  </linearGradient>
       <rect x="13421" y="8346" width="2120" height="1791" fill="url(#bm)"/>
      </mask>
      <mask id="bn">
  <linearGradient id="bo" x1="10857" x2="9778.8" y1="8376" y2="8359.4" gradientUnits="userSpaceOnUse">
   <stop stop-color="#fff" offset="0"/>
   <stop stop-color="#fff" stop-opacity="0" offset="1"/>
  </linearGradient>
       <rect x="9784" y="8015" width="1068" height="705" fill="url(#bo)"/>
      </mask>
      <mask id="bp">
  <linearGradient id="bq" x1="12157" x2="12646" y1="7787.2" y2="5711.6" gradientUnits="userSpaceOnUse">
   <stop stop-color="#fff" offset="0"/>
   <stop stop-color="#fff" stop-opacity="0" offset="1"/>
  </linearGradient>
       <rect x="11229" y="5751" width="2345" height="1996" fill="url(#bq)"/>
      </mask>
      <mask id="br">
  <linearGradient id="bs" x1="12714" x2="13834" y1="5113.9" y2="2879.3" gradientUnits="userSpaceOnUse">
   <stop stop-color="#fff" offset="0"/>
   <stop stop-color="#fff" stop-opacity="0" offset="1"/>
  </linearGradient>
       <rect x="12049" y="3057" width="2449" height="1880" fill="url(#bs)"/>
      </mask>
      <mask id="bu">
  <linearGradient id="bv" x1="15548" x2="16550" y1="10758" y2="12500" gradientUnits="userSpaceOnUse">
   <stop stop-color="#fff" offset="0"/>
   <stop stop-color="#fff" stop-opacity="0" offset="1"/>
  </linearGradient>
       <rect x="14998" y="10003" width="2102" height="3251" fill="url(#bv)"/>
      </mask>
      <mask id="bw">
  <linearGradient id="bx" x1="12360" x2="11372" y1="4226.6" y2="3647.8" gradientUnits="userSpaceOnUse">
   <stop stop-color="#fff" offset="0"/>
   <stop stop-color="#fff" stop-opacity="0" offset="1"/>
  </linearGradient>
       <rect x="11028" y="3189" width="1676" height="1496" fill="url(#bx)"/>
      </mask>
      <mask id="by">
  <linearGradient id="bz" x1="14264" x2="16913" y1="4003.4" y2="3598.1" gradientUnits="userSpaceOnUse">
   <stop stop-color="#fff" offset="0"/>
   <stop stop-color="#fff" stop-opacity="0" offset="1"/>
  </linearGradient>
       <rect x="14289" y="3068" width="2600" height="1466" fill="url(#bz)"/>
      </mask>
    <mask id="ca">
  <linearGradient id="cb" x1="12830" x2="18390" y1="15149" y2="16550" gradientUnits="userSpaceOnUse">
   <stop stop-color="#fff" offset="0"/>
   <stop stop-color="#fff" stop-opacity="0" offset="1"/>
  </linearGradient>
     <rect x="11987" y="12968" width="7245" height="5764" fill="url(#cb)"/>
    </mask>
 </defs>
  <rect class="fil0" x="4350" width="21000" height="21000"/>
      <polygon class="fil1" points="10215 10624 10585 9678 9521 10203"/>
      <polygon class="fil2" points="10215 10624 9521 10203 9494 11165"/>
      <polygon class="fil3" points="10215 10624 9494 11165 10776 12073"/>
      <polygon class="fil4" points="10215 10624 10776 12073 12139 11406"/>
      <path class="fil5" d="m10215 10624c60-60 695-955 695-955l-325 9-370 946z"/>
      <path class="fil6" d="m10910 9669s-635 895-695 955l2539-154-1844-801z"/>
      <polygon class="fil1" points="12754 10470 10215 10624 12139 11406"/>
      <polygon class="fil1" points="10215 10624 10585 9678 9521 10203"/>
      <polygon class="fil2" points="10215 10624 9521 10203 9494 11165"/>
      <polygon class="fil3" points="10215 10624 9494 11165 10776 12073"/>
      <polygon class="fil4" points="10215 10624 10776 12073 12139 11406"/>
      <path class="fil5" d="m10215 10624c60-60 695-955 695-955l-325 9-370 946z"/>
      <path class="fil6" d="m10910 9669s-635 895-695 955l2539-154-1844-801z"/>
      <polygon class="fil1" points="12754 10470 10215 10624 12139 11406"/>
     <polygon class="fil7" points="10995 8535 11631 8647 12524 8535 12417 7747 13165 6717 12371 7053 12524 6097 11923 6979 11596 6511 11556 7647"/>
     <polygon class="fil8" points="11631 8647 10995 8535 9953 8762 8746 9289 10140 9116 9158 9824 9521 10203 10585 9678"/>
     <polygon class="fil9" points="11631 8647 10910 9669 12754 10470 13860 9918 13432 9303 15617 9343 12524 8535"/>
     <polygon class="fil10" points="10910 9669 11631 8647 10585 9678"/>
     <polygon class="fil11" points="9521 10203 9158 9824 10140 9116 9018 9444 8243 10232 8950 10285"/>
     <polygon class="fil12" points="9521 10203 8950 10285 7942 11073 8937 10766 8282 11340 7822 12910 8107 12556 8730 11781 8550 12703 8648 13217 8683 13398 8721 13320 9171 12396 9494 11165"/>
     <polygon class="fil13" points="8730 11781 8107 12556 8263 13378 8476 13738 8648 13217 8550 12703"/>
     <polygon class="fil14" points="9171 12396 8721 13320 8804 13678 9058 14032 9289 13506"/>
     <polygon class="fil15" points="9171 12396 9289 13506 9370 14258 9564 13333 9605 13137 9892 12436 10017 13719 10171 14004 10340 14319 10394 13948 10480 13358 10776 12073 9494 11165"/>
     <polygon class="fil16" points="9605 13137 9564 13333 9579 13912 9746 14353 9846 13859 10033 14353 10171 14004 10017 13719 9892 12436"/>
     <polygon class="fil17" points="10776 12073 10480 13358 10394 13948 10754 14460 10963 13617 11308 14500 11516 14020 11823 14440 11939 14225 11201 13371"/>
     <polygon class="fil18" points="10776 12073 11201 13371 11939 14225 12179 14503 12111 13930 12043 13358 12176 12382 12711 13344 12990 13957 13058 14106 13123 13898 13432 12917 13085 11327 12754 10470 12139 11406"/>
     <polygon class="fil19" points="13085 11327 13432 12917 13904 14260 13960 14420 14055 14041 14294 13084 14167 12162 15293 13039 15403 13124 14929 11608 14120 11093 15456 11267 14335 10648 13786 10345 12754 10470"/>
     <polygon class="fil12" points="12711 13344 12176 12382 12043 13358 12111 13930 12290 13712 12684 14600 12990 13957"/>
     <polygon class="fil20" points="13432 12917 13123 13898 13332 14552 13559 14373 13646 14687 13904 14260"/>
     <polygon class="fil21" points="14294 13084 14055 14041 14328 14500 14428 14787 14775 14326 14955 13498 15102 14052 15142 14426 15303 13718 15293 13039 14167 12162"/>
     <polygon class="fil11" points="14335 10648 15116 10626 16244 10880 14848 9744 13432 9303 13860 9918 12754 10470 13786 10345"/>
     <polygon class="fil22" points="13517 8994 12524 8535 11631 8647 10910 9669 12754 10470 12267 9562 13436 9669 12588 8974" mask="url(#ce)"/>
     <polygon class="fil10" points="10995 8535 10361 8814 10816 8926 9786 9535 10514 9412 9693 9949 9521 10203 10585 9678 11631 8647" mask="url(#cr)"/>
     <polygon class="fil10" points="10995 8535 11730 7966 11723 7211 11954 7612 12532 7174 12024 8006 12524 8535 11631 8647" mask="url(#bi)"/>
     <polygon class="fil13" points="10140 9116 8791 9833 9042 10020 8818 10133 9521 10203 9158 9824" mask="url(#cc)"/>
     <polygon class="fil23" points="14849 10033 13432 9303 13860 9918 12754 10470 13786 10345 14335 10648 14636 10640 14245 10341" mask="url(#ck)"/>
     <polygon class="fil10" points="13222 11956 13854 12942 13601 11366 14075 11927 13794 11239 14602 12094 13714 10718 14395 10832 13786 10345 12754 10470 13085 11327" mask="url(#cg)"/>
     <polygon class="fil10" points="10776 12073 11483 13296 11463 12582 11854 13340 12051 11997 12779 12705 12989 13166 12943 12244 12649 11499 13234 12009 13222 11956 13085 11327 12754 10470 12139 11406" mask="url(#ci)"/>
     <polygon class="fil10" points="9494 11165 9363 12191 9396 13022 9697 12254 10024 11954 10077 12829 10164 13139 10776 12073" mask="url(#cl)"/>
     <polygon class="fil18" points="9315 10535 8704 11240 8403 11834 9051 11346 8834 12155 9095 11710 8971 12562 9171 12396 9494 11165 9521 10203 8950 10285 8711 10678" mask="url(#cn)"/>
     <polygon class="fil24" points="11570 13798 11791 14220 11873 14149 11570 13798 11201 13371 10776 12073 10480 13358 10425 13737 10516 13835 10674 14005 10732 13730 10887 12988 11136 13743 11169 13841 11211 13798 11296 13711 11358 13904 11386 13992 11423 13952" mask="url(#cp)"/>
     <polygon class="fil24" points="12077 13644 12338 13414 12722 14212 12871 13695 12711 13344 12176 12382 12043 13358" mask="url(#cs)"/>
     <polygon class="fil24" points="13198 13661 13396 14216 13603 13979 13714 14276 13800 13963 13432 12917" mask="url(#cu)"/>
     <polygon class="fil24" points="9605 13137 9709 13852 9796 13521 9867 13394 10020 13999 10109 13889 10017 13719 9892 12436" mask="url(#cw)"/>
     <polygon class="fil24" points="8788 13184 8925 13531 9065 13655 9253 13166 9171 12396" mask="url(#cy)"/>
     <polygon class="fil24" points="8163 12486 8330 13097 8582 13418 8648 13217 8550 12703 8730 11781" mask="url(#da)"/>
     <polygon class="fil24" points="14145 13680 14492 14012 14645 14253 14779 13217 14525 12716 15020 13164 15160 13525 15162 12937 14167 12162 14294 13084" mask="url(#dd)"/>
      <polygon class="fil25" points="16276 7855 15920 7884 15652 8235 15172 8440 14517 8355 14072 7901 14000 7355 14464 7012 15140 6946 15698 7280 16119 7631"/>
      <polygon class="fil26" points="14464 7012 14902 7575 15140 6946"/>
      <polygon class="fil1" points="14000 7355 14902 7575 14464 7012"/>
      <polygon class="fil27" points="14000 7355 14072 7901 14902 7575"/>
      <polygon class="fil28" points="15140 6946 15698 7280 14902 7575"/>
      <polygon class="fil25" points="14000 7355 14593 7179 14464 7012"/>
      <polygon class="fil25" points="14464 7012 14593 7179 15047 7192 15078 7111 15140 6946 14755 6984"/>
      <polygon class="fil25" points="15078 7111 15047 7192 15484 7360 15601 7317 15698 7280 15140 6946"/>
      <polygon class="fil25" points="15601 7317 15484 7360 15920 7884 16276 7855 16119 7631 15868 7422 15698 7280"/>
      <polygon class="fil29" points="14344 7253 14651 7474 14593 7179"/>
      <polygon class="fil29" points="14593 7179 14822 7354 14827 7186"/>
      <polygon class="fil25" points="9330 7458 9602 7508 9785 7831 10141 8042 10650 8015 11021 7656 11111 7189 10776 6859 10261 6753 9810 7003 9465 7275"/>
      <polygon class="fil4" points="10217 7398 10776 6859 11111 7189"/>
      <polygon class="fil30" points="9810 7003 10217 7398 10261 6753"/>
      <polygon class="fil1" points="10261 6753 10776 6859 10217 7398"/>
      <polygon class="fil31" points="9465 7275 10217 7398 9810 7003"/>
      <polygon class="fil3" points="9602 7508 9724 7318 9465 7275 9330 7458"/>
      <polygon class="fil3" points="9465 7275 9724 7318 9882 7073 9810 7003"/>
      <polygon class="fil3" points="9810 7003 9882 7073 10250 6907 10261 6753"/>
      <polygon class="fil3" points="10261 6753 10250 6907 10673 6959 10776 6859"/>
      <polygon class="fil3" points="10776 6859 10673 6959 11111 7189"/>
      <polygon class="fil32" points="9882 7073 9822 7166 10025 7211 9922 7111 10072 7120 10100 6975"/>
     <polygon class="fil18" points="12944 7406 12417 7747 12524 8535 13421 8770 13754 8506 14422 8428 13754 8166 12958 8411 13305 7988 13726 7760 13170 7699 13648 7276"/>
     <polygon class="fil12" points="10995 8535 11556 7647 11277 7359 11138 7300 11073 7273 11123 7384 11227 7615 11088 7588 11032 7576 11077 7652 11210 7877 10789 7984 10704 8005 10570 8110 10214 8389 10676 8345 10851 8566"/>
     <polygon class="fil33" points="13033 7538 12417 7747 12524 8535 13177 8706 13696 8373 13464 8339 12724 8498 12852 8217 13367 7872 12788 7869" mask="url(#df)"/>
     <polygon class="fil34" points="11556 7647 11230 7418 11324 7655 11160 7646 11272 7894 10879 8005 10620 8217 11004 8156 10851 8423 11129 8322" mask="url(#dh)"/>
     <path class="fil21" d="m9564 13333l-140 667-14 67-39 184 211 409 532 606-1-134-2-394 173 345 145 194 122 162 4-146 10-343 2-79 85-557-258-366-54 371-169-315-138 349-90-237-97-257-69 338-31 156-78-205-89-236-15-579zm-196 913l-31-289-1-10-47-441-85 195 50 196 67 256 47 93z"/>
     <path class="fil24" d="m9564 13333l-140 667-14 67-39 184 211 409 532 606-1-134-2-394 173 345 145 194 122 162 4-146 10-343 2-79 85-557-258-366-54 371-169-315-138 349-90-237-97-257-69 338-31 156-78-205-89-236-15-579zm-196 913l-31-289-1-10-47-441-85 195 50 196 67 256 47 93z" mask="url(#dj)"/>
     <path class="fil24" d="m9336 13947l-47-441-85 195 50 196 26 101 71 82-14-123-1-10zm835 57l-72 183 50 151 93-96 64 32 7-4-142-266zm-228 112l-97-257-69 338-6 30 78 104 71-98 57 101 31-45-65-173zm451-168l-43 295 46-33 103 87 39 149 113-132-258-366zm-970 52l-14 67-11 49h43l145-3 78 152 33-37-30-80-89-236-15-579-140 667z"/>
     <polygon class="fil35" points="12246 15580 12315 15717 12345 15521 12363 15408 12410 15100 12627 14799 12865 15576 13245 16001 13634 15134 13679 15033 13819 14552 13904 14260 13903 14552 13902 14732 13859 14990 13807 15305 14095 14839 14202 14665 14234 14552 14274 14410 14055 14041 13960 14420 13904 14260 13728 14552 13646 14687 13609 14552 13559 14373 13332 14552 13123 13898 13058 14106 12990 13957 12707 14552 12684 14600 12663 14552 12290 13712 12111 13930 12179 14503 11939 14225 11899 14299 11881 14333 11909 14910 12208 15504"/>
     <path class="fil24" d="m13904 14260l-176 292-25 41 32 63 29 86 55-190 85-292zm-914-303l-232 489 154 106 114 210 66-210 70-221 11 221 6 124 64-124 55-108-175-546-65 208-68-149zm-348 547l-352-792-179 218 54 454 20-17 112 111 66-89 78 163 81 168 78-168 14-29 28-19zm-761-171l118 193 97-83 18-15-175-203-40 74-18 34zm1728 219l-50-179-156 123 41 56 19 27 33 175 126-154-13-48z"/>
     <polygon class="fil24" points="12246 15580 12315 15717 12345 15521 12363 15408 12410 15100 12627 14799 12865 15576 13245 16001 13634 15134 13679 15033 13819 14552 13904 14260 13903 14552 13902 14732 13859 14990 13807 15305 14095 14839 14202 14665 14234 14552 14274 14410 14055 14041 13960 14420 13904 14260 13728 14552 13646 14687 13609 14552 13559 14373 13332 14552 13123 13898 13058 14106 12990 13957 12707 14552 12684 14600 12663 14552 12290 13712 12111 13930 12179 14503 11939 14225 11899 14299 11881 14333 11909 14910 12208 15504" mask="url(#bg)"/>
     <path class="fil36" d="m12410 15100l-65 421 44 68 149 223 139-380 173 338 15-194-238-777-217 301zm-1193 278l141-323 96 353 54 198 190 312 22-476 56-231 65 246 138 455 142-206 125-126-38-76-299-594-28-577-58 107-307-420-208 480-345-883-209 843-102-146-85 557-2 79c0 14 72 195 140 362 61 150 119 289 119 289l373 384 20-607z"/>
     <polygon class="fil24" points="10783 14343 10900 14457 11089 14307 11234 14656 11278 14423 10963 13617"/>
     <path class="fil24" d="m11516 14020l-146 337 69 180 92-172s72 165 77 156l97-243-189-258z"/>
     <path class="fil24" d="m12410 15100l-65 421 44 68 149 223 139-380 173 338 15-194-238-777-217 301zm-1193 278l141-323 96 353 54 198 190 312 22-476 56-231 65 246 138 455 142-206 125-126-38-76-299-594-28-577-58 107-307-420-208 480-345-883-209 843-102-146-85 557-2 79c0 14 72 195 140 362 61 150 119 289 119 289l373 384 20-607z" mask="url(#bj)"/>
     <path class="fil37" d="m14422 8428l-668 78-333 264 2196 573-2185-40 1416 441 794 646s-332-533-352-549c-20-17-387-264-387-264l477 26 768 84-587-528-885-337 678 13 898 348-424-418-656-325-655-85-305-9 210 82z"/>
     <path class="fil38" d="m15040 9333l-1608-30 1416 441 483 393-438-426-391-191 184-60 855 27-501-154zm-1619-563l1768 462-440-319-394-134 585-120 421 13-415-207-429-110-305-9 210 82-668 78-333 264z" mask="url(#bl)"/>
     <polygon class="fil39" points="10673 8029 10593 8015 10020 8042 9724 8105 9403 8365 9737 8255 10108 8302 9697 8458 9403 8889 9797 8729 10147 8720 10851 8566 10676 8345 10214 8389 10570 8110"/>
     <polygon class="fil40" points="10147 8720 10851 8566 10676 8345 10214 8389 10295 8325 10570 8110 10673 8029 10593 8015 9979 8111 9784 8186 10093 8221 10295 8325 10041 8413 9829 8605 10203 8605 10337 8679" mask="url(#bn)"/>
     <polygon class="fil20" points="14464 7012 14964 6963 15140 6946 16003 7052 16942 7476 16401 6852 15860 6635 16294 6414 17139 6274 16591 5993 15783 6060 16184 5733 16979 5573 16044 5392 14982 5659 13940 6187 13418 6714 13278 6855 12944 7406 13648 7276 13170 7699 13726 7760 13305 7988 12958 8411 13754 8166 14088 8297 14072 7901 14000 7355"/>
     <polygon class="fil41" points="14517 8355 14072 7901 14088 8297 14212 8346"/>
     <path class="fil42" d="m16591 5993l-808 67-387 321 999-210 744 103-548-281zm-1148-270l781-150h755l-935-181-1062 267-1042 528-522 527-140 141-334 551 704-130-478 423 381 42 132-415 586-604 82-84-130 67-532 277 218-274 233-294 1009-460-448 63 742-294z"/>
     <polygon class="fil43" points="14464 7012 14964 6963 15140 6946 16003 7052 16942 7476 16392 7073 15948 6785 15290 6725 15697 6555 15336 6568 14785 6739 15026 6468 14473 6793 14258 6919 13854 7383 13823 7834 13754 8166 14088 8297 14072 7901 14000 7355"/>
     <path class="fil44" d="m16487 6069l-578 107 486-5 744 103-652-205zm-3083 952l296-311-272 121 88-118 292-393-390 394-140 141-334 551 306-57 154-328zm488-417l248-190 1009-460-448 63-503 174-306 413zm972-740l579-141 781-150h755l-887-123-714 150-514 264z"/>
     <path class="fil18" d="m16470 8334l-818-99-480 205 656 325 424 418-898-348-678-13 885 337 587 528-768-84-477-26s367 247 387 264c20 16 352 549 352 549l602 490-1128-254-480 14-301 8 1121 619-1336-174 809 515 69 223 764 343 427 668 87-728-354-948 728 160 755 548-180-1022-655-848 615 87 941 674-674-1149-835-567 621-74-768-641z"/>
     <path class="fil45" d="m16148 9687l-768-84-477-26s367 247 387 264c20 16 352 549 352 549l602 490-1128-254-480 14-301 8 1121 619-1336-174 809 515 34 111 645 38 505 531-238-831-510-608 708 53 524 231-264-555-357-424 424 231 424 497-251-768-470-628 327 14 601 177-655-662-397-264 334-13 417 37-250-264-828-276-480 205 656 325 424 418-898-348-678-13 885 337 587 528z"/>
     <polygon class="fil46" points="15450 7132 15698 7280 16119 7631 16276 7855 15920 7884 15652 8235 16470 8334 16720 8543 17122 8718 16694 8291 17055 8465 16721 8097 16507 7957 17042 8117 17563 8578 17195 7937 16768 7717 17180 7732 17315 7737 17703 7890 17409 7429 17055 7209 17382 7236 17623 7269 16774 6661 15990 6569 15860 6635 16401 6852 16942 7476 16003 7052 15140 6946"/>
     <polygon class="fil47" points="16942 7476 16003 7052 15140 6946 15450 7132 15698 7280 16119 7631 16276 7855 15920 7884 15652 8235 16312 8315 16253 8154 16156 7967 16293 8040 16597 8187 16444 8014 16344 7790 16684 7753 16233 7503 16500 7496 16611 7493 17095 7630 16905 7346 17198 7463 16577 6771 15982 6684 16401 6852"/>
     <polygon class="fil48" points="11100 6743 11277 7359 11556 7647 11588 6737 11596 6511 11752 6735 11923 6979 12092 6731 12524 6097 12487 6329 12423 6726 12371 7053 13165 6717 12417 7747 12944 7406 13278 6855 13418 6714 13808 6320 13940 6187 14725 5790 14001 5858 13307 6232 13587 5785 13754 5351 13266 5671 12852 5892 12839 5637 12832 5498 12946 4896 12405 5471 12044 6099 11917 5584 11964 5030 11603 5778 11410 6580 11203 6339 11062 5952 11076 6660"/>
     <path class="fil49" d="m12455 6528l-32 198-52 327 794-336-748 1030 437-283 359-640 92-109 269-315-348 63-474 259-3-215 377-558-541 354-130 225zm-859-17l156 224 171 244 169-248 263-385 193-594-364 334-227 541-86-114-21-761-273 531-91 455-26 133-91-131-140-203 8 204 9 246 127 471 183 189 32-910 8-226z" mask="url(#bp)"/>
     <path class="fil20" d="m11100 6743l-24-83-6-290-111-167-381-347-768-274-474 28-361 159 368 43 314 124-532 67-150 20-681 621 726-268 576-33-530 214-450 522 352-156 742-206 445 36 165 30 415 76 376 330-20 91 47 20 139 59-177-616zm-14 559l-77 354-103 298 304-77-133-225-45-76 56 12 139 27-104-231-37-82z"/>
     <polygon class="fil41" points="11004 7672 10650 8015 10606 8018 10673 8029 10704 8005 10789 7984 10906 7954"/>
     <polygon class="fil43" points="10756 6878 11111 7189 11093 7281 11138 7300 11277 7359 11126 6836 11066 6744 10866 6441 10512 6194 10699 6414 10739 6614 10552 6427 10098 6180 9510 6234 9911 6307 10225 6514 9737 6514 9129 6735 8977 6837 8616 7079 8968 6923 9710 6717 10155 6753 10235 6768 10260 6772 10320 6783 10735 6859"/>
     <polygon class="fil43" points="11086 7302 11009 7656 11004 7672 10906 7954 11210 7877 11077 7652 11035 7581 11032 7576 11036 7577 11088 7588 11227 7615 11123 7384 11088 7306"/>
     <path class="fil42" d="m9592 5708l484 78-234 67 435 39 417 184h-284l262 169 194 196 200 303 60 92-26-93-24-83-6-290-111-167-381-347-768-274-474 28-361 159 291-29 326-32zm65 228l-532 67-150 20-681 621 746-481 942-115-325-112z"/>
     <path class="fil44" d="m10541 5917l-264-25 417 184 245 155-398-314zm-1575 177l-672 550 746-481 556-163-509 76-121 18zm626-386l395-5-214-51h-323l-157 39-318 78 291-29 326-32z"/>
     <path class="fil6" d="m8903 7621l199-69-219 278-228 530 198-213 82-88 247-6-187 247-66 367v247l120-180 147-87-87 261 16 215 828-361 194-42-350 9-394 160 294-431 411-156-371-47-334 110 321-260 296-63 112-5-347-206-183-323-272-50 135-183 345-272 345-191 80-44-80-15-445-36-619 172-95 124-41 52-267 346-153 468 280-227 88-31zm740 1557l-454 56 78 137 230-67 146-126z"/>
     <polygon class="fil50" points="9182 6863 9449 6884 9524 6921 9590 6954 9252 7034 8929 7340 8818 7445 8922 7412 9216 7321 9312 7355 9092 7652 8988 7882 9179 7752 9426 7762 9319 7939 9309 8200 9433 8086 9749 8099 10020 8042 10132 8037 9785 7831 9602 7508 9330 7458 9465 7275 9810 7003 10155 6812 10235 6768 10155 6753 9710 6717"/>
     <path class="fil12" d="m9497 9304l643-188-497 62-454 56-443 55 379-166 828-361 194-42-350 9-394 160 294-431 411-156-371-47-334 110 321-260 25-6 271-57 112-5-347-206-466 108-474 296-231 207-393 680 565-262-389 338-387 656 548-243 178-13-316 150-192 295 309-110 481-489 249-73 230-67zm-560 1462l-498 154-190 345c81-28 257-121 257-121l431-378zm13-481l-353-26-216 371 186-45 383-300z"/>
     <path class="fil51" d="m9737 8255l-334 110 321-260 25-6 271-57-476-24-233 124-318 169-163 87-71 38 67-4 147-7 191-9-214 135-143 91-265 168 251-26 136-14 103-10 131-14-233 234-173 196-178 202 131 1 266 2 107 43 184-53 230-67 643-188-1394 173 379-166 828-361 194-42-350 9-394 160 294-431 411-156-371-47zm-874 1346l-298 134-53 23-227 265 191-69 61-21 326-332zm87 684l-353-26-216 371 186-45 383-300zm-13 481l-498 154-190 345c81-28 257-121 257-121l431-378z"/>
     <polygon class="fil7" points="11368 5217 11268 5765 11054 5531 10794 5010 10787 5791 10891 6141 10959 6203 11070 6370 11062 5952 11203 6339 11410 6580 11603 5778 11964 5030 11917 5584 12044 6099 12405 5471 12946 4896 12832 5498 12839 5637 12852 5892 13266 5671 13754 5351 13587 5785 13307 6232 14001 5858 14725 5790 14982 5659 15405 5553 15810 4963 15356 5097 14821 5404 14107 5644 14307 5431 14661 4903 14755 4475 14073 4890 13532 5190 13643 4820 13766 4409 14053 3801 13399 4081 12948 4378 12464 4936 12477 4389 12610 3948 12049 4562 11796 5103 11816 4703 11943 4135 11615 4482"/>
     <polygon class="fil0" points="10938 5899 10983 6239 11070 6370 11062 5952 11203 6339 11410 6580 11603 5778 11964 5030 11917 5584 12044 6099 12405 5471 12946 4896 12832 5498 12839 5637 12852 5892 13266 5671 13754 5351 13587 5785 13307 6232 14001 5858 14725 5790 14982 5659 15061 5639 15119 5454 14344 5762 13693 5919 13973 5748 13699 5772 14043 5361 14491 4817 14277 4987 13820 5254 13245 5541 13319 5264 13376 5018 13406 4890 13193 5153 12981 5359 13035 4937 13382 4489 13015 4693 12487 5181 12260 5595 12270 5398 12370 4997 12233 5191 12053 5565 12083 5100 12303 4596 12003 4917 11786 5328 11756 5231 11766 4696 11656 5294 11575 5732 11525 5662 11529 5374 11372 5869 11318 6116 11105 5852 10931 5555"/>
     <polygon class="fil52" points="12610 3948 12477 4389 12464 4936 12948 4378 13399 4081 14053 3801 13766 4409 13643 4820 13532 5190 14120 4597 14581 3915 14942 3221 14254 3474 13866 3708 14020 3281 14074 2442 13679 3027 13125 3521 12784 3949 12871 3568 12858 2967 12551 3501 11963 4450 11796 5103 12049 4562"/>
     <path class="fil10" d="m12290 4029l-241 533 452-495 170-573-381 535zm1763-228l-287 608-19 64 437-484 314-445-247 144-551 211-285 175 638-273zm-1576 588l-13 547 484-558 375-247 13-289 474-785-468 498-447 524-174 351 3-208-177 248-26-228-44 147z" mask="url(#br)"/>
     <path class="fil53" d="m9909 5488l119 171 550 197 313 285-104-350 7-781 260 521 214 234 100-548 179-532 68-203 113-119-159-150-3 200-19 272-152-295-320-194 47 471-24 294-224-354-237-234 54 160 23 167-170-210-328-144 228 488 26 387-157-230-310-171 153 291 77 241-310-114-354-7 340 257zm1907-785l-20 400 116-456-62-97-34 153z"/>
     <path class="fil19" d="m16184 5733l-401 327 796-66 80-65 334-33-254-147-249-78-306 62zm-1315-1554l-580 168-169 250-588 593 541-300 682-415-94 428-354 528-200 213 714-240 535-307 454-134-405 590 639-161 467 90 281-100-307-127-381-87 261-147 232-70 302-90-552-130-456-11 278-147 336-113-808-94-681 167 280-247 441-180-868 73z"/>
     <path class="fil54" d="m10794 5010l260 521 214 234 95-522-41-225-93-241v301s-87 214-94 197c-6-17-193-264-193-264l-334-207 150 491 29 451-223-371-203-177 127 191 110 243-264-173-317-97 157 194 69 180 335 120 313 285-104-350v-45l7-736z"/>
     <polygon class="fil55" points="14774 4315 14205 4472 14120 4597 13532 5190 14073 4890 14755 4475 14661 4903 14307 5431 14107 5644 14821 5404 15356 5097 15810 4963 15405 5553 16044 5392 16307 5443 16203 5364 15712 5371 15876 5124 16293 4940 16020 4910 15322 5074 15519 4933 15829 4780 15489 4820 14907 5017 15205 4783 15769 4649 15211 4639 14804 4676 15141 4306"/>
     <path class="fil21" d="m16617 9049l835 567-145-410 411 100-392-367-405-308-201-88 518 432-621 74zm-943 4681l89 115 116-339-55-516 287 334 133 213 301-524 287-608 236-776-418-303-728-160 354 948-87 728-427-668-764-343 405 1293-110-85 3 208 247 317 131 166zm896-3726l624 808 32-404 167 668 100-341-36-449-272-195-615-87z"/>
     <path class="fil56" d="m15644 12739l-254-541 284 258 304 487 53-348-269-421-764-343 353 1127 196 95 150 201-53-515zm926-2735l434 562-21-254-47-157 164 157-2-234-528-74zm88 1328l-8-6-728-160 354 948-16 134 102 208 91 274 83-602-114-591 150 150 84 191 23-478-21-68z" mask="url(#bu)"/>
     <path class="fil40" d="m12992 2949l-128 288 7 331-87 381 341-428 554-494 319-473 64-94-68 25-71 55-271 208 96-192 22-44 95-194-213 192-230 137-41-191-145 283-244 210zm1979-564l-351 230-95 34-280 99 50-141 38-105 238-234-498 188-7 110-46 715-154 427 388-234 415-153 219-339-292 171 133-234 98-216 144-318z"/>
     <polygon class="fil57" points="14942 3221 14581 3915 14289 4347 14869 4179 15737 4106 15296 4286 15016 4533 15697 4366 15936 4394 16153 4310 16403 4297 16670 4339 16583 4197 16399 4097 16666 4038 17096 4097 17021 3934 16833 3817 17038 3796 17409 4021 17271 3767 17121 3608 17372 3662 17628 3587 17781 3541 17514 3445 17313 3408 17367 3383 17443 3320 17406 3313 17104 3258 16729 3237 17012 3097 17138 2970 16836 3066 16745 3095 16441 3036 16048 3007 15652 3015 15788 2877 15927 2786 15451 2816 15134 2857 15197 2770 15347 2636 15000 2734 14921 2757 14745 2884 14729 2919 14596 3153 14888 2982 14669 3321"/>
     <polygon class="fil57" points="11963 4450 12551 3501 12858 2967 12864 3237 12992 2949 13236 2739 13030 2715 12767 2790 12433 2886 12625 2924 12671 3017 12487 3011 12183 3061 12358 3128 12170 3228 11711 3295 11448 3295 11511 3408 11567 3464 11590 3487 11118 3504 11106 3592 11172 3683 11020 3831 10834 3888 10638 3892 10688 3994 10863 4118 10655 4205 10571 4318 10813 4293 11009 4410 11106 4514 11075 4196 11395 4390 11547 4685 11566 4413 11569 4213 11728 4363 11943 4135 11850 4550 11912 4647"/>
     <polygon class="fil58" points="11277 4237 11331 4351 11395 4390 11547 4685 11566 4413 11569 4213 11728 4363 11943 4135 11850 4550 11912 4647 11963 4450 12551 3501 12704 3234 12661 3216 12513 3189 12542 3285 12554 3402 12369 3346 12020 3371 11943 3376 11759 3388 11845 3416 11855 3419 11995 3465 12183 3596 11903 3557 11584 3617 11346 3751 11037 3880 11204 3891 11580 3922 11229 4060 11028 4110" mask="url(#bw)"/>
     <polygon class="fil49" points="11939 3974 12010 4133 11816 4097 11607 4072 11665 4174 11674 4312 11728 4363 11943 4135 11850 4550 11912 4647 11963 4450 12432 3692 12406 3623 12292 3550 12275 3751 12204 3857 12060 3784 11770 3747"/>
     <path class="fil59" d="m14028 3159l-8 122-154 427 388-234 218-80 41-148-278 94-150 100 254-374 236-336-396 234-140 200-11-5zm-981-51l-179 319 3 141-87 381 341-428 554-494 19-28 38-192-175 180-155 194 7-169 68-224-434 320z"/>
     <path class="fil58" d="m15039 3068c-42 0-219 20-219 20l-151 233 273-100-361 694-292 432 580-168 868-73-441 180-280 247 681-167 46 6 369-164-184-59 300-133 288-50-317-100-313-59 213-67 513-54 276-17-284-112-263-84 292-50 201-92h-405l-555-163-376 84-343 21 117-109 255-62s-447-34-488-34z" mask="url(#by)"/>
     <polygon class="fil49" points="14976 3582 14704 3679 14581 3915 14289 4347 14869 4179 15737 4106 15296 4286 15016 4533 15236 4479 15619 4266 15870 4074 15327 4095 15548 3974 15807 3907 15465 3849 15126 3849 15360 3707 15627 3603"/>
     <path class="fil16" d="m9596 6343l-576 33-175 64-26 152 190-101 201 8 386-156zm387-2148l55 71 26 36 40 52-103 16-226 34-163-4 50 129 100 146 50 47 71 66-122 30-153 37-339 150 276-25 116 24-275 135-417 234 305-17 154 83-497 130-200 175 275-33 123-10 207-91 474-28 218 77-119-171-340-257 354 7 310 114-77-241-153-291 310 171 157 230-26-387-228-488 328 144 170 210-23-167-54-160 237 234 224 354 24-294-16-153-97-104-196-117-242 25 84-113 208-87-152-108-358 149-370 36zm-858 1808l532-67-314-124-108-13-172-20-127 149-142 175 114-19 67-61 150-20z"/>
     <path class="fil43" d="m9596 6343l-576 33-175 64-26 152 190-101 201 8 386-156zm-844-601l322-142 547-63-147-233-146-46 268-132 454-35-154-113 178-22 82 155 77 241-310-114-354-7 340 257 119 171-218-77-474 28-207 91-123 10-254 31zm1466-803l54-7 180 27 18 262-157-230-95-52zm-1093 1064l532-67-314-124-108-13-172-20-127 149-142 175 114-19 67-61 150-20z"/>
     <path class="fil16" d="m16978 5304l-194-49-188-92 151-14 47-23 62-31-200-91-69-50-222 67-261 147 381 87 307 127-281 100 468 91-489 98 249 78 254 147-334 33-80 65 12-1 548 281-845 140-304 155 784 92 135 97 390 24 363 83 371 38 38 4 371-25-350-146-84-30-167-58 110-203 23-12 226-119-250-76-150-45-218-123 155-32 43-40 95-89-284-79-242-67-205-138h159l48-7 202-30-326-80-223-48 154-12 132-90-290-51-22-3zm-809-731l-278 147 456 11 58 13-33-117 305-8 175-37-297-126-125-155-27-4-250 13-217 84 569 66-336 113z"/>
     <path class="fil43" d="m16993 5896l-334 33-80 65 12-1 548 281-845 140-304 155 784 92 135 97 390 24 363 83 371 38 38 4 348-24-397-67-149-25-614-300h293l187-134-338-75-375-209 225-12 192 79-192-201-426-187-244-99-91 18 249 78 254 147zm-482-414l266 52 82-50-235-42-113 40z"/>
     <polygon class="fil41" points="17452 9616 18126 10765 17457 10286 17493 10735 17777 11141 17978 11706 18119 12101 18245 10941 18411 11258 18428 10790 18336 10028 18077 9446 18380 9680 18520 9789 18846 10406 18478 9079 18216 8367 17919 8102 18190 8158 18361 8194 18904 8595 18411 7902 18115 7563 18002 7434 18101 7453 18311 7492 18612 7593 18278 7292 18068 7187 17860 7083 18055 7079 18228 7075 18033 6903 17662 6865 17299 6782 16909 6758 17623 7269 17382 7236 17055 7209 17409 7429 17703 7890 17315 7737 17180 7732 16768 7717 17195 7937 17563 8578 17042 8117 16507 7957 16721 8097 17055 8465 16694 8291 17122 8718 16921 8631 17326 8939 17718 9306 17307 9206"/>
     <path class="fil60" d="m16909 6758l714 511-241-33-327-27 354 220 294 461-388-153-135-5-412-15 427 220 368 641-521-461-535-160 214 140 334 368-361-174 428 427-201-87 405 308 392 367-411-100 145 410 390 665 311 4-159-542-334-251 292-50-133-238-367-367 513 129 301 305-297-514-405-459-217-284 752 13-184-246-259-230 296 67-171-255-417-426-200-163-255-16zm764 3682l-216-154 25 303 412 360-221-509z"/>
     <path class="fil60" d="m8903 7621l-88 31-120 97-14 105 4 161 169-247-21 178 50-116 219-278-199 69zm92-982l71-82 144-58-201-8-190 101 26-152-52 20-158 273 154-81-98 208-36 173 340-394zm-36 380l37-6-350 60 313-54zm37-6l95-124-123 34-320 141-2 9-42 203 135-94 128-44-190 221-92 182 64-12 39-118 267-346 41-52zm-143 1134l-50 54-10 80 52-46 290-181-200 5-82 88z"/>
     <polygon class="fil19" points="18184 4272 18454 4368 18342 4207 18159 4023 18526 4118 18587 4099 18799 4034 18209 3840 17780 3645 17628 3587 17372 3662 17121 3608 17271 3767 17409 4021 17038 3796 16833 3817 17021 3934 17096 4097 16666 4038 16399 4097 16583 4197 16670 4339 16430 4301 16555 4456 16852 4582 16677 4619 16372 4627 16405 4744 16486 4854 16502 4980 16511 5058 16485 5255 16656 5004 16591 5159 16580 5294 16561 5365 16652 5324 16734 5287 16859 5484 16979 5573 16978 5304 17000 5307 17255 5382 17452 5470 17279 5192 17207 4958 17396 5092 17641 5192 17569 4930 17563 4758 17641 4819 17813 4903 17769 4763 17719 4585 17708 4263 17858 4446 18203 4624 18042 4329 17941 4101"/>
     <path class="fil61" d="m17271 3767l110 202 24 8 304 65-140-124-80-118 234 83 256 136 64 34-43-123-74-89-298-254-256 75-251-54 150 159zm-15 161l-218-132-205 21 188 117 75 163-430-59-267 59 184 100 87 142-240-38 125 155 297 126-175 37-305 8 33 117 81 110 10 80 98 15 8 1 327 50-22-217 127 64 191 46-127-212-95-205 265 117 199-5-398-307-101-116 315 84 261 21-232-207-56-135z"/>
     <polygon class="fil55" points="16979 5498 17075 5688 17140 5891 17171 5904 17242 5812 17246 5694 17383 5945 17443 6140 17456 5935 17449 5845 17593 5949 17758 6019 17847 6056 17900 6079 17832 5949 17800 5888 17770 5742 18047 5905 18338 6009 18221 5712 18141 5317 18598 5668 19056 6269 18916 5648 18682 5264 18441 4883 18752 5003 19114 5418 18865 4887 18675 4639 18946 4746 19396 5157 19200 4792 18993 4558 19219 4629 18910 4464 18782 4396 18642 4215 18526 4118 18159 4023 18342 4207 18454 4368 18184 4272 17941 4101 18042 4329 18203 4624 17858 4446 17708 4263 17719 4585 17769 4763 17813 4903 17641 4819 17563 4758 17569 4930 17641 5192 17396 5092 17207 4958 17279 5192 17452 5470 17255 5382 17000 5307 16978 5304"/>
     <polygon class="fil62" points="17135 5512 17351 5618 17554 5798 17537 5590 17537 5584 17482 5395 17623 5471 17827 5640 17782 5497 17717 5387 17894 5458 18093 5718 17934 5223 17874 4831 18028 4957 18276 5113 18153 4883 18135 4750 18427 5006 18560 5233 18383 4803 18179 4440 18392 4528 18550 4594 18463 4445 18688 4505 18904 4633 18584 4167 18526 4118 18159 4023 18342 4207 18454 4368 18184 4272 17941 4101 18042 4329 18203 4624 17858 4446 17708 4263 17719 4585 17769 4763 17813 4903 17641 4819 17563 4758 17569 4930 17641 5192 17396 5092 17207 4958 17279 5192 17452 5470 17255 5382 17000 5307 16978 5304 16979 5498 17034 5606 17161 5713 17165 5639 17165 5625 17167 5602"/>
     <polygon class="fil63" points="17455 5955 17580 6220 17643 6336 17678 6401 17714 6467 17733 6722 17715 6871 17692 7068 17793 6879 17847 6778 17867 6740 17875 6791 17889 6888 17898 6996 17934 6893 17965 6807 17987 6746 17997 6702 18004 6671 18034 6537 18097 6738 18127 6834 18148 6902 18166 7020 18174 7076 18201 7076 18211 7061 18331 6889 18336 6869 18343 6841 18418 6548 18568 6779 18752 7016 18741 6684 18763 6434 18911 6760 19245 7141 19245 6729 19298 6495 19540 6952 19647 7036 19762 7127 19612 6551 19570 6197 19832 6437 20391 6737 20066 6323 19966 6111 20110 6172 20300 6261 20152 6069 20013 5958 20259 5988 20536 6153 20283 5866 20084 5789 20052 5777 20072 5776 20222 5766 19882 5562 19518 5207 19298 4974 19396 5157 18946 4746 18675 4639 18865 4887 19114 5418 18752 5003 18441 4883 18682 5264 18916 5648 19056 6269 18598 5668 18141 5317 18221 5712 18338 6009 18047 5905 17770 5742 17800 5888 17832 5949 17900 6079 17847 6056 17758 6019 17593 5949 17449 5845 17456 5935"/>
     <path class="fil64" d="m18916 5648l51 227 181 202 225 228-128-337-11-170 70 46 97 63 125 128-58-181-42-86 228 125 231 323-133-370-181-254 203 70 106 78-142-251-136-201-84-81-220-233 98 183-450-411-271-107 190 248 249 531-362-415-311-120 241 381 234 384zm-1043 520l75 57 29 22 63 47 44 81 126 230-10-291-32-204 270 178 178 89-61-195-22-233 167 197 236 451 100 203 17-403-68-221-387-508-457-351 80 395 117 297-291-104-277-163 30 146 32 61 68 130-53-23-89-37-165-70-144-104 7 90-1 20 125 265 53 97 41 25 46 29 133 84 45-147-16-90-9-50z"/>
     <path class="fil64" d="m19612 6551l150 576-115-91-107-84-242-457-53 234v412l-334-381-148-326-22 250 11 332-184-237-150-231-87 341-130 187h-27l-8-56-18-118-21-68-30-96-63-201-30 134-7 31-10 44-22 61-31 86-36 103-9-108-14-97h-2l-26-13-54 101-24 46 32 246-17 195-19 210-5 67-40 143 144-188 25-75 23-71 9 118 3 41 14 201 4 57s-33 76-67 154c-34 77-68 155-69 163s55-34 117-81c34-26 68-53 102-79 27-22 45-37 45-37l81-137 56-94 96 424 43 191 501 773-134-693-11-52 10-77 40-335 329 751 289 484 28-679-56-356 167 351 101 300 22-634-128-551 451 595 158 407 387 990-56-823-139-902 434 874 78 261-100-1185-122-562 495 645 373 952-6-540-139-456 301 534 83 306 21-761-527-897-648-700-439-423-96-12 139 111 148 192-190-89-144-61 100 212 325 414-559-300-262-240 42 354z"/>
     <polygon class="fil65" points="17937 7122 18018 7437 18023 7457 18007 7729 18091 7536 18107 7500 18110 7454 18118 7323 18163 7464 18185 7532 18363 7846 18516 8116 18513 8044 18502 7791 18535 7567 18540 7528 18549 7468 18636 7256 18869 7771 18967 8158 19003 7924 18944 7537 19053 7799 19175 8183 19253 7662 19214 7281 19365 7546 19473 7818 19476 7515 19468 7365 19832 7796 19899 7912 20147 8342 20060 7804 19985 7348 19885 6961 20169 7470 20225 7710 20261 7440 20205 7251 20414 7671 20564 7963 20492 7329 20350 6911 20664 7153 20996 7696 20840 7170 20384 6235 20109 5970 20013 5958 20152 6069 20300 6261 20110 6172 19966 6111 20066 6323 20391 6737 19832 6437 19570 6197 19612 6551 19762 7127 19647 7036 19540 6952 19298 6495 19245 6729 19245 7141 18911 6760 18763 6434 18741 6684 18752 7016 18568 6779 18418 6548 18343 6841 18336 6869 18331 6889 18211 7061 18201 7076 18174 7076 18166 7020 18148 6902 18127 6834 18097 6738 18034 6537 18004 6671 17997 6702 17987 6746 17965 6807 17934 6893 17898 6996 17889 6888 17875 6791 17873 6791 17847 6778 17793 6879 17769 6925 17801 7171 17792 7268 17807 7402 17817 7490 17836 7445 17906 7281"/>
     <path class="fil37" d="m18303 8182l-96-424-56 94-81 137c-63 50-126 101-184 144l-42 383-16 82-61 318-38 198-34 171 5 4 86-118 154-211 68-93 11-23 78-156-145 515-24 434 135-209-14 233-1 29 63-75 75 240-74 290-36 139-71 275 121 206-147-105-99 386 314-351 196-219 58-65 174-429-18 858-89 785 384-629 178-496-6 401 78 546 351-707 106 1091 306 774 467-986 23-929 261 484 95 451 78-545-100-863 306 946 72 534 189-1124-83-941 323 1609 234 673 83-879-33-373 167 412 144 323 11-880-333-1319-357-723 4 432-373-952-495-645 122 562 100 1185-78-261-434-874 139 902 56 823-387-990-158-407-451-595 128 551-22 634-101-300-167-351 56 356-28 679-289-484-329-751-40 335-10 77 11 52 134 693-501-773-43-191z"/>
     <path class="fil66" d="m21637 8836l-178-361 4 432-373-952-495-645 122 562 100 1185-78-261-434-874 139 902 56 823-387-990-158-407-451-595 128 551-22 634-101-300-167-351 56 356-28 679-289-484-329-751-40 335-10 77 11 52 134 693-501-773-43-191-96-424-56 94-81 137c-15 12-30 24-45 37l-100 77-2 2c-13 10-25 19-37 28l-42 383-16 82-61 318-38 198-34 171 67-138 99-207 66-138 30-58 144-272 107 352 115 686 24-96 61-251 70-84 53 191 1 542 1 99 23-54 84-193 62-141 35-231 67 414 42 700 252-353 147-449 80 351 107 343 138-325 232-837 200 601 236 824 71-450 14-378 164 383 125 320 161-619 22-614 129 311 98 352 160-579-58-734 339 815 169 636 80-636-75-532z"/>
     <path class="fil67" d="m20379 11619l-467 986-306-774-106-1091-351 707-78-546 6-401-178 496-384 629 89-785 18-858-174 429-58 65-196 219-114 127s-113 416-183 656c-27 92-47 159-51 166-17 25-209 718-209 718l82 563 100-469 278-417 35-52 56-85-88 618 422 965 83-585 163-689 13 794 246 622 117-497 142-309 21 221 92 276 8-288 104-130 435 1069v484l409-910 50-710 225 952-50 418 484-802 109-952 192 785 17 560 342-443 221-609 71-506 292 493 92 401 100-643-50-476 217 417-142-930-378-765-9 664-144-323-167-412 33 373-83 879-234-673-323-1609 83 941-189 1124-72-534-306-946 100 863-78 545-95-451-261-484-23 929z"/>
     <path class="fil68" d="m20379 11619l-467 986-269-681-37-93-106-1091-351 707-78-546 6-401-178 496-384 629 89-785 18-858-174 429-58 65-196 219-114 127s-8 31-22 80l-19 521-7 435 134-190 83-118 162-292-4 467-33 535 334-384 251-418 54 422 129 467-4-363 117-259 146 865 54-305 117-305 71-56 134 807 229 627 126-627 167-596 125 325 184 706-13-522-67-568 242 267 126 322 133-501 25-292 284 718 159 584 146-555-21-555 180 217 83-205 38-651 208 438 117 418v-685l-107-426-3 227-144-323-167-412 33 373-83 879-234-673-323-1609 83 941-189 1124-72-534-306-946 100 863-78 545-95-451-261-484-23 929z"/>
     <path class="fil68" d="m17925 12296l-85 870-8 768 225 768-17-567 25-301 151 610s250 576 259 617c8 42 283 551 283 551l-25-559-41-392 242 601 217 309 451 284v-410l142 167 25 243 150-126 142-317 17 251-9 192 209-167 584-518 326-551-50 309-75 275 259-275 584-785 301-1019 75-439-266-449-71 506-221 609-342 443-17-560-192-785-109 952-484 802 50-418-225-952-50 710-409 910v-484l-435-1069-104 130-8 288-92-276-21-221-142 309-117 497-246-622-13-794-163 689-83 585-422-965 88-618-56 85-35 52-172 257z"/>
     <path class="fil69" d="m20355 13543l-409 910v-484l-435-1069-104 130-8 288-92-276-21-221-142 309-117 497-246-622-13-794-163 689-83 585-422-965 88-618-56 85-35 52-172 257-85 870-8 768 215 735-108-683 75-556 134 459 163 397-25-526 46-313 154 760 109 275 46-229 100-192 179 576 313 471s-37-601-37-659c0-59 192-610 192-610l63 493 125 342 83-359 80-192 100 401 71 455 33 255 238-418 130-417 4 208-9 188 184-242 443-613-17 371-188 443 409-447 422-555-109 476 301-384 209-764 139-704-83-140-71 506-221 609-342 443-17-560-192-785-109 952-484 802 50-418-225-952-50 710z"/>
    <path class="fil70" d="m16545 13013l-301 524-133-213-287-334 55 516-116 339-89-115-131-166-247-317 7 471-161 708-40-374-147-554-180 828-347 461-100-287-54-90-40 142-32 113-107 174-288 466 52-315 43-258 1-180 1-292-85 292-55 190-60 206 51 252-5 245 178-167 84-178 38 172 117 256 95-278 28-267 161 339 223 245-33-295 22-300 133 167 245 250-61-428 22-318 67 234 84 150 22-222 11-123 111 240 268 289-95-534 56-373 44 222 89 256 67-317 78-139 44 217 212 367 261 240-122-752 78-489 139 512 273 222-61-512-56-312 156 318 133 133-39-300-44-173 323 317 389 195-222-506v-306l261 300 156 106-100-473-56-462 201 217 109 78 1-97 85-870-106 160-100 469-82-563s192-693 209-718c4-7 24-74 51-166l-120-337-284-406-100 341-167-668-32 404 31 40 180 1022-337-245-236 776-287 608z"/>
    <path class="fil71" d="m16556 13308l94 256 211 706-39-300-44-173 323 317 389 195-222-506v-306l261 300 156 106-100-473-56-462 201 217 109 78 1-97 85-870-106 160-100 469-82-563s192-693 209-718c4-7 24-74 51-166l-120-337-284-406-100 341-167-668-32 404 31 40 180 1022-337-245-236 776-287 608-301 524-133-213-287-334 55 516-116 339-89-115-131-166-247-317 7 471-161 708-40-374-147-554-180 828-347 461-50-144-50-143-54-90-40 142-32 113-107 174-110 179 144 99s22-167 44-201c23-33 205-273 205-273l90 318 229-245 211-362 134 162 144 166 28-239 173-239-28 312 245-379 5-306 151 250 239 412-33-378 16-290 89 212 106-195 201-234 178-300zm-2654 1424l1-180 1-292-85 292-55 190-30 103 134 92 34-205z"/>
    <polygon class="fil72" points="9006 5711 8752 5742 8731 5744 8931 5569 9428 5439 9274 5356 8969 5373 9386 5139 9661 5004 9545 4980 9269 5005 9608 4855 9761 4818 9883 4788 9812 4722 9762 4675 9712 4602 9380 4826 9091 4993 9202 4993 9074 5132 8896 5272 9041 5255 8857 5439 8612 5700 8312 6101 8506 5951 8618 5889 8456 6084 8234 6418 8111 6797 8359 6468 8248 6744 8236 7036 8456 6685 8437 6875 8793 6460 8294 6644 8908 6084 8794 6103 8936 5928 9063 5779 8975 5769 9129 5701"/>
    <path class="fil73" d="m9608 4855l153-37 122-30-71-66-25-23-399 225-47 49 267-118zm-815 1605l-277 102-7 111 81-99v122l203-236zm-269-26l384-350-114 19 142-175 127-149-88-10 154-68-123 10-172 21-108 179 178-110-217 285-157 256-6 92zm407-865l497-130-154-83-213 11-89 120 121-57h103l-265 139zm455-430l275-135-116-24-231 21-139 144 135-78 96-18-221 153-63 85 264-148z"/>
    <path class="fil74" d="m8243 6855c-4 43-119 356-119 356l-219 422 144-101 91-112-193 464-262 615-213 395 197-160 134-187-160 342-112 203 251-198 96-155-80 471 32 363 128-321 166-320-54 246 27 272 80-176 85 152 135-228 389-338-565 262 393-680 179-161 10-80-148 159 178-414 21-178-169 247-4-161 14-105-160 130 114-350-64 12 92-182 190-221-128 44-135 94 42-203 2-9-32 15 39-46 36-173 98-208-154 81 158-273-203 236-153 179 19-190-220 351 7-181z"/>
    <path class="fil75" d="m8398 7155l-83 429-179 517 184-155-150 317-173 306 190-84-117 212-56 340 156-234 94-139-38 311 94-153-2 131 296-511 179-161 10-80-148 159 178-414 21-178-169 247-4-161 14-105-160 130 114-350-64 12 92-182 190-221-128 44-135 94 42-203 2-9-32 15 39-46 36-173 98-208-154 81 158-273-203 236-153 179 10-95-188 503 139-128zm388 1705l-470 217-1 124 29 86 53-89 389-338z"/>
    <path class="fil76" d="m7695 8963l-239 778-217 473-234 490-33 339 122-256 212-350-67 283-6 401 67-195 145-183-28 250 61 685 50-451 112-317 311-490-66 278-12 557 62 401 105-340 101-156 16 340 38 139 87-299 224-196s-176 93-257 121l190-345-497 153 625-488-186 45 216-371-354-27 294-299-252 90-57 20 192-295 316-150-178 13-548 243 252-428-85-152-80 176-27-272 54-246-166 320-128 321-32-363 80-471-96 155-87 69z"/>
    <path class="fil77" d="m8439 10920l-371 114v145l23 59 50-78 16 340 38 139 87-299 224-196s-176 93-257 121l190-345zm-371 55l499-390-186 45 216-371-354-27 294-299-252 90-57 20 192-295 316-150-178 13-548 243 252-428-85-152-80 176-27-272 54-246-166 320-128 321-22-248-154 384-93 388-23 454 130-285 155-196-44 298-9 147 129-209 156-147-5 214-31 405 89-250-40 388v59z"/>
    <path class="fil68" d="m7238 10812l-174 330-108 292 158-146s-150 296-154 317l-117 522 117-250 129-113-133 338-55 267 142-217-29 226 67 442 67-142 87-192v280l155 409 79-376 104-267 42 246 54 209 51-371 137-339 41 372 297-1010-38-139-16-340-50 78-51 78-105 340-62-401 12-557 66-278-311 490-112 317-50 451-61-685 28-250-145 183-67 195 5-309zm869 1744l-169 210 70 204 45-196 122 142-68-360z"/>
    <path class="fil67" d="m7262 11288l97-436-59 74-67 195 5-309-174 330-108 292 158-146s-150 296-154 317l-117 522 117-250 129-113-133 338-55 267 142-217-29 226 67 442 67-142 87-192v280l155 409 79-376 104-267 42 246 54 209 51-371 137-339 41 372 84-287 74-377-92 109-205 309 38-171 108-355-179 246-153 409-23-321 55-330-217 238-117 259-25-259 25-401 83-309-46 50-75 96 29-267zm845 1268l-169 210 70 204 45-196 122 142-68-360z"/>
    <polygon class="fil69" points="7469 12799 7390 13175 7235 12766 7235 12486 7148 12678 7081 12820 7022 12427 6962 12870 7079 13384 7133 13184 7187 13067 7279 13530 7471 13772 7475 13526 7492 13355 7546 13513 7613 13630 7630 13367 7646 13217 7730 13447 7938 13760 7901 13459 7938 13284 7976 13497 8264 13722 8227 13434 8252 13320 8175 12916 8053 12774 8008 12970 7938 12766 7822 12910 7898 12649 7857 12277 7720 12616 7669 12987 7615 12778 7573 12532"/>
    <path class="fil68" d="m10111 14738l2 394c0 67 84-222 84-222l-86-172zm-233 259l77 295 64-134-141-161-296-337-105-205-106-204-1 7-2-12-47-93-41-155-26-101-50-196-146 331-254-354-83-358-38 78-35-181-66 201-106 320-213-360-11-58-25 114 37 288-288-225-38-213-37 175 37 301-208-313-84-230-16 150-17 263-67-117-54-158-17 171-4 246-127-160 277 624 605 947-129-563-4-197 288 556 505 509-154-413-9-301 113 276 154 225-62-371 33-172 397 606 292 142-175-752 2-273 123 390 213 434 54-171 11-111z"/>
    <path class="fil78" d="m10111 14738l2 394c0 67 84-222 84-222l-86-172zm-2490-1239l192 465 305 385-58-355 183 325 284 522-54-351-67-342 238 246 188 251 17-188-21-171 208 142 394 945 220 107-175-752 2-273 123 390 213 434 54-171 11-111 77 295 64-134-141-161-296-337-105-205-106-204-1 7-2-12-47-93-41-155-26-101-50-196-146 331-254-354-83-358-38 78-35-181-66 201-106 320-213-360-11-58-25 114 37 288-288-225-38-213-37 175 37 301-208-313-84-230-16 150-9 132z"/>
   <polygon class="fil21" points="22455 11356 22525 11498 22667 12428 22450 12011 22500 12487 22494 12530 22622 12627 23009 12687 22869 12500 22748 12326 22982 12380 23302 12382 23149 12226 22982 12046 23356 12100 23817 11979 23303 11719 23049 11532 23396 11552 23784 11458 22969 11338 22291 11025"/>
   <path class="fil79" d="m22525 11498l103 675 98 17 254 36-127-117-144-187 174 20 275-5 239-5-207-103-344-207-97-124 201 17-107-107-170-206-382-177 164 331 70 142zm142 930l-217-417 42 396 114 100 223 77-179-269 17 113z"/>
   <path class="fil80" d="m18047 14669l-215-735 7-671-109-78-201-217 56 462 100 473-156-106-261-300v306l222 506-389-195-323-317 44 173 39 300-133-133-156-318 56 312 61 512-273-222-139-512-78 489 122 752-261-240-212-367-44-217-78 139-67 317-89-256-44-222-56 373 95 534-268-289-111-240-11 123-22 222-84-150-67-234-22 318 61 428-245-250-133-167-22 300 33 295-223-245-161-339-28 267-95 278-117-256-38-172-84 178-178 167 5-245-51-252-25 85-45 101-389 867-380-425-15 194-173-338-139 380-149-223-44-68-30 196-45-90-24-47-125 126 221 668-47 581-307 882 334-401 94-155 119-199v314l-153 517-127 425 110-111 398-404 574-641-33 368-61 581 221-334 294-488 73 628 374 795 161-875 494-1256v681l194 622 26-608 167-401 481 688 94 421 233-474 67-842 621 1002 34-1049-154-835 535 949 213 634 121-848-14-441 287 501 455 481-234-695-147-1162 294 688 547 601-100-648-53-314 447 408 241 320 17-658-81-51-217-309-242-601 41 392 25 559s-275-509-283-551c-9-41-259-617-259-617l-151-610-25 301 17 567-10-33z"/>
   <path class="fil81" d="m13243 18131l326-835 87-701 154 380 133 381 100-521v-554l141 274 133 440 154-741 234-407 26 260 154 227 7-260 20-207 127 253 240 374v-627l27-401 294 180s187 287 193 321c7 33 60-327 60-327l-60-395 267 228 254 247 167 447 127-1002-73-300 294 187 334 314 387 180-147-488-40-414 267 167 408 274 227 414-14-380-60-187 194 280 174 220 53-93c-67-128-133-257-137-278-9-41-259-617-259-617l-151-610-25 301 17 567-10-33-215-735 7-671-109-78-201-217 56 462 100 473-156-106-261-300v306l222 506-389-195-323-317 44 173 39 300-133-133-156-318 56 312 61 512-273-222-139-512-78 489 122 752-261-240-212-367-44-217-78 139-67 317-89-256-44-222-56 373 95 534-268-289-111-240-11 123-22 222-84-150-67-234-22 318 61 428-245-250-133-167-22 300 33 295-223-245-161-339-28 267-95 278-117-256-38-172-84 178-178 167 5-245-51-252-25 85-45 101-389 867-380-425-15 194-173-338-139 380-149-223-44-68-30 196-45-90-24-47-125 126 221 668-47 581-307 882 334-401 94-155 119-199v314l-153 517-127 425 110-111 398-404 574-641-33 368-61 581zm5507-2704l183 233 120 207 28-396-147-209-242-601 41 392 17 374z"/>
   <path class="fil82" d="m18047 14669l-215-735 7-671-109-78-201-217 56 462 100 473-156-106-261-300v306l222 506-389-195-323-317 44 173 39 300-133-133-156-318 56 312 61 512-273-222-139-512-78 489 122 752-261-240-212-367-44-217-78 139-67 317-89-256-44-222-56 373 95 534-268-289-111-240-11 123-22 222-84-150-67-234-22 318 61 428-245-250-133-167-22 300 33 295-223-245-161-339-28 267-95 278-117-256-38-172-84 178-178 167 5-245-51-252-25 85-45 101-389 867-380-425-15 194-173-338-139 380-149-223-44-68-30 196-45-90-24-47-125 126 221 668-47 581-307 882 334-401 94-155 119-199v314l-153 517-127 425 110-111 398-404 574-641-33 368-61 581 221-334 294-488 73 628 374 795 161-875 494-1256v681l194 622 26-608 167-401 481 688 94 421 233-474 67-842 621 1002 34-1049-154-835 535 949 213 634 121-848-14-441 287 501 455 481-234-695-147-1162 294 688 547 601-100-648-53-314 447 408 241 320 17-658-81-51-217-309-242-601 41 392 25 559s-275-509-283-551c-9-41-259-617-259-617l-151-610-25 301 17 567-10-33z" mask="url(#ca)"/>
</svg>
